sources
<glyph name="exclam" format="2">
  <advance width="144"/>
  <unicode hex="0021"/>
  <outline>
    <contour>
      <point x="72.9375" y="-17.7412" type="line"/>
      <point x="21.9473" y="33.0908" type="line"/>
      <point x="72.7793" y="84.0811" type="line"/>
      <point x="123.77" y="33.249" type="line"/>
    </contour>
    <contour>
      <point x="36.9004" y="150.6" type="line"/>
      <point x="36.9004" y="653.6" type="line"/>
      <point x="108.9" y="653.6" type="line"/>
      <point x="108.9" y="150.6" type="line"/>
    </contour>
  </outline>
</glyph>
<glyph name="quotedbl" format="2">
  <advance width="229"/>
  <unicode hex="0022"/>
  <outline>
    <contour>
      <point x="53.2998" y="475.9" type="curve"/>
      <point x="0" y="524.3" type="line"/>
      <point x="27.4004" y="554.6"/>
      <point x="26.9004" y="591.2"/>
      <point x="26.2998" y="633.7" type="curve" smooth="yes"/>
      <point x="26.2002" y="639.7"/>
      <point x="26.0996" y="645.9"/>
      <point x="26.0996" y="652" type="curve"/>
      <point x="98.0996" y="652" type="line"/>
      <point x="98.0996" y="646.4"/>
      <point x="98.2002" y="640.7"/>
      <point x="98.2998" y="634.7" type="curve" smooth="yes"/>
      <point x="99" y="586.8"/>
      <point x="99.7998" y="527.2"/>
    </contour>
    <contour>
      <point x="163.4" y="475.9" type="curve"/>
      <point x="110.1" y="524.3" type="line"/>
      <point x="137.5" y="554.6"/>
      <point x="137" y="591.2"/>
      <point x="136.4" y="633.7" type="curve" smooth="yes"/>
      <point x="136.3" y="639.7"/>
      <point x="136.2" y="645.9"/>
      <point x="136.2" y="652" type="curve"/>
      <point x="208.2" y="652" type="line"/>
      <point x="208.2" y="646.4"/>
      <point x="208.3" y="640.7"/>
      <point x="208.4" y="634.7" type="curve" smooth="yes"/>
      <point x="209.1" y="586.8"/>
      <point x="210" y="527.2"/>
    </contour>
  </outline>
</glyph>
<glyph name="numbersign" format="2">
  <advance width="584"/>
  <unicode hex="0023"/>
  <outline>
    <contour>
      <point x="567.9" y="292.4" type="curve"/>
      <point x="584.5" y="222.2" type="line"/>
      <point x="518.9" y="206.8"/>
      <point x="451.8" y="196.4"/>
      <point x="384.1" y="191.3" type="curve"/>
      <point x="354.3" y="125.1"/>
      <point x="321.2" y="64.7002"/>
      <point x="285.4" y="11.5" type="curve"/>
      <point x="225.7" y="51.7002" type="line"/>
      <point x="253.2" y="92.5"/>
      <point x="279.1" y="138.1"/>
      <point x="303" y="187.6" type="curve"/>
      <point x="296.8" y="187.5"/>
      <point x="290.7" y="187.5"/>
      <point x="284.5" y="187.5" type="curve" smooth="yes"/>
      <point x="247.1" y="187.5"/>
      <point x="209.8" y="189.1"/>
      <point x="172.6" y="192.3" type="curve"/>
      <point x="142.7" y="125.7"/>
      <point x="109.4" y="64.9004"/>
      <point x="73.4004" y="11.5" type="curve"/>
      <point x="13.7002" y="51.7002" type="line"/>
      <point x="43.5996" y="96.2002"/>
      <point x="71.5996" y="146.2"/>
      <point x="97.2998" y="200.9" type="curve"/>
      <point x="64.5996" y="205.6"/>
      <point x="32.0996" y="211.5"/>
      <point x="0" y="218.7" type="curve"/>
      <point x="15.7002" y="289.1" type="line"/>
      <point x="52.5" y="280.9"/>
      <point x="89.7002" y="274.4"/>
      <point x="127.3" y="269.6" type="curve"/>
      <point x="139.6" y="299.9"/>
      <point x="151.2" y="331.4"/>
      <point x="162.1" y="363.8" type="curve"/>
      <point x="107.4" y="368.9"/>
      <point x="53.2002" y="377.3"/>
      <point x="0" y="389.2" type="curve"/>
      <point x="15.7002" y="459.6" type="line"/>
      <point x="70.9004" y="447.3"/>
      <point x="127.3" y="438.8"/>
      <point x="184.1" y="434.2" type="curve"/>
      <point x="215.9" y="543.8"/>
      <point x="227.9" y="624.2"/>
      <point x="228" y="625" type="curve"/>
      <point x="299.2" y="614.6" type="line" smooth="yes"/>
      <point x="298.8" y="611.3"/>
      <point x="287.6" y="536.6"/>
      <point x="257.9" y="430.5" type="curve"/>
      <point x="266.8" y="430.3"/>
      <point x="275.6" y="430.2"/>
      <point x="284.5" y="430.2" type="curve" smooth="yes"/>
      <point x="321.9" y="430.2"/>
      <point x="359.2" y="431.9"/>
      <point x="396.3" y="435.2" type="curve"/>
      <point x="427.8" y="544.3"/>
      <point x="439.8" y="624.2"/>
      <point x="439.9" y="625" type="curve"/>
      <point x="511.1" y="614.6" type="line" smooth="yes"/>
      <point x="510.7" y="611.4"/>
      <point x="500.5" y="543.1"/>
      <point x="473.7" y="444.6" type="curve"/>
      <point x="505.4" y="449.5"/>
      <point x="536.8" y="455.6"/>
      <point x="567.9" y="462.9" type="curve"/>
      <point x="584.4" y="392.8" type="line"/>
      <point x="540.6" y="382.5"/>
      <point x="496.1" y="374.4"/>
      <point x="451.3" y="368.7" type="curve"/>
      <point x="440.2" y="333.7"/>
      <point x="428.2" y="299.5"/>
      <point x="415.4" y="266.5" type="curve"/>
      <point x="466.8" y="272"/>
      <point x="517.8" y="280.6"/>
    </contour>
    <contour>
      <point x="201.9" y="262.3" type="curve"/>
      <point x="229.3" y="260.5"/>
      <point x="256.9" y="259.6"/>
      <point x="284.3" y="259.6" type="curve" smooth="yes"/>
      <point x="301.4" y="259.6"/>
      <point x="318.4" y="260"/>
      <point x="335.4" y="260.7" type="curve"/>
      <point x="348.8" y="292.9"/>
      <point x="361.3" y="326.5"/>
      <point x="373" y="361.1" type="curve"/>
      <point x="343.6" y="359.1"/>
      <point x="314" y="358.1"/>
      <point x="284.4" y="358.1" type="curve" smooth="yes"/>
      <point x="268.4" y="358.1"/>
      <point x="252.3" y="358.4"/>
      <point x="236.3" y="359" type="curve"/>
      <point x="225.6" y="325.8"/>
      <point x="214.1" y="293.5"/>
    </contour>
  </outline>
</glyph>
<glyph name="dollar" format="2">
  <advance width="382"/>
  <unicode hex="0024"/>
  <outline>
    <contour>
      <point x="312.2" y="39.2002" type="line"/>
      <point x="312.1" y="39.5"/>
      <point x="301.8" y="56"/>
      <point x="284.9" y="78.0996" type="curve"/>
      <point x="261" y="56.5996"/>
      <point x="232.3" y="42.2002"/>
      <point x="201.3" y="35.9004" type="curve"/>
      <point x="201.3" y="-1.2998" type="line"/>
      <point x="129.3" y="-1.2998" type="line"/>
      <point x="129.3" y="34.5996" type="line"/>
      <point x="99.5996" y="38.5996"/>
      <point x="74.4004" y="47.9004"/>
      <point x="54.0996" y="62.4004" type="curve" smooth="yes"/>
      <point x="26.2998" y="82.2002"/>
      <point x="10" y="110.4"/>
      <point x="8.2002" y="141.8" type="curve" smooth="yes"/>
      <point x="6.59961" y="170.4"/>
      <point x="17.2002" y="198.3"/>
      <point x="38.2002" y="220.1" type="curve" smooth="yes"/>
      <point x="59.2998" y="242.1"/>
      <point x="88.4004" y="255.7"/>
      <point x="122.6" y="259.6" type="curve" smooth="yes"/>
      <point x="124.8" y="259.9"/>
      <point x="127.1" y="260.1"/>
      <point x="129.3" y="260.2" type="curve" smooth="yes"/>
      <point x="129.3" y="322.3" type="line"/>
      <point x="63.5" y="338.5"/>
      <point x="14.5996" y="397.9"/>
      <point x="14.5996" y="468.6" type="curve" smooth="yes"/>
      <point x="14.5996" y="539.3"/>
      <point x="63.5" y="598.7"/>
      <point x="129.2" y="614.9" type="curve"/>
      <point x="129.2" y="652.8" type="line"/>
      <point x="201.2" y="652.8" type="line"/>
      <point x="201.2" y="614.9" type="line"/>
      <point x="267" y="598.7"/>
      <point x="315.9" y="539.3"/>
      <point x="315.9" y="468.6" type="curve"/>
      <point x="243.9" y="468.6" type="line"/>
      <point x="243.9" y="499"/>
      <point x="226.5" y="525.4"/>
      <point x="201.2" y="538.5" type="curve"/>
      <point x="201.2" y="386.4" type="line"/>
      <point x="235.3" y="379.5"/>
      <point x="266.6" y="362.7"/>
      <point x="291.7" y="337.6" type="curve" smooth="yes"/>
      <point x="325.5" y="303.8"/>
      <point x="344.1" y="258.9"/>
      <point x="344.1" y="211.1" type="curve" smooth="yes"/>
      <point x="344.1" y="185.6"/>
      <point x="338.8" y="161"/>
      <point x="328.8" y="138.5" type="curve"/>
      <point x="355.7" y="105.6"/>
      <point x="372.6" y="78.4004"/>
      <point x="373.5" y="76.9004" type="curve" smooth="yes"/>
    </contour>
    <contour>
      <point x="272.1" y="211.1" type="curve" smooth="yes"/>
      <point x="272.1" y="257.4"/>
      <point x="242.5" y="296.9"/>
      <point x="201.2" y="311.7" type="curve"/>
      <point x="201.2" y="245.8" type="line"/>
      <point x="224.2" y="235.6"/>
      <point x="247.6" y="219.9"/>
      <point x="271.4" y="198.9" type="curve"/>
      <point x="271.9" y="202.9"/>
      <point x="272.1" y="207"/>
    </contour>
    <contour>
      <point x="86.5996" y="468.6" type="curve" smooth="yes"/>
      <point x="86.5996" y="438.2"/>
      <point x="104" y="411.8"/>
      <point x="129.3" y="398.7" type="curve"/>
      <point x="129.3" y="538.5" type="line"/>
      <point x="104" y="525.4"/>
      <point x="86.5996" y="499"/>
    </contour>
    <contour>
      <point x="80" y="145.9" type="curve" smooth="yes"/>
      <point x="80.9004" y="130.2"/>
      <point x="96.7002" y="114.3"/>
      <point x="129.2" y="107.6" type="curve"/>
      <point x="129.2" y="187.9" type="line"/>
      <point x="95.5996" y="183.5"/>
      <point x="79" y="163.6"/>
    </contour>
    <contour>
      <point x="201.3" y="162.8" type="curve"/>
      <point x="201.3" y="110.5" type="line"/>
      <point x="214.8" y="115.3"/>
      <point x="227" y="122.8"/>
      <point x="237.4" y="132.3" type="curve"/>
      <point x="225" y="144.3"/>
      <point x="213" y="154.5"/>
    </contour>
  </outline>
</glyph>
<glyph name="percent" format="2">
  <advance width="678"/>
  <unicode hex="0025"/>
  <outline>
    <contour>
      <point x="75.5" y="-24" type="curve"/>
      <point x="27" y="29.2998" type="line"/>
      <point x="185" y="173"/>
      <point x="327.4" y="340.7"/>
      <point x="419" y="456.1" type="curve" smooth="yes"/>
      <point x="518.3" y="581.2"/>
      <point x="580.8" y="672.9"/>
      <point x="581.4" y="673.9" type="curve"/>
      <point x="641" y="633.5" type="line"/>
      <point x="638.4" y="629.7"/>
      <point x="576.4" y="538.5"/>
      <point x="475.4" y="411.4" type="curve" smooth="yes"/>
      <point x="382.1" y="293.8"/>
      <point x="237" y="123"/>
    </contour>
    <contour>
      <point x="170.8" y="358.5" type="curve" smooth="yes"/>
      <point x="93.7998" y="358.5"/>
      <point x="31.2002" y="421.1"/>
      <point x="31.2002" y="498.1" type="curve" smooth="yes"/>
      <point x="31.2002" y="575.1"/>
      <point x="93.7998" y="637.7"/>
      <point x="170.8" y="637.7" type="curve" smooth="yes"/>
      <point x="247.8" y="637.7"/>
      <point x="310.4" y="575.1"/>
      <point x="310.4" y="498.1" type="curve" smooth="yes"/>
      <point x="310.4" y="421.1"/>
      <point x="247.7" y="358.5"/>
    </contour>
    <contour>
      <point x="170.8" y="565.7" type="curve" smooth="yes"/>
      <point x="133.5" y="565.7"/>
      <point x="103.2" y="535.4"/>
      <point x="103.2" y="498.1" type="curve" smooth="yes"/>
      <point x="103.2" y="460.8"/>
      <point x="133.5" y="430.5"/>
      <point x="170.8" y="430.5" type="curve" smooth="yes"/>
      <point x="208.1" y="430.5"/>
      <point x="238.4" y="460.8"/>
      <point x="238.4" y="498.1" type="curve" smooth="yes"/>
      <point x="238.4" y="535.4"/>
      <point x="208" y="565.7"/>
    </contour>
    <contour>
      <point x="507.7" y="-5" type="curve" smooth="yes"/>
      <point x="430.7" y="-5"/>
      <point x="368.1" y="57.5996"/>
      <point x="368.1" y="134.6" type="curve" smooth="yes"/>
      <point x="368.1" y="211.6"/>
      <point x="430.7" y="274.2"/>
      <point x="507.7" y="274.2" type="curve" smooth="yes"/>
      <point x="584.7" y="274.2"/>
      <point x="647.3" y="211.6"/>
      <point x="647.3" y="134.6" type="curve" smooth="yes"/>
      <point x="647.3" y="57.5996"/>
      <point x="584.6" y="-5"/>
    </contour>
    <contour>
      <point x="507.7" y="202.2" type="curve" smooth="yes"/>
      <point x="470.4" y="202.2"/>
      <point x="440.1" y="171.9"/>
      <point x="440.1" y="134.6" type="curve" smooth="yes"/>
      <point x="440.1" y="97.2998"/>
      <point x="470.4" y="67"/>
      <point x="507.7" y="67" type="curve" smooth="yes"/>
      <point x="545" y="67"/>
      <point x="575.3" y="97.2998"/>
      <point x="575.3" y="134.6" type="curve" smooth="yes"/>
      <point x="575.3" y="171.9"/>
      <point x="544.9" y="202.2"/>
    </contour>
  </outline>
</glyph>
<glyph name="ampersand" format="2">
  <advance width="570"/>
  <unicode hex="0026"/>
  <outline>
    <contour>
      <point x="531" y="115.4" type="curve"/>
      <point x="557.9" y="48.7002" type="line"/>
      <point x="500.5" y="25.5"/>
      <point x="448.3" y="14.7998"/>
      <point x="402.8" y="16.7002" type="curve" smooth="yes"/>
      <point x="390.5" y="17.2998"/>
      <point x="378.7" y="18.7002"/>
      <point x="367.5" y="21.0996" type="curve"/>
      <point x="334.3" y="4.5"/>
      <point x="297.4" y="-4.2998"/>
      <point x="259.1" y="-4.2998" type="curve" smooth="yes"/>
      <point x="194.2" y="-4.2998"/>
      <point x="133.1" y="21"/>
      <point x="87.2002" y="66.9004" type="curve" smooth="yes"/>
      <point x="41.2998" y="112.8"/>
      <point x="16" y="173.9"/>
      <point x="16" y="238.8" type="curve" smooth="yes"/>
      <point x="16" y="301.8"/>
      <point x="39.7998" y="361.2"/>
      <point x="83.4004" y="406.3" type="curve"/>
      <point x="78.5996" y="425.5"/>
      <point x="76.0996" y="445.8"/>
      <point x="76.0996" y="466.7" type="curve" smooth="yes"/>
      <point x="76.0996" y="473.9"/>
      <point x="76.4004" y="481.1"/>
      <point x="77" y="488.2" type="curve" smooth="yes"/>
      <point x="79.9004" y="531.6"/>
      <point x="98.0996" y="572"/>
      <point x="129.1" y="603" type="curve" smooth="yes"/>
      <point x="162.9" y="636.9"/>
      <point x="207.9" y="655.5"/>
      <point x="255.7" y="655.5" type="curve" smooth="yes"/>
      <point x="303.5" y="655.5"/>
      <point x="348.5" y="636.8"/>
      <point x="382.3" y="603" type="curve" smooth="yes"/>
      <point x="416.2" y="569.2"/>
      <point x="434.8" y="524.2"/>
      <point x="434.8" y="476.4" type="curve"/>
      <point x="362.8" y="476.4" type="line"/>
      <point x="362.8" y="535.5"/>
      <point x="314.8" y="583.5"/>
      <point x="255.7" y="583.5" type="curve" smooth="yes"/>
      <point x="205.9" y="583.5"/>
      <point x="164" y="549.4"/>
      <point x="152" y="503.3" type="curve" smooth="yes"/>
      <point x="150.5" y="496.7"/>
      <point x="149.4" y="489.9"/>
      <point x="148.8" y="482.8" type="curve" smooth="yes"/>
      <point x="148.7" y="480.7"/>
      <point x="148.6" y="478.6"/>
      <point x="148.6" y="476.4" type="curve"/>
      <point x="148.3" y="476.4" type="line" smooth="yes"/>
      <point x="148.1" y="473.3"/>
      <point x="148" y="470.1"/>
      <point x="148" y="466.8" type="curve" smooth="yes"/>
      <point x="148" y="463.4"/>
      <point x="148.1" y="460"/>
      <point x="148.3" y="456.7" type="curve"/>
      <point x="180" y="474"/>
      <point x="213.4" y="482.5"/>
      <point x="246.1" y="481.2" type="curve" smooth="yes"/>
      <point x="279.7" y="479.9"/>
      <point x="308.5" y="468.8"/>
      <point x="329.2" y="449.1" type="curve" smooth="yes"/>
      <point x="348.2" y="431"/>
      <point x="359.6" y="406.2"/>
      <point x="361.3" y="379.3" type="curve" smooth="yes"/>
      <point x="362.9" y="353.6"/>
      <point x="355.6" y="327.9"/>
      <point x="340.7" y="307.1" type="curve" smooth="yes"/>
      <point x="324.4" y="284.2"/>
      <point x="300.1" y="269.1"/>
      <point x="272.2" y="264.5" type="curve" smooth="yes"/>
      <point x="249.7" y="260.8"/>
      <point x="227.2" y="262.3"/>
      <point x="205.2" y="268.9" type="curve" smooth="yes"/>
      <point x="184.1" y="275.3"/>
      <point x="164.5" y="286.1"/>
      <point x="146.9" y="301" type="curve" smooth="yes"/>
      <point x="135.6" y="310.6"/>
      <point x="125.5" y="321.6"/>
      <point x="116.7" y="333.7" type="curve"/>
      <point x="98" y="305.8"/>
      <point x="88" y="273.1"/>
      <point x="88" y="238.8" type="curve" smooth="yes"/>
      <point x="88" y="193.1"/>
      <point x="105.8" y="150.1"/>
      <point x="138" y="117.7" type="curve" smooth="yes"/>
      <point x="170.3" y="85.4004"/>
      <point x="213.3" y="67.5996"/>
      <point x="259" y="67.5996" type="curve" smooth="yes"/>
      <point x="266.5" y="67.5996"/>
      <point x="273.9" y="68.0996"/>
      <point x="281.2" y="69" type="curve"/>
      <point x="269.3" y="82.5996"/>
      <point x="260.1" y="98.2998"/>
      <point x="254.4" y="115.3" type="curve" smooth="yes"/>
      <point x="246.9" y="137.6"/>
      <point x="245.4" y="161.2"/>
      <point x="250.1" y="183.7" type="curve" smooth="yes"/>
      <point x="258.7" y="225"/>
      <point x="286.7" y="256.3"/>
      <point x="325" y="267.6" type="curve" smooth="yes"/>
      <point x="352.5" y="275.7"/>
      <point x="379.9" y="275.3"/>
      <point x="404.3" y="266.6" type="curve" smooth="yes"/>
      <point x="428.1" y="258.1"/>
      <point x="448.2" y="241.7"/>
      <point x="460.8" y="220.4" type="curve" smooth="yes"/>
      <point x="474.1" y="197.9"/>
      <point x="478.8" y="170.9"/>
      <point x="473.9" y="144.1" type="curve" smooth="yes"/>
      <point x="470.7" y="126.1"/>
      <point x="463.2" y="108.4"/>
      <point x="451.9" y="91.9004" type="curve"/>
      <point x="476.1" y="96.0996"/>
      <point x="502.5" y="103.9"/>
    </contour>
    <contour>
      <point x="243.2" y="409.4" type="curve" smooth="yes"/>
      <point x="219.4" y="410.3"/>
      <point x="193.5" y="401.7"/>
      <point x="168.9" y="385.2" type="curve"/>
      <point x="175.7" y="373.9"/>
      <point x="183.9" y="364"/>
      <point x="193.5" y="355.9" type="curve" smooth="yes"/>
      <point x="213.4" y="339"/>
      <point x="237.2" y="331.8"/>
      <point x="260.4" y="335.6" type="curve" smooth="yes"/>
      <point x="275.9" y="338.1"/>
      <point x="290.8" y="352.5"/>
      <point x="289.4" y="374.9" type="curve" smooth="yes"/>
      <point x="288.6" y="387.1"/>
      <point x="281.6" y="407.9"/>
    </contour>
    <contour>
      <point x="380.1" y="117.8" type="curve" smooth="yes"/>
      <point x="402.5" y="140.2"/>
      <point x="409.7" y="165.4"/>
      <point x="398.9" y="183.8" type="curve" smooth="yes"/>
      <point x="392" y="195.4"/>
      <point x="379.4" y="201.6"/>
      <point x="364.2" y="201.6" type="curve" smooth="yes"/>
      <point x="358.2" y="201.6"/>
      <point x="351.9" y="200.6"/>
      <point x="345.3" y="198.7" type="curve" smooth="yes"/>
      <point x="328.1" y="193.6"/>
      <point x="322.4" y="178"/>
      <point x="320.6" y="169.2" type="curve" smooth="yes"/>
      <point x="317.1" y="152.2"/>
      <point x="321" y="127.7"/>
      <point x="342.6" y="109.7" type="curve" smooth="yes"/>
      <point x="347.3" y="105.8"/>
      <point x="352.6" y="102.4"/>
      <point x="358.5" y="99.5" type="curve"/>
      <point x="366.1" y="104.9"/>
      <point x="373.3" y="111"/>
    </contour>
  </outline>
</glyph>
<glyph name="parenleft" format="2">
  <advance width="164"/>
  <unicode hex="0028"/>
  <outline>
    <contour>
      <point x="78.2002" y="-12.2002" type="line"/>
      <point x="35.5996" y="97.5"/>
      <point x="14" y="213.4"/>
      <point x="14" y="332.1" type="curve" smooth="yes"/>
      <point x="14" y="446.4"/>
      <point x="34" y="558.2"/>
      <point x="73.5996" y="664.3" type="curve"/>
      <point x="141.1" y="639.2" type="line"/>
      <point x="104.6" y="541.1"/>
      <point x="86.0996" y="437.8"/>
      <point x="86.0996" y="332.1" type="curve" smooth="yes"/>
      <point x="86.0996" y="222.3"/>
      <point x="106" y="115.2"/>
      <point x="145.4" y="13.7998" type="curve"/>
    </contour>
  </outline>
</glyph>
<glyph name="parenright" format="2">
  <advance width="164"/>
  <unicode hex="0029"/>
  <outline>
    <contour>
      <point x="81.0996" y="-12.2002" type="curve"/>
      <point x="14" y="13.7998" type="line"/>
      <point x="53.2998" y="115.2"/>
      <point x="73.2998" y="222.3"/>
      <point x="73.2998" y="332.1" type="curve" smooth="yes"/>
      <point x="73.2998" y="437.8"/>
      <point x="54.7998" y="541.1"/>
      <point x="18.2998" y="639.2" type="curve"/>
      <point x="85.7998" y="664.3" type="line"/>
      <point x="125.3" y="558.1"/>
      <point x="145.4" y="446.3"/>
      <point x="145.4" y="332.1" type="curve" smooth="yes"/>
      <point x="145.3" y="213.4"/>
      <point x="123.7" y="97.5"/>
    </contour>
  </outline>
</glyph>
<glyph name="asterisk" format="2">
  <advance width="302"/>
  <unicode hex="002A"/>
  <outline>
    <contour>
      <point x="298" y="503.1" type="line"/>
      <point x="270.8" y="495.9"/>
      <point x="243" y="490.7"/>
      <point x="215" y="487.4" type="curve"/>
      <point x="245.9" y="444.6"/>
      <point x="261.6" y="415.2"/>
      <point x="271.2" y="395.3" type="curve"/>
      <point x="206.4" y="364" type="line"/>
      <point x="190.5" y="397"/>
      <point x="168.9" y="429.1"/>
      <point x="148.7" y="456.2" type="curve"/>
      <point x="115.7" y="411.8"/>
      <point x="100.2" y="383"/>
      <point x="91" y="364" type="curve"/>
      <point x="26.2002" y="395.3" type="line"/>
      <point x="42" y="428"/>
      <point x="62.2002" y="459.4"/>
      <point x="81.9004" y="486.7" type="curve"/>
      <point x="54.2998" y="489.6"/>
      <point x="26.9004" y="494.4"/>
      <point x="0" y="501.1" type="curve"/>
      <point x="17.4004" y="570.9" type="line"/>
      <point x="48.5996" y="563.2"/>
      <point x="80.5996" y="558.3"/>
      <point x="112.8" y="556.3" type="curve"/>
      <point x="112.8" y="652.7" type="line"/>
      <point x="184.8" y="652.7" type="line"/>
      <point x="184.8" y="556.8" type="line"/>
      <point x="216.8" y="559.2"/>
      <point x="248.6" y="564.5"/>
      <point x="279.7" y="572.7" type="curve"/>
    </contour>
  </outline>
</glyph>
<glyph name="plus" format="2">
  <advance width="550"/>
  <unicode hex="002B"/>
  <outline>
    <contour>
      <point x="310.2" y="342.9" type="line"/>
      <point x="522.5" y="342.9" type="line"/>
      <point x="522.5" y="270.9" type="line"/>
      <point x="310.2" y="270.9" type="line"/>
      <point x="310.2" y="58.7002" type="line"/>
      <point x="238.2" y="58.7002" type="line"/>
      <point x="238.2" y="270.9" type="line"/>
      <point x="26" y="270.9" type="line"/>
      <point x="26" y="342.9" type="line"/>
      <point x="238.2" y="342.9" type="line"/>
      <point x="238.2" y="555.2" type="line"/>
      <point x="310.2" y="555.2" type="line"/>
    </contour>
  </outline>
</glyph>
<glyph name="comma" format="2">
  <advance width="163"/>
  <unicode hex="002C"/>
  <outline>
    <contour>
      <point x="48.7998" y="-81.9004" type="curve"/>
      <point x="9" y="-21.9004" type="line"/>
      <point x="48.0996" y="4"/>
      <point x="76.4004" y="48.5996"/>
      <point x="76.4004" y="84.0996" type="curve"/>
      <point x="148.4" y="84.0996" type="line"/>
      <point x="148.4" y="53"/>
      <point x="138" y="20.2002"/>
      <point x="118.2" y="-10.9004" type="curve" smooth="yes"/>
      <point x="100.5" y="-38.7002"/>
      <point x="75.9004" y="-63.9004"/>
    </contour>
  </outline>
</glyph>
<glyph name="hyphen" format="2">
  <advance width="359"/>
  <unicode hex="002D"/>
  <outline>
    <contour>
      <point x="24" y="276.3" type="line"/>
      <point x="24" y="348.3" type="line"/>
      <point x="336.3" y="348.3" type="line"/>
      <point x="336.3" y="276.3" type="line"/>
    </contour>
  </outline>
</glyph>
<glyph name="period" format="2">
  <advance width="115"/>
  <unicode hex="002E"/>
  <outline>
    <contour>
      <point x="57.9375" y="-17.7412" type="line"/>
      <point x="6.94727" y="33.0908" type="line"/>
      <point x="57.7793" y="84.0811" type="line"/>
      <point x="108.77" y="33.249" type="line"/>
    </contour>
  </outline>
</glyph>
<glyph name="slash" format="2">
  <advance width="490"/>
  <unicode hex="002F"/>
  <outline>
    <contour>
      <point x="66.5" y="-23" type="curve"/>
      <point x="18" y="30.2998" type="line"/>
      <point x="85.7998" y="92"/>
      <point x="148.1" y="163.3"/>
      <point x="203.2" y="242.3" type="curve" smooth="yes"/>
      <point x="247.4" y="305.6"/>
      <point x="287" y="374"/>
      <point x="321.1" y="445.4" type="curve" smooth="yes"/>
      <point x="378.9" y="566.7"/>
      <point x="400.3" y="654.9"/>
      <point x="400.5" y="655.8" type="curve"/>
      <point x="470.5" y="639.1" type="line"/>
      <point x="469.6" y="635.2"/>
      <point x="447.1" y="542.6"/>
      <point x="386.1" y="414.5" type="curve" smooth="yes"/>
      <point x="350.4" y="339.5"/>
      <point x="308.7" y="267.7"/>
      <point x="262.3" y="201.1" type="curve" smooth="yes"/>
      <point x="204.1" y="117.7"/>
      <point x="138.2" y="42.2998"/>
    </contour>
  </outline>
</glyph>
<glyph name="zero" format="2">
  <advance width="689"/>
  <unicode hex="0030"/>
  <outline>
    <contour>
      <point x="344" y="-4.59961" type="curve" smooth="yes"/>
      <point x="299.5" y="-4.59961"/>
      <point x="256.2" y="4.09961"/>
      <point x="215.5" y="21.4004" type="curve" smooth="yes"/>
      <point x="176.3" y="37.9004"/>
      <point x="141" y="61.7002"/>
      <point x="110.7" y="92" type="curve" smooth="yes"/>
      <point x="80.4004" y="122.3"/>
      <point x="56.5996" y="157.6"/>
      <point x="40" y="196.9" type="curve" smooth="yes"/>
      <point x="22.7002" y="237.6"/>
      <point x="14" y="280.9"/>
      <point x="14" y="325.4" type="curve" smooth="yes"/>
      <point x="14" y="369.9"/>
      <point x="22.7002" y="413.2"/>
      <point x="40" y="453.9" type="curve" smooth="yes"/>
      <point x="56.5996" y="493.2"/>
      <point x="80.4004" y="528.5"/>
      <point x="110.7" y="558.8" type="curve" smooth="yes"/>
      <point x="141" y="589.1"/>
      <point x="176.3" y="612.9"/>
      <point x="215.6" y="629.5" type="curve" smooth="yes"/>
      <point x="256.3" y="646.7"/>
      <point x="299.5" y="655.5"/>
      <point x="344.1" y="655.5" type="curve"/>
      <point x="344.1" y="583.5" type="line"/>
      <point x="275.2" y="583.5"/>
      <point x="210.4" y="556.7"/>
      <point x="161.6" y="507.9" type="curve" smooth="yes"/>
      <point x="112.8" y="459.1"/>
      <point x="86" y="394.3"/>
      <point x="86" y="325.4" type="curve" smooth="yes"/>
      <point x="86" y="256.5"/>
      <point x="112.8" y="191.7"/>
      <point x="161.6" y="142.9" type="curve" smooth="yes"/>
      <point x="210.3" y="94.2002"/>
      <point x="275.1" y="67.2998"/>
      <point x="344.1" y="67.2998" type="curve" smooth="yes"/>
      <point x="413" y="67.2998"/>
      <point x="477.8" y="94.0996"/>
      <point x="526.6" y="142.9" type="curve" smooth="yes"/>
      <point x="575.3" y="191.6"/>
      <point x="602.2" y="256.4"/>
      <point x="602.2" y="325.4" type="curve" smooth="yes"/>
      <point x="602.2" y="374.6"/>
      <point x="585.9" y="416.9"/>
      <point x="555" y="447.8" type="curve" smooth="yes"/>
      <point x="526.5" y="476.3"/>
      <point x="488.5" y="492"/>
      <point x="447.9" y="492" type="curve" smooth="yes"/>
      <point x="368.2" y="492"/>
      <point x="303.3" y="427.2"/>
      <point x="303.3" y="347.4" type="curve"/>
      <point x="231.3" y="347.4" type="line"/>
      <point x="231.3" y="405.2"/>
      <point x="253.8" y="459.6"/>
      <point x="294.7" y="500.5" type="curve" smooth="yes"/>
      <point x="335.6" y="541.4"/>
      <point x="390" y="563.9"/>
      <point x="447.8" y="563.9" type="curve" smooth="yes"/>
      <point x="477.4" y="563.9"/>
      <point x="506.1" y="558.2"/>
      <point x="533.4" y="547" type="curve" smooth="yes"/>
      <point x="560.6" y="535.7"/>
      <point x="585" y="519.5"/>
      <point x="605.9" y="498.6" type="curve" smooth="yes"/>
      <point x="627.4" y="477.1"/>
      <point x="644.2" y="451.6"/>
      <point x="655.9" y="422.8" type="curve" smooth="yes"/>
      <point x="668.1" y="392.7"/>
      <point x="674.3" y="359.9"/>
      <point x="674.3" y="325.3" type="curve" smooth="yes"/>
      <point x="674.3" y="280.8"/>
      <point x="665.6" y="237.5"/>
      <point x="648.3" y="196.8" type="curve" smooth="yes"/>
      <point x="631.7" y="157.5"/>
      <point x="607.9" y="122.2"/>
      <point x="577.6" y="91.9004" type="curve" smooth="yes"/>
      <point x="547.3" y="61.5996"/>
      <point x="512" y="37.7998"/>
      <point x="472.7" y="21.2002" type="curve" smooth="yes"/>
      <point x="431.8" y="4.09961"/>
      <point x="388.6" y="-4.59961"/>
    </contour>
  </outline>
</glyph>
<glyph name="one" format="2">
  <advance width="378"/>
  <unicode hex="0031"/>
  <outline>
    <contour>
      <point x="230" y="-1" type="line"/>
      <point x="158.9" y="-1" type="line"/>
      <point x="158.9" y="321.8" type="line" smooth="yes"/>
      <point x="158.9" y="325"/>
      <point x="158.899" y="328.201"/>
      <point x="158.896" y="331.401" type="curve" smooth="yes"/>
      <point x="158.894" y="334.7"/>
      <point x="158.887" y="338"/>
      <point x="158.87" y="341.299" type="curve" smooth="yes"/>
      <point x="158.854" y="344.699"/>
      <point x="158.825" y="348.1"/>
      <point x="158.8" y="351.5" type="curve" smooth="yes"/>
      <point x="158.769" y="355.638"/>
      <point x="158.744" y="359.775"/>
      <point x="158.729" y="363.913" type="curve" smooth="yes"/>
      <point x="158.715" y="368.138"/>
      <point x="158.708" y="372.362"/>
      <point x="158.704" y="376.587" type="curve" smooth="yes"/>
      <point x="158.7" y="380.858"/>
      <point x="158.699" y="385.129"/>
      <point x="158.7" y="389.4" type="curve"/>
      <point x="158.424" y="389.295"/>
      <point x="158.149" y="389.186"/>
      <point x="157.875" y="389.074" type="curve" smooth="yes"/>
      <point x="157.592" y="388.959"/>
      <point x="157.309" y="388.841"/>
      <point x="157.025" y="388.726" type="curve" smooth="yes"/>
      <point x="156.751" y="388.614"/>
      <point x="156.477" y="388.506"/>
      <point x="156.2" y="388.4" type="curve" smooth="yes"/>
      <point x="148.833" y="385.591"/>
      <point x="140.949" y="384.388"/>
      <point x="133.473" y="381.884" type="curve" smooth="yes"/>
      <point x="125.996" y="379.38"/>
      <point x="118.85" y="376.002"/>
      <point x="111.591" y="372.925" type="curve" smooth="yes"/>
      <point x="96.5732" y="366.559"/>
      <point x="80.4824" y="363.181"/>
      <point x="64.3076" y="361.079" type="curve" smooth="yes"/>
      <point x="47.751" y="358.928"/>
      <point x="31.1777" y="356.716"/>
      <point x="14.9004" y="353" type="curve"/>
      <point x="15" y="425" type="line"/>
      <point x="32.8418" y="427.062"/>
      <point x="50.5518" y="430.267"/>
      <point x="67.9873" y="434.58" type="curve" smooth="yes"/>
      <point x="84.1299" y="438.574"/>
      <point x="100.038" y="443.519"/>
      <point x="115.608" y="449.358" type="curve" smooth="yes"/>
      <point x="130.964" y="455.117"/>
      <point x="145.992" y="461.746"/>
      <point x="160.6" y="469.2" type="curve" smooth="yes"/>
      <point x="160.798" y="473.041"/>
      <point x="161.03" y="476.881"/>
      <point x="161.295" y="480.718" type="curve" smooth="yes"/>
      <point x="161.558" y="484.52"/>
      <point x="161.851" y="488.318"/>
      <point x="162.171" y="492.115" type="curve" smooth="yes"/>
      <point x="162.486" y="495.846"/>
      <point x="162.826" y="499.574"/>
      <point x="163.2" y="503.3" type="curve" smooth="yes"/>
      <point x="165.075" y="521.989"/>
      <point x="167.815" y="540.623"/>
      <point x="172.288" y="558.866" type="curve" smooth="yes"/>
      <point x="175.844" y="573.368"/>
      <point x="180.467" y="587.669"/>
      <point x="187.085" y="601.055" type="curve" smooth="yes"/>
      <point x="192.484" y="611.976"/>
      <point x="199.298" y="622.273"/>
      <point x="207.9" y="630.9" type="curve" smooth="yes"/>
      <point x="213.094" y="636.108"/>
      <point x="218.92" y="640.694"/>
      <point x="225.26" y="644.423" type="curve" smooth="yes"/>
      <point x="231.45" y="648.063"/>
      <point x="238.132" y="650.873"/>
      <point x="245.076" y="652.706" type="curve" smooth="yes"/>
      <point x="252.122" y="654.565"/>
      <point x="259.414" y="655.43"/>
      <point x="266.7" y="655.5" type="curve" smooth="yes"/>
      <point x="273.684" y="655.567"/>
      <point x="280.676" y="654.934"/>
      <point x="287.524" y="653.57" type="curve" smooth="yes"/>
      <point x="293.811" y="652.32"/>
      <point x="299.979" y="650.429"/>
      <point x="305.806" y="647.759" type="curve" smooth="yes"/>
      <point x="311.354" y="645.217"/>
      <point x="316.581" y="641.97"/>
      <point x="321.3" y="638.1" type="curve" smooth="yes"/>
      <point x="326.19" y="634.089"/>
      <point x="330.537" y="629.409"/>
      <point x="334.13" y="624.204" type="curve" smooth="yes"/>
      <point x="337.755" y="618.953"/>
      <point x="340.603" y="613.175"/>
      <point x="342.632" y="607.126" type="curve" smooth="yes"/>
      <point x="344.736" y="600.855"/>
      <point x="345.97" y="594.301"/>
      <point x="346.4" y="587.7" type="curve" smooth="yes"/>
      <point x="347.436" y="571.838"/>
      <point x="343.815" y="555.921"/>
      <point x="337.771" y="541.219" type="curve" smooth="yes"/>
      <point x="330.523" y="523.586"/>
      <point x="319.979" y="507.438"/>
      <point x="307.908" y="492.682" type="curve" smooth="yes"/>
      <point x="293.682" y="475.291"/>
      <point x="277.109" y="459.898"/>
      <point x="259.3" y="446.2" type="curve" smooth="yes"/>
      <point x="256.289" y="443.885"/>
      <point x="253.245" y="441.613"/>
      <point x="250.172" y="439.381" type="curve" smooth="yes"/>
      <point x="247.055" y="437.116"/>
      <point x="243.908" y="434.893"/>
      <point x="240.728" y="432.719" type="curve" smooth="yes"/>
      <point x="237.52" y="430.527"/>
      <point x="234.277" y="428.386"/>
      <point x="231" y="426.3" type="curve" smooth="yes"/>
      <point x="230.83" y="417.908"/>
      <point x="230.728" y="409.515"/>
      <point x="230.678" y="401.121" type="curve" smooth="yes"/>
      <point x="230.629" y="392.785"/>
      <point x="230.624" y="384.448"/>
      <point x="230.622" y="376.112" type="curve" smooth="yes"/>
      <point x="230.62" y="368.008"/>
      <point x="230.641" y="359.903"/>
      <point x="230.7" y="351.8" type="curve" smooth="yes"/>
      <point x="230.726" y="348.372"/>
      <point x="230.753" y="344.945"/>
      <point x="230.771" y="341.518" type="curve" smooth="yes"/>
      <point x="230.787" y="338.184"/>
      <point x="230.793" y="334.85"/>
      <point x="230.796" y="331.516" type="curve" smooth="yes"/>
      <point x="230.799" y="328.244"/>
      <point x="230.8" y="324.972"/>
      <point x="230.8" y="321.7" type="curve" smooth="yes"/>
      <point x="230.8" y="-1" type="line"/>
    </contour>
    <contour>
      <point x="266.8" y="583.4" type="curve" smooth="yes"/>
      <point x="263.9" y="583.4"/>
      <point x="261.9" y="582.9"/>
      <point x="259" y="580" type="curve" smooth="yes"/>
      <point x="253.7" y="574.7"/>
      <point x="244.8" y="560.5"/>
      <point x="238.5" y="523.2" type="curve"/>
      <point x="247.2" y="531.7"/>
      <point x="255.3" y="541.1"/>
      <point x="262" y="551.3" type="curve" smooth="yes"/>
      <point x="272.7" y="567.5"/>
      <point x="274.7" y="578.3"/>
      <point x="274.7" y="582.5" type="curve" smooth="yes"/>
      <point x="273.1" y="583"/>
      <point x="270.6" y="583.4"/>
    </contour>
  </outline>
</glyph>
<glyph name="two" format="2">
  <advance width="638"/>
  <unicode hex="0032"/>
  <outline>
    <contour>
      <point x="151.8" y="-6.40039" type="curve" smooth="yes"/>
      <point x="55.0996" y="-6.40039"/>
      <point x="11" y="46.5996"/>
      <point x="11" y="95.9004" type="curve" smooth="yes"/>
      <point x="11" y="129.6"/>
      <point x="30.5996" y="161.4"/>
      <point x="64.9004" y="183.2" type="curve" smooth="yes"/>
      <point x="98.2002" y="204.4"/>
      <point x="144.2" y="215.6"/>
      <point x="198" y="215.6" type="curve" smooth="yes"/>
      <point x="244.7" y="215.6"/>
      <point x="296.6" y="207.2"/>
      <point x="352.5" y="190.7" type="curve" smooth="yes"/>
      <point x="365.5" y="186.8"/>
      <point x="378.7" y="182.6"/>
      <point x="392.2" y="177.8" type="curve"/>
      <point x="422.1" y="202.4"/>
      <point x="440.7" y="221.4"/>
      <point x="440.9" y="221.7" type="curve" smooth="yes"/>
      <point x="441.5" y="222.3" type="line" smooth="yes"/>
      <point x="482.1" y="262"/>
      <point x="504.4" y="315.1"/>
      <point x="504.4" y="371.9" type="curve" smooth="yes"/>
      <point x="504.4" y="427.8"/>
      <point x="482.6" y="480.3"/>
      <point x="443.1" y="519.9" type="curve" smooth="yes"/>
      <point x="403.6" y="559.4"/>
      <point x="351" y="581.2"/>
      <point x="295.1" y="581.2" type="curve" smooth="yes"/>
      <point x="239.2" y="581.2"/>
      <point x="186.7" y="559.4"/>
      <point x="147.1" y="519.9" type="curve" smooth="yes"/>
      <point x="107.6" y="480.4"/>
      <point x="85.7998" y="427.8"/>
      <point x="85.7998" y="371.9" type="curve"/>
      <point x="13.7998" y="371.9" type="line"/>
      <point x="13.7998" y="409.9"/>
      <point x="21.2002" y="446.7"/>
      <point x="35.9004" y="481.4" type="curve" smooth="yes"/>
      <point x="50.0996" y="514.9"/>
      <point x="70.2998" y="545"/>
      <point x="96.2002" y="570.8" type="curve" smooth="yes"/>
      <point x="122" y="596.6"/>
      <point x="152.1" y="616.9"/>
      <point x="185.6" y="631.1" type="curve" smooth="yes"/>
      <point x="220.3" y="645.8"/>
      <point x="257.1" y="653.2"/>
      <point x="295.1" y="653.2" type="curve" smooth="yes"/>
      <point x="333.1" y="653.2"/>
      <point x="369.9" y="645.8"/>
      <point x="404.6" y="631.1" type="curve" smooth="yes"/>
      <point x="438.1" y="616.9"/>
      <point x="468.2" y="596.7"/>
      <point x="494" y="570.8" type="curve" smooth="yes"/>
      <point x="519.8" y="545"/>
      <point x="540.1" y="514.9"/>
      <point x="554.3" y="481.4" type="curve" smooth="yes"/>
      <point x="569" y="446.7"/>
      <point x="576.4" y="409.9"/>
      <point x="576.4" y="371.9" type="curve" smooth="yes"/>
      <point x="576.4" y="333.4"/>
      <point x="568.8" y="296.1"/>
      <point x="553.7" y="261" type="curve" smooth="yes"/>
      <point x="539.2" y="227.2"/>
      <point x="518.5" y="197"/>
      <point x="492.2" y="171.2" type="curve" smooth="yes"/>
      <point x="490.3" y="169.2"/>
      <point x="481.5" y="160.4"/>
      <point x="467.5" y="147.7" type="curve"/>
      <point x="475.1" y="144.3"/>
      <point x="482.7" y="140.8"/>
      <point x="490.4" y="137.2" type="curve" smooth="yes"/>
      <point x="571.2" y="99"/>
      <point x="627.7" y="61.0996"/>
      <point x="630.1" y="59.5" type="curve"/>
      <point x="589.9" y="-0.200195" type="line"/>
      <point x="588.6" y="0.700195"/>
      <point x="507.7" y="54.5996"/>
      <point x="404.7" y="96.2002" type="curve"/>
      <point x="399.1" y="92.0996"/>
      <point x="393.3" y="87.9004"/>
      <point x="387.3" y="83.7002" type="curve" smooth="yes"/>
      <point x="350.7" y="58"/>
      <point x="314.5" y="37.5"/>
      <point x="279.7" y="22.7002" type="curve" smooth="yes"/>
      <point x="234.5" y="3.2998"/>
      <point x="191.6" y="-6.40039"/>
    </contour>
    <contour>
      <point x="198" y="143.6" type="curve" smooth="yes"/>
      <point x="158.6" y="143.6"/>
      <point x="125" y="136.1"/>
      <point x="103.6" y="122.4" type="curve" smooth="yes"/>
      <point x="90.7002" y="114.2"/>
      <point x="83" y="104.3"/>
      <point x="83" y="95.9004" type="curve" smooth="yes"/>
      <point x="83" y="83.2998"/>
      <point x="104.4" y="65.5996"/>
      <point x="151.8" y="65.5996" type="curve" smooth="yes"/>
      <point x="210.1" y="65.5996"/>
      <point x="271.8" y="95.0996"/>
      <point x="319.6" y="125.2" type="curve"/>
      <point x="279.1" y="136.4"/>
      <point x="237.6" y="143.6"/>
    </contour>
  </outline>
</glyph>
<glyph name="three" format="2">
  <advance width="514"/>
  <unicode hex="0033"/>
  <outline>
    <contour>
      <point x="443.4" y="395.1" type="curve"/>
      <point x="480.4" y="351.4"/>
      <point x="500.6" y="296.5"/>
      <point x="500.6" y="238.5" type="curve" smooth="yes"/>
      <point x="500.6" y="173.6"/>
      <point x="475.3" y="112.5"/>
      <point x="429.4" y="66.5996" type="curve" smooth="yes"/>
      <point x="383.5" y="20.7002"/>
      <point x="322.4" y="-4.59961"/>
      <point x="257.5" y="-4.59961" type="curve" smooth="yes"/>
      <point x="192.6" y="-4.59961"/>
      <point x="131.5" y="20.7002"/>
      <point x="85.5996" y="66.5996" type="curve" smooth="yes"/>
      <point x="44.2002" y="108"/>
      <point x="19.0996" y="163"/>
      <point x="15" y="221.3" type="curve"/>
      <point x="86.7998" y="226.3" type="line"/>
      <point x="89.7002" y="185.2"/>
      <point x="107.3" y="146.5"/>
      <point x="136.5" y="117.3" type="curve" smooth="yes"/>
      <point x="168.8" y="85"/>
      <point x="211.8" y="67.2002"/>
      <point x="257.5" y="67.2002" type="curve" smooth="yes"/>
      <point x="303.2" y="67.2002"/>
      <point x="346.2" y="85"/>
      <point x="378.5" y="117.3" type="curve" smooth="yes"/>
      <point x="410.8" y="149.6"/>
      <point x="428.6" y="192.6"/>
      <point x="428.6" y="238.3" type="curve" smooth="yes"/>
      <point x="428.6" y="270.6"/>
      <point x="419.7" y="301.6"/>
      <point x="403" y="328.4" type="curve"/>
      <point x="394.2" y="318.3"/>
      <point x="384.6" y="309"/>
      <point x="374.2" y="300.6" type="curve" smooth="yes"/>
      <point x="337.4" y="270.7"/>
      <point x="294.3" y="254.4"/>
      <point x="254.6" y="254.4" type="curve" smooth="yes"/>
      <point x="245.1" y="254.4"/>
      <point x="235.9" y="255.3"/>
      <point x="226.9" y="257.2" type="curve" smooth="yes"/>
      <point x="194.9" y="264"/>
      <point x="168.7" y="279"/>
      <point x="151.1" y="300.6" type="curve" smooth="yes"/>
      <point x="134" y="321.7"/>
      <point x="126.1" y="347.9"/>
      <point x="128.9" y="374.4" type="curve" smooth="yes"/>
      <point x="131.8" y="401.9"/>
      <point x="145.8" y="427"/>
      <point x="168.2" y="445.2" type="curve" smooth="yes"/>
      <point x="191.4" y="463.9"/>
      <point x="221.8" y="473.8"/>
      <point x="256.1" y="473.8" type="curve" smooth="yes"/>
      <point x="287.6" y="473.8"/>
      <point x="319.3" y="468.8"/>
      <point x="347.7" y="459.2" type="curve" smooth="yes"/>
      <point x="360.2" y="455"/>
      <point x="371.9" y="450"/>
      <point x="382.8" y="444.3" type="curve"/>
      <point x="384.1" y="451.7"/>
      <point x="384.8" y="459.1"/>
      <point x="384.8" y="466.6" type="curve"/>
      <point x="385" y="466.6" type="line"/>
      <point x="384.6" y="497.4"/>
      <point x="372.4" y="526.1"/>
      <point x="350.7" y="547.6" type="curve" smooth="yes"/>
      <point x="327.4" y="570.6"/>
      <point x="294.7" y="583.3"/>
      <point x="258.6" y="583.3" type="curve" smooth="yes"/>
      <point x="226.5" y="583.3"/>
      <point x="194.2" y="570.4"/>
      <point x="170" y="547.8" type="curve" smooth="yes"/>
      <point x="145.6" y="525.1"/>
      <point x="132.2" y="495.7"/>
      <point x="132.2" y="465" type="curve"/>
      <point x="60.2002" y="465" type="line"/>
      <point x="60.2002" y="491"/>
      <point x="65.9004" y="516.3"/>
      <point x="77" y="540.1" type="curve" smooth="yes"/>
      <point x="87.4004" y="562.7"/>
      <point x="102.2" y="582.9"/>
      <point x="120.9" y="600.4" type="curve" smooth="yes"/>
      <point x="139.2" y="617.5"/>
      <point x="160.4" y="631"/>
      <point x="183.7" y="640.5" type="curve" smooth="yes"/>
      <point x="207.8" y="650.3"/>
      <point x="233" y="655.3"/>
      <point x="258.6" y="655.3" type="curve" smooth="yes"/>
      <point x="313.8" y="655.3"/>
      <point x="364.5" y="635.3"/>
      <point x="401.3" y="598.8" type="curve" smooth="yes"/>
      <point x="437.2" y="563.3"/>
      <point x="457" y="515.8"/>
      <point x="457" y="465" type="curve"/>
      <point x="456.7" y="465" type="line"/>
      <point x="456.5" y="441.1"/>
      <point x="452.1" y="417.7"/>
    </contour>
    <contour>
      <point x="328.9" y="356.8" type="curve" smooth="yes"/>
      <point x="337.2" y="363.5"/>
      <point x="344.9" y="371.1"/>
      <point x="351.7" y="379.4" type="curve"/>
      <point x="325.7" y="393.8"/>
      <point x="292" y="402"/>
      <point x="256.1" y="402" type="curve" smooth="yes"/>
      <point x="220.3" y="402"/>
      <point x="202.4" y="384.5"/>
      <point x="200.6" y="367.1" type="curve" smooth="yes"/>
      <point x="198.6" y="348.7"/>
      <point x="214.4" y="333.7"/>
      <point x="241.8" y="327.9" type="curve" smooth="yes"/>
      <point x="267" y="322.6"/>
      <point x="300.4" y="333.7"/>
    </contour>
  </outline>
</glyph>
<glyph name="four" format="2">
  <advance width="632"/>
  <unicode hex="0034"/>
  <outline>
    <contour>
      <point x="516.3" y="344.7" type="line"/>
      <point x="581.6" y="302.9"/>
      <point x="618.8" y="263"/>
      <point x="620.4" y="261.3" type="curve"/>
      <point x="593.9" y="236.9" type="line"/>
      <point x="567.5" y="212.4" type="line" smooth="yes"/>
      <point x="567.2" y="212.7"/>
      <point x="549.1" y="232.1"/>
      <point x="516.3" y="257" type="curve"/>
      <point x="516.3" y="-1.40039" type="line"/>
      <point x="444.3" y="-1.40039" type="line"/>
      <point x="444.3" y="303.9" type="line"/>
      <point x="417.4" y="318.7"/>
      <point x="389.6" y="331.3"/>
      <point x="361.4" y="341.2" type="curve" smooth="yes"/>
      <point x="341.2" y="348.3"/>
      <point x="320.8" y="354.1"/>
      <point x="300.3" y="358.6" type="curve"/>
      <point x="283" y="298.8"/>
      <point x="259.7" y="254"/>
      <point x="230.6" y="224.5" type="curve" smooth="yes"/>
      <point x="202.5" y="196.1"/>
      <point x="169.5" y="181.7"/>
      <point x="132.4" y="181.7" type="curve" smooth="yes"/>
      <point x="93.4004" y="181.7"/>
      <point x="60" y="196.9"/>
      <point x="38.5" y="224.3" type="curve" smooth="yes"/>
      <point x="16.5996" y="252.1"/>
      <point x="8.7998" y="289.9"/>
      <point x="17.5" y="325.4" type="curve" smooth="yes"/>
      <point x="26.2998" y="361.3"/>
      <point x="52.5996" y="392.8"/>
      <point x="91.4004" y="413.9" type="curve" smooth="yes"/>
      <point x="128.4" y="434"/>
      <point x="173.6" y="443.5"/>
      <point x="222.1" y="441.3" type="curve" smooth="yes"/>
      <point x="229.9" y="440.9"/>
      <point x="237.7" y="440.4"/>
      <point x="245.5" y="439.7" type="curve"/>
      <point x="248.7" y="456.8"/>
      <point x="251.5" y="474.9"/>
      <point x="254" y="494" type="curve" smooth="yes"/>
      <point x="264.9" y="578.8"/>
      <point x="264" y="652.3"/>
      <point x="264" y="653" type="curve" smooth="yes"/>
      <point x="336" y="654" type="line" smooth="yes"/>
      <point x="336.1" y="650.8"/>
      <point x="337" y="574.7"/>
      <point x="325.4" y="484.8" type="curve" smooth="yes"/>
      <point x="322.9" y="465.2"/>
      <point x="320" y="446.5"/>
      <point x="316.7" y="428.7" type="curve"/>
      <point x="340.3" y="423.5"/>
      <point x="363.8" y="416.7"/>
      <point x="386.9" y="408.5" type="curve" smooth="yes"/>
      <point x="406.2" y="401.6"/>
      <point x="425.4" y="393.7"/>
      <point x="444.3" y="384.7" type="curve"/>
      <point x="444.3" y="653.5" type="line"/>
      <point x="516.3" y="653.5" type="line"/>
    </contour>
    <contour>
      <point x="227.4" y="366.3" type="curve" smooth="yes"/>
      <point x="227.6" y="367.1"/>
      <point x="227.9" y="367.9"/>
      <point x="228.2" y="368.9" type="curve"/>
      <point x="225" y="369.1"/>
      <point x="221.9" y="369.3"/>
      <point x="218.8" y="369.4" type="curve" smooth="yes"/>
      <point x="215.5" y="369.5"/>
      <point x="212.1" y="369.6"/>
      <point x="208.8" y="369.6" type="curve" smooth="yes"/>
      <point x="177.6" y="369.6"/>
      <point x="148.5" y="362.9"/>
      <point x="125.8" y="350.6" type="curve" smooth="yes"/>
      <point x="104.9" y="339.2"/>
      <point x="91.2998" y="324.2"/>
      <point x="87.4004" y="308.2" type="curve" smooth="yes"/>
      <point x="84.0996" y="294.4"/>
      <point x="87.0996" y="278.9"/>
      <point x="95.0996" y="268.7" type="curve" smooth="yes"/>
      <point x="102.9" y="258.8"/>
      <point x="115.5" y="253.7"/>
      <point x="132.4" y="253.7" type="curve" smooth="yes"/>
      <point x="150" y="253.7"/>
      <point x="164.9" y="260.5"/>
      <point x="179.3" y="275.1" type="curve" smooth="yes"/>
      <point x="197.9" y="294"/>
      <point x="214.1" y="324.7"/>
    </contour>
  </outline>
</glyph>
<glyph name="five" format="2">
  <advance width="580"/>
  <unicode hex="0035"/>
  <outline>
    <contour>
      <point x="497" y="389.3" type="curve"/>
      <point x="542" y="346.5"/>
      <point x="568.1" y="286.9"/>
      <point x="568" y="223.7" type="curve" smooth="yes"/>
      <point x="568" y="162.7"/>
      <point x="544.2" y="105.3"/>
      <point x="501.1" y="62.2002" type="curve" smooth="yes"/>
      <point x="458" y="19.0996"/>
      <point x="400.6" y="-4.7002"/>
      <point x="339.6" y="-4.7002" type="curve" smooth="yes"/>
      <point x="256.9" y="-4.7002"/>
      <point x="180.5" y="40.2002"/>
      <point x="140.1" y="112.5" type="curve"/>
      <point x="203" y="147.6" type="line"/>
      <point x="230.7" y="98.0996"/>
      <point x="283.1" y="67.2998"/>
      <point x="339.7" y="67.2998" type="curve" smooth="yes"/>
      <point x="425.9" y="67.2998"/>
      <point x="496.1" y="137.5"/>
      <point x="496.1" y="223.7" type="curve" smooth="yes"/>
      <point x="496.1" y="266.9"/>
      <point x="478.3" y="307.6"/>
      <point x="447.6" y="336.9" type="curve" smooth="yes"/>
      <point x="403.6" y="377.6"/>
      <point x="347" y="389.8"/>
      <point x="307.3" y="392.8" type="curve" smooth="yes"/>
      <point x="290.6" y="394.1"/>
      <point x="273.4" y="394"/>
      <point x="256.4" y="392.6" type="curve"/>
      <point x="248.9" y="358.6"/>
      <point x="242.1" y="329.8"/>
      <point x="237.4" y="314.7" type="curve" smooth="yes"/>
      <point x="210.5" y="228.6"/>
      <point x="158.4" y="198.5"/>
      <point x="113.8" y="198.5" type="curve" smooth="yes"/>
      <point x="108.9" y="198.5"/>
      <point x="104" y="198.9"/>
      <point x="99.2998" y="199.6" type="curve" smooth="yes"/>
      <point x="76.2002" y="203.1"/>
      <point x="54.7998" y="214.8"/>
      <point x="39.0996" y="232.5" type="curve" smooth="yes"/>
      <point x="23" y="250.7"/>
      <point x="14.0996" y="274"/>
      <point x="14" y="298.2" type="curve" smooth="yes"/>
      <point x="13.9004" y="327.4"/>
      <point x="26.0996" y="356"/>
      <point x="49.2002" y="380.9" type="curve" smooth="yes"/>
      <point x="68.5" y="401.7"/>
      <point x="95.9004" y="420.1"/>
      <point x="128.2" y="434.3" type="curve" smooth="yes"/>
      <point x="149.4" y="443.5"/>
      <point x="172.3" y="450.9"/>
      <point x="196.2" y="456.1" type="curve"/>
      <point x="209.4" y="519.5"/>
      <point x="223.2" y="589.9"/>
      <point x="230.1" y="626.1" type="curve" smooth="yes"/>
      <point x="235.7" y="655.4" type="line"/>
      <point x="505.2" y="655.4" type="line"/>
      <point x="505.2" y="583.4" type="line"/>
      <point x="295.2" y="583.4" type="line"/>
      <point x="289.7" y="555.4"/>
      <point x="281" y="510.9"/>
      <point x="271.7" y="465.5" type="curve"/>
      <point x="285.5" y="465.9"/>
      <point x="299.2" y="465.6"/>
      <point x="312.7" y="464.6" type="curve" smooth="yes"/>
      <point x="371.8" y="460.1"/>
      <point x="424.5" y="442.4"/>
      <point x="467.3" y="413" type="curve"/>
      <point x="467.4" y="413.1" type="line"/>
      <point x="477.9" y="406"/>
      <point x="487.7" y="398.1"/>
      <point x="496.7" y="389.6" type="curve" smooth="yes"/>
      <point x="496.8" y="389.5"/>
      <point x="496.9" y="389.4"/>
    </contour>
    <contour>
      <point x="168.7" y="336.1" type="curve" smooth="yes"/>
      <point x="171.3" y="344.6"/>
      <point x="174.9" y="358.9"/>
      <point x="179" y="376.7" type="curve"/>
      <point x="171.5" y="374.2"/>
      <point x="164.2" y="371.4"/>
      <point x="157.2" y="368.3" type="curve" smooth="yes"/>
      <point x="133.8" y="358.1"/>
      <point x="114.7" y="345.4"/>
      <point x="102" y="331.8" type="curve" smooth="yes"/>
      <point x="91.2998" y="320.3"/>
      <point x="86" y="309.1"/>
      <point x="86" y="298.4" type="curve" smooth="yes"/>
      <point x="86.0996" y="284.7"/>
      <point x="96.4004" y="272.7"/>
      <point x="110" y="270.7" type="curve" smooth="yes"/>
      <point x="118.5" y="269.5"/>
      <point x="127.1" y="272.3"/>
      <point x="135.6" y="279.1" type="curve" smooth="yes"/>
      <point x="144.9" y="286.6"/>
      <point x="158.3" y="302.7"/>
    </contour>
  </outline>
</glyph>
<glyph name="six" format="2">
  <advance width="545"/>
  <unicode hex="0036"/>
  <outline>
    <contour>
      <point x="324.7" y="-4.59961" type="curve" smooth="yes"/>
      <point x="289.8" y="-4.59961"/>
      <point x="257.3" y="2.09961"/>
      <point x="228.1" y="15.2998" type="curve" smooth="yes"/>
      <point x="199.7" y="28.0996"/>
      <point x="174.9" y="46.7998"/>
      <point x="154.6" y="70.9004" type="curve" smooth="yes"/>
      <point x="135" y="93.9004"/>
      <point x="120" y="121.4"/>
      <point x="109.8" y="152.4" type="curve" smooth="yes"/>
      <point x="107.2" y="160.2"/>
      <point x="105" y="168.2"/>
      <point x="103.1" y="176.3" type="curve"/>
      <point x="94.7998" y="153.6"/>
      <point x="88" y="129"/>
      <point x="82.5" y="102.6" type="curve"/>
      <point x="12" y="117.1" type="line"/>
      <point x="28.5996" y="197.9"/>
      <point x="57.7002" y="264.5"/>
      <point x="98.5996" y="315.4" type="curve"/>
      <point x="106.8" y="386.6"/>
      <point x="128.4" y="453.1"/>
      <point x="161.3" y="507.1" type="curve" smooth="yes"/>
      <point x="213.3" y="592.4"/>
      <point x="291" y="643.6"/>
      <point x="386" y="655.1" type="curve"/>
      <point x="394.7" y="583.6" type="line"/>
      <point x="356.9" y="579"/>
      <point x="322.7" y="566.3"/>
      <point x="293.2" y="545.9" type="curve" smooth="yes"/>
      <point x="265.9" y="527"/>
      <point x="242.2" y="501.3"/>
      <point x="222.8" y="469.6" type="curve" smooth="yes"/>
      <point x="208.4" y="446"/>
      <point x="196.6" y="419.5"/>
      <point x="187.6" y="390.9" type="curve"/>
      <point x="217.5" y="407.1"/>
      <point x="249.9" y="417.2"/>
      <point x="283.6" y="420.6" type="curve" smooth="yes"/>
      <point x="384.4" y="430.8"/>
      <point x="480.1" y="378.8"/>
      <point x="516.2" y="294.2" type="curve" smooth="yes"/>
      <point x="530.4" y="261"/>
      <point x="535.5" y="224.2"/>
      <point x="531.1" y="187.6" type="curve" smooth="yes"/>
      <point x="527" y="153.3"/>
      <point x="514.6" y="119.6"/>
      <point x="495.2" y="90.2998" type="curve" smooth="yes"/>
      <point x="476.6" y="62.0996"/>
      <point x="451.9" y="38.5996"/>
      <point x="423.8" y="22.2002" type="curve" smooth="yes"/>
      <point x="393.8" y="4.7002"/>
      <point x="359.4" y="-4.59961"/>
    </contour>
    <contour>
      <point x="168.2" y="285.7" type="curve" smooth="yes"/>
      <point x="167.4" y="274"/>
      <point x="167" y="262.1"/>
      <point x="167" y="250.1" type="curve" smooth="yes"/>
      <point x="167" y="196.8"/>
      <point x="182.1" y="149.6"/>
      <point x="209.6" y="117.3" type="curve" smooth="yes"/>
      <point x="237.3" y="84.5996"/>
      <point x="277.2" y="67.2998"/>
      <point x="324.8" y="67.2998" type="curve" smooth="yes"/>
      <point x="347.1" y="67.2998"/>
      <point x="368.3" y="73.0996"/>
      <point x="387.8" y="84.5" type="curve" smooth="yes"/>
      <point x="406.4" y="95.2998"/>
      <point x="422.8" y="111.1"/>
      <point x="435.4" y="130.1" type="curve" smooth="yes"/>
      <point x="448.6" y="150.1"/>
      <point x="457.1" y="173"/>
      <point x="459.8" y="196.2" type="curve" smooth="yes"/>
      <point x="462.7" y="220.3"/>
      <point x="459.3" y="244.4"/>
      <point x="450.1" y="266" type="curve" smooth="yes"/>
      <point x="438.9" y="292.3"/>
      <point x="417.2" y="315.1"/>
      <point x="389" y="330.1" type="curve" smooth="yes"/>
      <point x="359.9" y="345.7"/>
      <point x="325" y="352.4"/>
      <point x="290.9" y="348.9" type="curve" smooth="yes"/>
      <point x="246.4" y="344.4"/>
      <point x="204.9" y="323.5"/>
      <point x="170.7" y="288.3" type="curve" smooth="yes"/>
      <point x="169.9" y="287.5"/>
      <point x="169" y="286.6"/>
    </contour>
  </outline>
</glyph>
<glyph name="seven" format="2">
  <advance width="588"/>
  <unicode hex="0037"/>
  <outline>
    <contour>
      <point x="556.6" y="620.3" type="curve" smooth="yes"/>
      <point x="580.5" y="593"/>
      <point x="585.2" y="551.3"/>
      <point x="568.4" y="514.3" type="curve" smooth="yes"/>
      <point x="557.3" y="489.6"/>
      <point x="537.8" y="468.9"/>
      <point x="512.3" y="454.4" type="curve" smooth="yes"/>
      <point x="484.7" y="438.8"/>
      <point x="451.3" y="430.8"/>
      <point x="412.9" y="430.8" type="curve" smooth="yes"/>
      <point x="396.7" y="430.8"/>
      <point x="381.1" y="431.4"/>
      <point x="366" y="432.7" type="curve"/>
      <point x="345.5" y="387.2"/>
      <point x="325.7" y="331.9"/>
      <point x="306.8" y="267.8" type="curve" smooth="yes"/>
      <point x="273.5" y="155.1"/>
      <point x="252.1" y="44.7002"/>
      <point x="244" y="-0.5" type="curve"/>
      <point x="170.9" y="-0.5" type="line"/>
      <point x="176.9" y="34.7998"/>
      <point x="199.3" y="157.9"/>
      <point x="237.5" y="287.5" type="curve" smooth="yes"/>
      <point x="255" y="347.1"/>
      <point x="273.5" y="399.8"/>
      <point x="292.7" y="444.9" type="curve"/>
      <point x="269" y="450.9"/>
      <point x="245.7" y="459.1"/>
      <point x="222.1" y="469.4" type="curve" smooth="yes"/>
      <point x="161.3" y="496"/>
      <point x="95.9004" y="538.3"/>
      <point x="10" y="606.5" type="curve"/>
      <point x="54.9004" y="663" type="line"/>
      <point x="135.7" y="598.8"/>
      <point x="196.2" y="559.4"/>
      <point x="251.1" y="535.4" type="curve" smooth="yes"/>
      <point x="275.6" y="524.6"/>
      <point x="299.6" y="516.7"/>
      <point x="324.6" y="511.4" type="curve"/>
      <point x="364.8" y="585.8"/>
      <point x="407.5" y="629"/>
      <point x="455" y="643.4" type="curve" smooth="yes"/>
      <point x="475" y="649.5"/>
      <point x="494.1" y="650.6"/>
      <point x="511.6" y="646.7" type="curve" smooth="yes"/>
      <point x="529.4" y="642.7"/>
      <point x="544.9" y="633.6"/>
    </contour>
    <contour>
      <point x="502.7" y="543.8" type="curve" smooth="yes"/>
      <point x="508.6" y="556.8"/>
      <point x="506.7" y="567.9"/>
      <point x="502.4" y="572.8" type="curve" smooth="yes"/>
      <point x="496.3" y="579.8"/>
      <point x="481.8" y="576.3"/>
      <point x="475.8" y="574.5" type="curve" smooth="yes"/>
      <point x="459" y="569.4"/>
      <point x="433.6" y="552.4"/>
      <point x="402.6" y="502.7" type="curve"/>
      <point x="406" y="502.6"/>
      <point x="409.4" y="502.6"/>
      <point x="412.8" y="502.6" type="curve" smooth="yes"/>
      <point x="457.4" y="502.6"/>
      <point x="491" y="518"/>
    </contour>
  </outline>
</glyph>
<glyph name="eight" format="2">
  <advance width="510"/>
  <unicode hex="0038"/>
  <outline>
    <contour>
      <point x="448.1" y="394.2" type="curve"/>
      <point x="481.4" y="351.4"/>
      <point x="499.5" y="299.1"/>
      <point x="499.4" y="244.1" type="curve" smooth="yes"/>
      <point x="499.4" y="178.7"/>
      <point x="473.9" y="117.2"/>
      <point x="427.7" y="71" type="curve" smooth="yes"/>
      <point x="381.5" y="24.7998"/>
      <point x="320" y="-0.700195"/>
      <point x="254.7" y="-0.700195" type="curve" smooth="yes"/>
      <point x="189.4" y="-0.700195"/>
      <point x="127.9" y="24.7998"/>
      <point x="81.7002" y="71" type="curve" smooth="yes"/>
      <point x="35.5" y="117.2"/>
      <point x="10" y="178.7"/>
      <point x="10" y="244.1" type="curve" smooth="yes"/>
      <point x="10" y="299.1"/>
      <point x="28.0996" y="351.4"/>
      <point x="61.4004" y="394.3" type="curve"/>
      <point x="55" y="414.1"/>
      <point x="51.7002" y="435.1"/>
      <point x="51.7002" y="456.5" type="curve" smooth="yes"/>
      <point x="51.7002" y="510.7"/>
      <point x="72.9004" y="561.7"/>
      <point x="111.2" y="600" type="curve" smooth="yes"/>
      <point x="149.5" y="638.3"/>
      <point x="200.6" y="659.4"/>
      <point x="254.8" y="659.4" type="curve" smooth="yes"/>
      <point x="309" y="659.4"/>
      <point x="360" y="638.2"/>
      <point x="398.3" y="599.9" type="curve" smooth="yes"/>
      <point x="436.7" y="561.6"/>
      <point x="457.8" y="510.6"/>
      <point x="457.8" y="456.4" type="curve" smooth="yes"/>
      <point x="457.8" y="435"/>
      <point x="454.5" y="414"/>
    </contour>
    <contour>
      <point x="254.7" y="587.4" type="curve" smooth="yes"/>
      <point x="182.5" y="587.4"/>
      <point x="123.7" y="528.7"/>
      <point x="123.7" y="456.4" type="curve" smooth="yes"/>
      <point x="123.7" y="454.5"/>
      <point x="123.7" y="452.7"/>
      <point x="123.8" y="450.9" type="curve"/>
      <point x="162.6" y="475.5"/>
      <point x="207.6" y="488.7"/>
      <point x="254.7" y="488.7" type="curve" smooth="yes"/>
      <point x="301.8" y="488.7"/>
      <point x="346.8" y="475.5"/>
      <point x="385.6" y="450.9" type="curve"/>
      <point x="385.7" y="452.8"/>
      <point x="385.7" y="454.6"/>
      <point x="385.7" y="456.4" type="curve" smooth="yes"/>
      <point x="385.7" y="528.6"/>
      <point x="326.9" y="587.4"/>
    </contour>
    <contour>
      <point x="361.2" y="380.1" type="curve"/>
      <point x="330.9" y="403.9"/>
      <point x="293.8" y="416.8"/>
      <point x="254.8" y="416.8" type="curve" smooth="yes"/>
      <point x="215.8" y="416.8"/>
      <point x="178.7" y="403.9"/>
      <point x="148.4" y="380.1" type="curve"/>
      <point x="172.2" y="347"/>
      <point x="211" y="325.4"/>
      <point x="254.8" y="325.4" type="curve" smooth="yes"/>
      <point x="298.6" y="325.4"/>
      <point x="337.4" y="347"/>
    </contour>
    <contour>
      <point x="376.9" y="121.9" type="curve" smooth="yes"/>
      <point x="409.5" y="154.6"/>
      <point x="427.5" y="197.9"/>
      <point x="427.4" y="244.1" type="curve" smooth="yes"/>
      <point x="427.4" y="272.2"/>
      <point x="420.7" y="299.2"/>
      <point x="408.1" y="323.5" type="curve"/>
      <point x="404.9" y="319.9"/>
      <point x="401.6" y="316.3"/>
      <point x="398.2" y="312.9" type="curve" smooth="yes"/>
      <point x="359.9" y="274.5"/>
      <point x="308.9" y="253.4"/>
      <point x="254.7" y="253.4" type="curve" smooth="yes"/>
      <point x="200.5" y="253.4"/>
      <point x="149.5" y="274.6"/>
      <point x="111.2" y="312.9" type="curve" smooth="yes"/>
      <point x="107.8" y="316.3"/>
      <point x="104.5" y="319.9"/>
      <point x="101.3" y="323.5" type="curve"/>
      <point x="88.7002" y="299.3"/>
      <point x="82" y="272.2"/>
      <point x="82" y="244.1" type="curve" smooth="yes"/>
      <point x="82" y="197.9"/>
      <point x="100" y="154.6"/>
      <point x="132.7" y="121.9" type="curve" smooth="yes"/>
      <point x="165.3" y="89.2998"/>
      <point x="208.7" y="71.2998"/>
      <point x="254.8" y="71.2998" type="curve" smooth="yes"/>
      <point x="300.9" y="71.2998"/>
      <point x="344.3" y="89.2998"/>
    </contour>
  </outline>
</glyph>
<glyph name="nine" format="2">
  <advance width="540"/>
  <unicode hex="0039"/>
  <outline>
    <contour>
      <point x="156.7" y="-4.40039" type="curve"/>
      <point x="148" y="67.0996" type="line"/>
      <point x="185.8" y="71.7002"/>
      <point x="220" y="84.4004"/>
      <point x="249.5" y="104.8" type="curve" smooth="yes"/>
      <point x="276.8" y="123.7"/>
      <point x="300.5" y="149.4"/>
      <point x="319.9" y="181.1" type="curve" smooth="yes"/>
      <point x="334.3" y="204.7"/>
      <point x="346.1" y="231.2"/>
      <point x="355.1" y="259.8" type="curve"/>
      <point x="325.2" y="243.6"/>
      <point x="292.8" y="233.5"/>
      <point x="259.1" y="230.1" type="curve" smooth="yes"/>
      <point x="250.7" y="229.3"/>
      <point x="242.3" y="228.8"/>
      <point x="234" y="228.8" type="curve" smooth="yes"/>
      <point x="142.7" y="228.8"/>
      <point x="59.5996" y="278.9"/>
      <point x="26.5" y="356.4" type="curve" smooth="yes"/>
      <point x="12.2998" y="389.6"/>
      <point x="7.2002" y="426.4"/>
      <point x="11.5" y="463" type="curve" smooth="yes"/>
      <point x="15.5996" y="497.3"/>
      <point x="28" y="531"/>
      <point x="47.4004" y="560.3" type="curve" smooth="yes"/>
      <point x="66" y="588.5"/>
      <point x="90.7002" y="612"/>
      <point x="118.8" y="628.4" type="curve" smooth="yes"/>
      <point x="149.1" y="646"/>
      <point x="183.4" y="655.4"/>
      <point x="218.1" y="655.4" type="curve" smooth="yes"/>
      <point x="253" y="655.4"/>
      <point x="285.5" y="648.7"/>
      <point x="314.7" y="635.5" type="curve" smooth="yes"/>
      <point x="343.1" y="622.7"/>
      <point x="367.9" y="604"/>
      <point x="388.2" y="579.9" type="curve" smooth="yes"/>
      <point x="407.8" y="556.9"/>
      <point x="422.8" y="529.4"/>
      <point x="433" y="498.4" type="curve" smooth="yes"/>
      <point x="435.6" y="490.6"/>
      <point x="437.8" y="482.6"/>
      <point x="439.7" y="474.5" type="curve"/>
      <point x="448" y="497.1"/>
      <point x="454.9" y="521.6"/>
      <point x="460.3" y="548" type="curve"/>
      <point x="530.8" y="533.5" type="line"/>
      <point x="514.2" y="452.7"/>
      <point x="485.1" y="386.1"/>
      <point x="444.2" y="335.2" type="curve"/>
      <point x="436" y="264"/>
      <point x="414.4" y="197.5"/>
      <point x="381.5" y="143.5" type="curve" smooth="yes"/>
      <point x="329.4" y="58.2998"/>
      <point x="251.7" y="7.2002"/>
    </contour>
    <contour>
      <point x="218" y="583.4" type="curve" smooth="yes"/>
      <point x="195.7" y="583.4"/>
      <point x="174.5" y="577.6"/>
      <point x="155" y="566.2" type="curve" smooth="yes"/>
      <point x="136.4" y="555.4"/>
      <point x="120" y="539.6"/>
      <point x="107.4" y="520.6" type="curve" smooth="yes"/>
      <point x="94.2002" y="500.6"/>
      <point x="85.7002" y="477.7"/>
      <point x="83" y="454.5" type="curve" smooth="yes"/>
      <point x="80.0996" y="430.4"/>
      <point x="83.5" y="406.3"/>
      <point x="92.7002" y="384.7" type="curve" smooth="yes"/>
      <point x="103.9" y="358.4"/>
      <point x="125.6" y="335.6"/>
      <point x="153.8" y="320.6" type="curve" smooth="yes"/>
      <point x="182.9" y="305"/>
      <point x="217.8" y="298.3"/>
      <point x="251.9" y="301.8" type="curve" smooth="yes"/>
      <point x="296.4" y="306.3"/>
      <point x="337.9" y="327.2"/>
      <point x="372.1" y="362.4" type="curve" smooth="yes"/>
      <point x="373" y="363.3"/>
      <point x="373.8" y="364.2"/>
      <point x="374.7" y="365.1" type="curve" smooth="yes"/>
      <point x="375.5" y="376.8"/>
      <point x="375.9" y="388.7"/>
      <point x="375.9" y="400.7" type="curve" smooth="yes"/>
      <point x="375.9" y="454"/>
      <point x="360.8" y="501.2"/>
      <point x="333.3" y="533.5" type="curve" smooth="yes"/>
      <point x="305.5" y="566.1"/>
      <point x="265.7" y="583.4"/>
    </contour>
  </outline>
</glyph>
<glyph name="colon" format="2">
  <advance width="126"/>
  <unicode hex="003A"/>
  <outline>
    <contour>
      <point x="62.9697" y="289.387" type="line"/>
      <point x="11.9795" y="340.219" type="line"/>
      <point x="62.8115" y="391.21" type="line"/>
      <point x="113.802" y="340.378" type="line"/>
    </contour>
    <contour>
      <point x="62.9404" y="-17.6865" type="line"/>
      <point x="11.9502" y="33.1455" type="line"/>
      <point x="62.7822" y="84.1357" type="line"/>
      <point x="113.772" y="33.3037" type="line"/>
    </contour>
  </outline>
</glyph>
<glyph name="semicolon" format="2">
  <advance width="177"/>
  <unicode hex="003B"/>
  <outline>
    <contour>
      <point x="46.7998" y="-81.9004" type="curve"/>
      <point x="7" y="-21.9004" type="line"/>
      <point x="46.0996" y="4"/>
      <point x="74.4004" y="48.5996"/>
      <point x="74.4004" y="84.0996" type="curve"/>
      <point x="146.4" y="84.0996" type="line"/>
      <point x="146.4" y="53"/>
      <point x="136" y="20.2002"/>
      <point x="116.2" y="-10.9004" type="curve" smooth="yes"/>
      <point x="98.5" y="-38.7002"/>
      <point x="73.9004" y="-63.9004"/>
    </contour>
    <contour>
      <point x="110.88" y="289.382" type="line"/>
      <point x="59.8896" y="340.214" type="line"/>
      <point x="110.722" y="391.205" type="line"/>
      <point x="161.712" y="340.373" type="line"/>
    </contour>
  </outline>
</glyph>
<glyph name="question" format="2">
  <advance width="460"/>
  <unicode hex="003F"/>
  <outline>
    <contour>
      <point x="231.236" y="-17.7354" type="line"/>
      <point x="180.246" y="33.0967" type="line"/>
      <point x="231.078" y="84.0869" type="line"/>
      <point x="282.068" y="33.2549" type="line"/>
    </contour>
    <contour>
      <point x="446.4" y="438.9" type="curve" smooth="yes"/>
      <point x="446.4" y="397.7"/>
      <point x="434.7" y="357.7"/>
      <point x="412.7" y="323.1" type="curve"/>
      <point x="382.4" y="342.5" type="line"/>
      <point x="412.6" y="323" type="line"/>
      <point x="382.6" y="276.6"/>
      <point x="349.1" y="252.4"/>
      <point x="322.2" y="232.9" type="curve" smooth="yes"/>
      <point x="285.4" y="206.3"/>
      <point x="266.9" y="192.9"/>
      <point x="266.9" y="134.6" type="curve"/>
      <point x="194.9" y="134.6" type="line"/>
      <point x="194.9" y="177.3"/>
      <point x="203.3" y="209.8"/>
      <point x="221.4" y="236.6" type="curve" smooth="yes"/>
      <point x="237.6" y="260.6"/>
      <point x="259.1" y="276.2"/>
      <point x="279.9" y="291.2" type="curve" smooth="yes"/>
      <point x="304.2" y="308.8"/>
      <point x="329.3" y="327"/>
      <point x="352" y="362" type="curve" smooth="yes"/>
      <point x="366.7" y="384.9"/>
      <point x="374.4" y="411.5"/>
      <point x="374.4" y="438.9" type="curve" smooth="yes"/>
      <point x="374.4" y="517.9"/>
      <point x="310.2" y="582.1"/>
      <point x="231.2" y="582.1" type="curve" smooth="yes"/>
      <point x="152.2" y="582.1"/>
      <point x="88" y="517.9"/>
      <point x="88" y="438.9" type="curve"/>
      <point x="16" y="438.9" type="line"/>
      <point x="16" y="496.4"/>
      <point x="38.4004" y="550.4"/>
      <point x="79" y="591.1" type="curve" smooth="yes"/>
      <point x="119.7" y="631.7"/>
      <point x="173.7" y="654.1"/>
      <point x="231.2" y="654.1" type="curve" smooth="yes"/>
      <point x="288.7" y="654.1"/>
      <point x="342.8" y="631.7"/>
      <point x="383.4" y="591.1" type="curve" smooth="yes"/>
      <point x="424" y="550.4"/>
      <point x="446.4" y="496.4"/>
    </contour>
  </outline>
</glyph>
<glyph name="at" format="2">
  <advance width="700"/>
  <unicode hex="0040"/>
  <outline>
    <contour>
      <point x="684.158" y="360.9" type="line"/>
      <point x="685.458" y="349"/>
      <point x="686.158" y="336.9"/>
      <point x="686.258" y="324.9" type="curve" smooth="yes"/>
      <point x="686.258" y="280.7"/>
      <point x="677.559" y="237.7"/>
      <point x="660.458" y="197.3" type="curve" smooth="yes"/>
      <point x="643.958" y="158.2"/>
      <point x="620.358" y="123.2"/>
      <point x="590.258" y="93.0996" type="curve" smooth="yes"/>
      <point x="560.158" y="63"/>
      <point x="525.059" y="39.4004"/>
      <point x="486.059" y="22.9004" type="curve" smooth="yes"/>
      <point x="445.658" y="5.7998"/>
      <point x="402.658" y="-2.90039"/>
      <point x="358.458" y="-2.90039" type="curve" smooth="yes"/>
      <point x="314.258" y="-2.90039"/>
      <point x="271.258" y="5.7998"/>
      <point x="230.858" y="22.9004" type="curve" smooth="yes"/>
      <point x="191.758" y="39.4004"/>
      <point x="156.758" y="63"/>
      <point x="126.658" y="93.0996" type="curve" smooth="yes"/>
      <point x="96.5586" y="123.2"/>
      <point x="72.958" y="158.3"/>
      <point x="56.458" y="197.3" type="curve" smooth="yes"/>
      <point x="39.3584" y="237.7"/>
      <point x="30.6582" y="280.7"/>
      <point x="30.6582" y="324.9" type="curve" smooth="yes"/>
      <point x="30.6582" y="369.1"/>
      <point x="39.3584" y="412"/>
      <point x="56.5586" y="452.3" type="curve" smooth="yes"/>
      <point x="73.0586" y="491.4"/>
      <point x="96.6582" y="526.4"/>
      <point x="126.758" y="556.5" type="curve" smooth="yes"/>
      <point x="156.858" y="586.6"/>
      <point x="191.958" y="610.2"/>
      <point x="230.958" y="626.7" type="curve" smooth="yes"/>
      <point x="271.358" y="643.8"/>
      <point x="314.358" y="652.5"/>
      <point x="358.559" y="652.5" type="curve" smooth="yes"/>
      <point x="391.758" y="652.5"/>
      <point x="424.059" y="647.6"/>
      <point x="455.258" y="638" type="curve"/>
      <point x="455.658" y="637.8"/>
      <point x="456.059" y="637.7"/>
      <point x="456.458" y="637.6" type="curve" smooth="yes"/>
      <point x="457.158" y="637.4"/>
      <point x="457.958" y="637.1"/>
      <point x="458.658" y="636.9" type="curve" smooth="yes"/>
      <point x="463.559" y="635.4"/>
      <point x="468.258" y="633.8"/>
      <point x="472.858" y="632" type="curve" smooth="yes"/>
      <point x="478.658" y="629.8"/>
      <point x="484.458" y="627.5"/>
      <point x="490.158" y="625" type="curve"/>
      <point x="489.958" y="624.6" type="line"/>
      <point x="526.758" y="606.8"/>
      <point x="555.158" y="579.8"/>
      <point x="573.258" y="545.3" type="curve" smooth="yes"/>
      <point x="593.458" y="506.6"/>
      <point x="600.358" y="459.3"/>
      <point x="592.958" y="408.6" type="curve" smooth="yes"/>
      <point x="585.559" y="358"/>
      <point x="564.258" y="306.6"/>
      <point x="533.458" y="264.1" type="curve" smooth="yes"/>
      <point x="533.458" y="264"/>
      <point x="533.458" y="264"/>
      <point x="533.458" y="263.9" type="curve" smooth="yes"/>
      <point x="538.358" y="210.6"/>
      <point x="534.258" y="167.3"/>
      <point x="534.059" y="165.5" type="curve" smooth="yes"/>
      <point x="462.358" y="172.5" type="line" smooth="yes"/>
      <point x="462.358" y="172.6"/>
      <point x="463.158" y="181.4"/>
      <point x="463.559" y="195.5" type="curve"/>
      <point x="430.559" y="173.5"/>
      <point x="394.758" y="161.8"/>
      <point x="358.758" y="161.8" type="curve" smooth="yes"/>
      <point x="295.258" y="161.8"/>
      <point x="256.559" y="189.3"/>
      <point x="235.258" y="212.3" type="curve" smooth="yes"/>
      <point x="208.258" y="241.5"/>
      <point x="193.358" y="280.6"/>
      <point x="193.358" y="322.3" type="curve" smooth="yes"/>
      <point x="193.358" y="363.9"/>
      <point x="208.158" y="402.9"/>
      <point x="235.158" y="432.1" type="curve" smooth="yes"/>
      <point x="256.358" y="455.1"/>
      <point x="294.958" y="482.5"/>
      <point x="358.358" y="482.5" type="curve" smooth="yes"/>
      <point x="381.958" y="482.5"/>
      <point x="403.858" y="478"/>
      <point x="423.458" y="469.1" type="curve" smooth="yes"/>
      <point x="441.758" y="460.8"/>
      <point x="458.059" y="448.8"/>
      <point x="472.158" y="433.3" type="curve" smooth="yes"/>
      <point x="487.358" y="416.6"/>
      <point x="499.858" y="395.9"/>
      <point x="509.658" y="371.5" type="curve"/>
      <point x="515.258" y="387.1"/>
      <point x="519.358" y="403.1"/>
      <point x="521.658" y="419" type="curve" smooth="yes"/>
      <point x="527.758" y="461.2"/>
      <point x="525.658" y="534.2"/>
      <point x="447.858" y="564.5" type="curve" smooth="yes"/>
      <point x="444.059" y="565.9"/>
      <point x="440.258" y="567.3"/>
      <point x="436.458" y="568.5" type="curve" smooth="yes"/>
      <point x="436.158" y="568.6"/>
      <point x="435.958" y="568.6"/>
      <point x="435.758" y="568.7" type="curve" smooth="yes"/>
      <point x="410.858" y="576.6"/>
      <point x="384.958" y="580.6"/>
      <point x="358.358" y="580.6" type="curve" smooth="yes"/>
      <point x="290.059" y="580.6"/>
      <point x="225.858" y="554"/>
      <point x="177.559" y="505.7" type="curve" smooth="yes"/>
      <point x="129.258" y="457.4"/>
      <point x="102.658" y="393.2"/>
      <point x="102.658" y="324.9" type="curve" smooth="yes"/>
      <point x="102.658" y="256.6"/>
      <point x="129.258" y="192.4"/>
      <point x="177.559" y="144.1" type="curve" smooth="yes"/>
      <point x="225.858" y="95.7998"/>
      <point x="290.059" y="69.2002"/>
      <point x="358.358" y="69.2002" type="curve" smooth="yes"/>
      <point x="426.658" y="69.2002"/>
      <point x="490.858" y="95.7998"/>
      <point x="539.158" y="144.1" type="curve" smooth="yes"/>
      <point x="587.458" y="192.4"/>
      <point x="614.059" y="256.6"/>
      <point x="614.059" y="324.9" type="curve" smooth="yes"/>
      <point x="614.059" y="334.3"/>
      <point x="613.559" y="343.8"/>
      <point x="612.559" y="353.1" type="curve"/>
    </contour>
    <contour>
      <point x="358.758" y="233.8" type="curve" smooth="yes"/>
      <point x="392.559" y="233.8"/>
      <point x="427.758" y="252.2"/>
      <point x="458.258" y="285.6" type="curve"/>
      <point x="451.258" y="330.1"/>
      <point x="437.758" y="364.1"/>
      <point x="418.758" y="385" type="curve" smooth="yes"/>
      <point x="402.958" y="402.4"/>
      <point x="383.758" y="410.5"/>
      <point x="358.358" y="410.5" type="curve" smooth="yes"/>
      <point x="328.858" y="410.5"/>
      <point x="304.458" y="401.1"/>
      <point x="288.059" y="383.3" type="curve" smooth="yes"/>
      <point x="273.458" y="367.4"/>
      <point x="265.358" y="345.8"/>
      <point x="265.358" y="322.3" type="curve" smooth="yes"/>
      <point x="265.358" y="299.1"/>
      <point x="273.658" y="276.8"/>
      <point x="288.158" y="261.1" type="curve" smooth="yes"/>
      <point x="304.658" y="243.3"/>
      <point x="329.059" y="233.8"/>
    </contour>
  </outline>
</glyph>
<glyph name="C" format="2">
  <advance width="608"/>
  <unicode hex="0043"/>
  <outline>
    <contour>
      <point x="335.03" y="-4.2998" type="curve" smooth="yes"/>
      <point x="292.53" y="-4.2998"/>
      <point x="251.33" y="4"/>
      <point x="212.431" y="20.5" type="curve" smooth="yes"/>
      <point x="174.931" y="36.4004"/>
      <point x="141.23" y="59.0996"/>
      <point x="112.33" y="88" type="curve" smooth="yes"/>
      <point x="83.5303" y="116.8"/>
      <point x="60.8301" y="150.5"/>
      <point x="45.0303" y="188" type="curve" smooth="yes"/>
      <point x="28.5303" y="226.9"/>
      <point x="20.2305" y="268.1"/>
      <point x="20.2305" y="310.6" type="curve" smooth="yes"/>
      <point x="20.2305" y="353.1"/>
      <point x="28.5303" y="394.3"/>
      <point x="45.0303" y="433.2" type="curve" smooth="yes"/>
      <point x="60.9307" y="470.7"/>
      <point x="83.6309" y="504.4"/>
      <point x="112.53" y="533.3" type="curve" smooth="yes"/>
      <point x="141.431" y="562.2"/>
      <point x="175.131" y="584.9"/>
      <point x="212.631" y="600.8" type="curve" smooth="yes"/>
      <point x="251.431" y="617.2"/>
      <point x="292.73" y="625.6"/>
      <point x="335.23" y="625.6" type="curve" smooth="yes"/>
      <point x="360.631" y="625.6"/>
      <point x="384.931" y="623.2"/>
      <point x="408.131" y="618.4" type="curve" smooth="yes"/>
      <point x="410.131" y="619.6"/>
      <point x="412.131" y="620.8"/>
      <point x="414.131" y="621.9" type="curve" smooth="yes"/>
      <point x="459.631" y="647.9"/>
      <point x="516.931" y="659.1"/>
      <point x="584.631" y="655.2" type="curve"/>
      <point x="580.431" y="583.3" type="line"/>
      <point x="552.73" y="584.9"/>
      <point x="527.53" y="583.5"/>
      <point x="505.131" y="579.2" type="curve"/>
      <point x="519.73" y="569.5"/>
      <point x="532.931" y="558.3"/>
      <point x="544.53" y="545.7" type="curve" smooth="yes"/>
      <point x="573.23" y="514.7"/>
      <point x="588.83" y="479.5"/>
      <point x="589.73" y="444.1" type="curve" smooth="yes"/>
      <point x="590.53" y="411.9"/>
      <point x="578.931" y="380.4"/>
      <point x="556.931" y="355.6" type="curve" smooth="yes"/>
      <point x="535.83" y="331.7"/>
      <point x="507.03" y="315.6"/>
      <point x="475.931" y="310.5" type="curve" smooth="yes"/>
      <point x="441.83" y="304.8"/>
      <point x="407.631" y="312.8"/>
      <point x="379.431" y="333" type="curve" smooth="yes"/>
      <point x="325.131" y="371.9"/>
      <point x="303.73" y="451.2"/>
      <point x="328.631" y="521.6" type="curve" smooth="yes"/>
      <point x="332.53" y="532.8"/>
      <point x="337.53" y="543.4"/>
      <point x="343.53" y="553.5" type="curve"/>
      <point x="340.83" y="553.6"/>
      <point x="338.03" y="553.6"/>
      <point x="335.33" y="553.6" type="curve" smooth="yes"/>
      <point x="270.431" y="553.6"/>
      <point x="209.431" y="528.3"/>
      <point x="163.631" y="482.5" type="curve" smooth="yes"/>
      <point x="117.53" y="436.4"/>
      <point x="92.2305" y="375.4"/>
      <point x="92.2305" y="310.6" type="curve" smooth="yes"/>
      <point x="92.2305" y="245.7"/>
      <point x="117.53" y="184.8"/>
      <point x="163.33" y="138.9" type="curve" smooth="yes"/>
      <point x="209.23" y="93"/>
      <point x="270.23" y="67.7002"/>
      <point x="335.03" y="67.7002" type="curve" smooth="yes"/>
      <point x="393.53" y="67.7002"/>
      <point x="450.131" y="88.7998"/>
      <point x="494.23" y="127.2" type="curve"/>
      <point x="541.431" y="72.9004" type="line"/>
      <point x="484.33" y="23.0996"/>
      <point x="411.03" y="-4.2998"/>
    </contour>
    <contour>
      <point x="423.33" y="539.5" type="curve" smooth="yes"/>
      <point x="411.131" y="527.5"/>
      <point x="401.931" y="513.3"/>
      <point x="396.33" y="497.5" type="curve" smooth="yes"/>
      <point x="389.23" y="477.3"/>
      <point x="388.131" y="455.1"/>
      <point x="393.431" y="434.9" type="curve" smooth="yes"/>
      <point x="398.33" y="416.2"/>
      <point x="408.131" y="400.8"/>
      <point x="421.23" y="391.4" type="curve" smooth="yes"/>
      <point x="437.33" y="379.9"/>
      <point x="453.33" y="379.6"/>
      <point x="464.03" y="381.4" type="curve" smooth="yes"/>
      <point x="478.73" y="383.8"/>
      <point x="492.83" y="391.8"/>
      <point x="502.931" y="403.2" type="curve" smooth="yes"/>
      <point x="509.931" y="411.1"/>
      <point x="518.131" y="424.3"/>
      <point x="517.73" y="442.3" type="curve" smooth="yes"/>
      <point x="517.33" y="459.9"/>
      <point x="508.23" y="478.8"/>
      <point x="491.631" y="496.7" type="curve" smooth="yes"/>
      <point x="474.53" y="515.2"/>
      <point x="451.931" y="529.5"/>
      <point x="424.33" y="539.2" type="curve" smooth="yes"/>
      <point x="423.931" y="539.3"/>
      <point x="423.631" y="539.4"/>
    </contour>
  </outline>
</glyph>
<glyph name="D" format="2">
  <advance width="592"/>
  <unicode hex="0044"/>
  <outline>
    <contour>
      <point x="252.9" y="-5.2998" type="curve" smooth="yes"/>
      <point x="180.2" y="-5.2998"/>
      <point x="118.6" y="18.5996"/>
      <point x="74.7998" y="63.7998" type="curve" smooth="yes"/>
      <point x="54.9004" y="84.2998"/>
      <point x="39.5" y="108.4"/>
      <point x="29.0996" y="135.5" type="curve" smooth="yes"/>
      <point x="19.0996" y="161.4"/>
      <point x="14" y="188.7"/>
      <point x="14" y="216.8" type="curve" smooth="yes"/>
      <point x="14" y="245"/>
      <point x="19.0996" y="272.4"/>
      <point x="29.0996" y="298.3" type="curve" smooth="yes"/>
      <point x="39.5996" y="325.4"/>
      <point x="55" y="349.5"/>
      <point x="74.9004" y="370.1" type="curve" smooth="yes"/>
      <point x="105.5" y="401.7"/>
      <point x="161.2" y="439.4"/>
      <point x="252.9" y="439.4" type="curve" smooth="yes"/>
      <point x="324.5" y="439.4"/>
      <point x="386.2" y="414.6"/>
      <point x="436.2" y="365.8" type="curve" smooth="yes"/>
      <point x="455.9" y="346.5"/>
      <point x="473.7" y="323.6"/>
      <point x="489.5" y="297.2" type="curve"/>
      <point x="494.4" y="322.1"/>
      <point x="496.9" y="347.2"/>
      <point x="496.9" y="370.8" type="curve" smooth="yes"/>
      <point x="496.9" y="652" type="line"/>
      <point x="568.9" y="652" type="line"/>
      <point x="568.9" y="370.9" type="line" smooth="yes"/>
      <point x="568.9" y="312.3"/>
      <point x="556.4" y="250.6"/>
      <point x="534.2" y="196.2" type="curve"/>
      <point x="566.4" y="96.5"/>
      <point x="568.8" y="2.90039"/>
      <point x="568.9" y="-1.2002" type="curve"/>
      <point x="532.9" y="-2" type="line"/>
      <point x="496.9" y="-2.7998" type="line"/>
      <point x="496.9" y="-2.09961"/>
      <point x="495.6" y="45.5"/>
      <point x="483.2" y="106.5" type="curve"/>
      <point x="460.3" y="77.0996"/>
      <point x="433.7" y="53.0996"/>
      <point x="403.8" y="35" type="curve" smooth="yes"/>
      <point x="359.6" y="8.2002"/>
      <point x="308.9" y="-5.2998"/>
    </contour>
    <contour>
      <point x="252.9" y="367.5" type="curve" smooth="yes"/>
      <point x="200.3" y="367.5"/>
      <point x="156.6" y="351.1"/>
      <point x="126.7" y="320.1" type="curve" smooth="yes"/>
      <point x="100.4" y="293"/>
      <point x="86" y="256.3"/>
      <point x="86" y="216.8" type="curve" smooth="yes"/>
      <point x="86" y="177.4"/>
      <point x="100.4" y="140.8"/>
      <point x="126.5" y="113.9" type="curve" smooth="yes"/>
      <point x="156.4" y="83"/>
      <point x="200.1" y="66.7002"/>
      <point x="252.9" y="66.7002" type="curve" smooth="yes"/>
      <point x="333.6" y="66.7002"/>
      <point x="396.9" y="102"/>
      <point x="441.2" y="171.8" type="curve" smooth="yes"/>
      <point x="446.8" y="180.6"/>
      <point x="452" y="189.8"/>
      <point x="456.8" y="199.4" type="curve"/>
      <point x="438.1" y="248.3"/>
      <point x="414.1" y="287.1"/>
      <point x="385.5" y="314.9" type="curve" smooth="yes"/>
      <point x="348.9" y="350.3"/>
      <point x="305.5" y="367.5"/>
    </contour>
  </outline>
</glyph>
<glyph name="E" format="2">
  <advance width="611"/>
  <unicode hex="0045"/>
  <outline>
    <contour>
      <point x="328.5" y="-4.5" type="curve" smooth="yes"/>
      <point x="280.3" y="-4.5"/>
      <point x="235.2" y="4.90039"/>
      <point x="194.5" y="23.5" type="curve" smooth="yes"/>
      <point x="156.5" y="40.7998"/>
      <point x="123" y="65.7002"/>
      <point x="95.0996" y="97.4004" type="curve" smooth="yes"/>
      <point x="68.9004" y="127.1"/>
      <point x="48.5" y="161.7"/>
      <point x="34.5" y="200.2" type="curve" smooth="yes"/>
      <point x="20.9004" y="237.5"/>
      <point x="18" y="276.6"/>
      <point x="18" y="316.2" type="curve" smooth="yes"/>
      <point x="18" y="378.6"/>
      <point x="32.7998" y="441.6"/>
      <point x="66.7998" y="495.6" type="curve"/>
      <point x="35.2998" y="575.4"/>
      <point x="31.5996" y="648.5"/>
      <point x="31.4004" y="651.8" type="curve"/>
      <point x="103.3" y="655.2" type="line"/>
      <point x="103.3" y="654.7"/>
      <point x="105.6" y="613.1"/>
      <point x="120.4" y="561.4" type="curve"/>
      <point x="146.7" y="586.4"/>
      <point x="176.5" y="606.6"/>
      <point x="209.4" y="621.6" type="curve" smooth="yes"/>
      <point x="253.5" y="641.7"/>
      <point x="302" y="651.9"/>
      <point x="353.4" y="651.9" type="curve" smooth="yes"/>
      <point x="424.4" y="651.9"/>
      <point x="484.8" y="633.4"/>
      <point x="528" y="598.3" type="curve" smooth="yes"/>
      <point x="548.5" y="581.6"/>
      <point x="564.6" y="561.9"/>
      <point x="575.6" y="539.5" type="curve" smooth="yes"/>
      <point x="586.5" y="517.5"/>
      <point x="592" y="494.1"/>
      <point x="592" y="470" type="curve" smooth="yes"/>
      <point x="592" y="445.9"/>
      <point x="586.5" y="422.4"/>
      <point x="575.6" y="400.4" type="curve" smooth="yes"/>
      <point x="564.6" y="378"/>
      <point x="548.6" y="358.2"/>
      <point x="528" y="341.5" type="curve" smooth="yes"/>
      <point x="484.7" y="306.3"/>
      <point x="424.3" y="287.7"/>
      <point x="353.4" y="287.7" type="curve" smooth="yes"/>
      <point x="283.4" y="287.7"/>
      <point x="222.4" y="307.6"/>
      <point x="172.2" y="346.9" type="curve" smooth="yes"/>
      <point x="147.6" y="366.1"/>
      <point x="125.8" y="389.9"/>
      <point x="107" y="417.9" type="curve"/>
      <point x="105.8" y="415.2"/>
      <point x="104.7" y="412.4"/>
      <point x="103.7" y="409.6" type="curve" smooth="yes"/>
      <point x="92.2002" y="379.2"/>
      <point x="86" y="346.9"/>
      <point x="86" y="316.2" type="curve" smooth="yes"/>
      <point x="86" y="252.8"/>
      <point x="109" y="190.4"/>
      <point x="149.1" y="144.9" type="curve" smooth="yes"/>
      <point x="180.2" y="109.6"/>
      <point x="236.6" y="67.5"/>
      <point x="328.6" y="67.5" type="curve" smooth="yes"/>
      <point x="382.6" y="67.5"/>
      <point x="430.3" y="84.0996"/>
      <point x="470.4" y="116.7" type="curve" smooth="yes"/>
      <point x="501.2" y="141.8"/>
      <point x="515.9" y="167.5"/>
      <point x="516" y="167.7" type="curve"/>
      <point x="515.9" y="167.5" type="line"/>
      <point x="579" y="132.8" type="line"/>
      <point x="577" y="129.2"/>
      <point x="558.3" y="96.2002"/>
      <point x="518.7" y="63.2002" type="curve" smooth="yes"/>
      <point x="465.6" y="18.9004"/>
      <point x="399.8" y="-4.5"/>
    </contour>
    <contour>
      <point x="149.5" y="487.4" type="curve" smooth="yes"/>
      <point x="167.9" y="452"/>
      <point x="190.7" y="423.7"/>
      <point x="217.5" y="402.9" type="curve" smooth="yes"/>
      <point x="254.6" y="374.2"/>
      <point x="300.3" y="359.6"/>
      <point x="353.5" y="359.6" type="curve" smooth="yes"/>
      <point x="421.9" y="359.6"/>
      <point x="461.5" y="380.1"/>
      <point x="482.7" y="397.3" type="curve" smooth="yes"/>
      <point x="506.8" y="416.9"/>
      <point x="520.1" y="442.7"/>
      <point x="520.1" y="470" type="curve" smooth="yes"/>
      <point x="520.1" y="497.2"/>
      <point x="506.9" y="522.9"/>
      <point x="482.8" y="542.4" type="curve" smooth="yes"/>
      <point x="461.7" y="559.5"/>
      <point x="422.1" y="580"/>
      <point x="353.5" y="580" type="curve" smooth="yes"/>
      <point x="253.6" y="580"/>
      <point x="190.9" y="533.7"/>
      <point x="155.9" y="494.8" type="curve" smooth="yes"/>
      <point x="153.7" y="492.3"/>
      <point x="151.6" y="489.8"/>
    </contour>
  </outline>
</glyph>
<glyph name="G" format="2">
  <advance width="657"/>
  <unicode hex="0047"/>
  <outline>
    <contour>
      <point x="240.6" y="-96.2002" type="line"/>
      <point x="228" y="-59.7002"/>
      <point x="219.6" y="-23.7002"/>
      <point x="215.3" y="11.5996" type="curve"/>
      <point x="178.1" y="28.4004"/>
      <point x="144.6" y="51.5"/>
      <point x="115.5" y="80.5996" type="curve" smooth="yes"/>
      <point x="84.5996" y="111.5"/>
      <point x="60.2998" y="147.5"/>
      <point x="43.4004" y="187.6" type="curve" smooth="yes"/>
      <point x="25.9004" y="229"/>
      <point x="17" y="273"/>
      <point x="17" y="318.5" type="curve" smooth="yes"/>
      <point x="17" y="363.9"/>
      <point x="25.9004" y="408"/>
      <point x="43.5" y="449.5" type="curve" smooth="yes"/>
      <point x="60.5" y="489.6"/>
      <point x="84.7002" y="525.6"/>
      <point x="115.6" y="556.5" type="curve" smooth="yes"/>
      <point x="146.5" y="587.4"/>
      <point x="182.5" y="611.7"/>
      <point x="222.6" y="628.6" type="curve" smooth="yes"/>
      <point x="264.1" y="646.2"/>
      <point x="308.2" y="655.1"/>
      <point x="353.6" y="655.1" type="curve" smooth="yes"/>
      <point x="434.7" y="655.1"/>
      <point x="513.1" y="625.8"/>
      <point x="574.3" y="572.7" type="curve"/>
      <point x="527.1" y="518.4" type="line"/>
      <point x="478.9" y="560"/>
      <point x="417.3" y="583"/>
      <point x="353.5" y="583" type="curve" smooth="yes"/>
      <point x="282.8" y="583"/>
      <point x="216.4" y="555.5"/>
      <point x="166.5" y="505.5" type="curve" smooth="yes"/>
      <point x="116.5" y="455.5"/>
      <point x="89" y="389.1"/>
      <point x="89" y="318.5" type="curve" smooth="yes"/>
      <point x="89" y="247.8"/>
      <point x="116.5" y="181.4"/>
      <point x="166.5" y="131.5" type="curve" smooth="yes"/>
      <point x="180.8" y="117.2"/>
      <point x="196.4" y="104.7"/>
      <point x="213.2" y="94.2002" type="curve"/>
      <point x="213.3" y="95.9004"/>
      <point x="213.5" y="97.5996"/>
      <point x="213.6" y="99.2998" type="curve" smooth="yes"/>
      <point x="218.5" y="157"/>
      <point x="236.1" y="210.7"/>
      <point x="264.5" y="254.5" type="curve" smooth="yes"/>
      <point x="285.4" y="286.7"/>
      <point x="311.4" y="312.8"/>
      <point x="341.7" y="332.2" type="curve" smooth="yes"/>
      <point x="372.7" y="351.9"/>
      <point x="406.4" y="363.5"/>
      <point x="442" y="366.6" type="curve" smooth="yes"/>
      <point x="522.5" y="373.6"/>
      <point x="591.6" y="339.1"/>
      <point x="622.3" y="276.4" type="curve" smooth="yes"/>
      <point x="637.7" y="245"/>
      <point x="641.9" y="209.3"/>
      <point x="634.4" y="173.1" type="curve" smooth="yes"/>
      <point x="626.8" y="136.2"/>
      <point x="606.9" y="99.5996"/>
      <point x="576.9" y="67.0996" type="curve" smooth="yes"/>
      <point x="550.2" y="38.2002"/>
      <point x="515.7" y="16.2002"/>
      <point x="474.4" y="1.59961" type="curve" smooth="yes"/>
      <point x="437.6" y="-11.4004"/>
      <point x="396.9" y="-18"/>
      <point x="353.4" y="-18" type="curve" smooth="yes"/>
      <point x="332.6" y="-18"/>
      <point x="312.2" y="-16.0996"/>
      <point x="292.1" y="-12.4004" type="curve"/>
      <point x="296.1" y="-32.2002"/>
      <point x="301.6" y="-52.4004"/>
      <point x="308.6" y="-72.7002" type="curve"/>
    </contour>
    <contour>
      <point x="284.1" y="63.0996" type="curve"/>
      <point x="306.4" y="57.0996"/>
      <point x="329.7" y="54"/>
      <point x="353.5" y="54" type="curve" smooth="yes"/>
      <point x="388.3" y="54"/>
      <point x="421.8" y="59.4004"/>
      <point x="450.5" y="69.5" type="curve" smooth="yes"/>
      <point x="480.6" y="80.2002"/>
      <point x="505.4" y="95.7998"/>
      <point x="524.1" y="116.1" type="curve" smooth="yes"/>
      <point x="563.6" y="158.8"/>
      <point x="576.2" y="207"/>
      <point x="557.6" y="244.8" type="curve" smooth="yes"/>
      <point x="549.6" y="261.1"/>
      <point x="536.2" y="274.3"/>
      <point x="518.8" y="283.2" type="curve" smooth="yes"/>
      <point x="499.1" y="293.2"/>
      <point x="474.7" y="297.3"/>
      <point x="448.2" y="295" type="curve" smooth="yes"/>
      <point x="424.2" y="292.9"/>
      <point x="401.4" y="285"/>
      <point x="380.3" y="271.6" type="curve" smooth="yes"/>
      <point x="358.7" y="257.8"/>
      <point x="340" y="238.9"/>
      <point x="324.8" y="215.4" type="curve" smooth="yes"/>
      <point x="297.4" y="173"/>
      <point x="283.8" y="120.7"/>
    </contour>
  </outline>
</glyph>
<glyph name="J" format="2">
  <advance width="427"/>
  <unicode hex="004A"/>
  <outline>
    <contour>
      <point x="174" y="-0.0996094" type="curve" smooth="yes"/>
      <point x="167.6" y="-0.0996094"/>
      <point x="161.2" y="0.299805"/>
      <point x="154.8" y="1" type="curve" smooth="yes"/>
      <point x="122" y="4.7002"/>
      <point x="90.9004" y="17.7998"/>
      <point x="64.7002" y="38.7998" type="curve" smooth="yes"/>
      <point x="40.0996" y="58.5996"/>
      <point x="22.0996" y="88.2998"/>
      <point x="13.9004" y="122.5" type="curve" smooth="yes"/>
      <point x="5.59961" y="157.4"/>
      <point x="7.7998" y="194.5"/>
      <point x="20.2998" y="230" type="curve" smooth="yes"/>
      <point x="33.7998" y="268.3"/>
      <point x="65.9004" y="322.5"/>
      <point x="142.2" y="363.7" type="curve" smooth="yes"/>
      <point x="182.7" y="385.5"/>
      <point x="230.7" y="401"/>
      <point x="285.7" y="410.1" type="curve"/>
      <point x="285.4" y="535.3" type="line"/>
      <point x="357.4" y="535.5" type="line"/>
      <point x="357.7" y="418.1" type="line"/>
      <point x="375.1" y="419.2"/>
      <point x="393.1" y="419.7"/>
      <point x="411.6" y="419.7" type="curve"/>
      <point x="411.6" y="347.7" type="line"/>
      <point x="393" y="347.7"/>
      <point x="375.1" y="347.1"/>
      <point x="357.9" y="346" type="curve"/>
      <point x="358.2" y="214.4" type="line" smooth="yes"/>
      <point x="358.2" y="167.4"/>
      <point x="347.9" y="125.9"/>
      <point x="327.6" y="90.9004" type="curve" smooth="yes"/>
      <point x="308.6" y="58.2002"/>
      <point x="281.3" y="32.7002"/>
      <point x="248.7" y="17" type="curve" smooth="yes"/>
      <point x="225.2" y="5.7002"/>
      <point x="199.7" y="-0.0996094"/>
    </contour>
    <contour>
      <point x="285.9" y="337.1" type="line"/>
      <point x="243.8" y="329.2"/>
      <point x="207.2" y="316.9"/>
      <point x="176.4" y="300.3" type="curve" smooth="yes"/>
      <point x="132" y="276.3"/>
      <point x="101.5" y="243.7"/>
      <point x="88.2002" y="206" type="curve" smooth="yes"/>
      <point x="75.4004" y="169.7"/>
      <point x="78.7002" y="119.8"/>
      <point x="109.8" y="94.9004" type="curve" smooth="yes"/>
      <point x="140.9" y="69.9004"/>
      <point x="182.2" y="64.9004"/>
      <point x="217.6" y="81.9004" type="curve" smooth="yes"/>
      <point x="237.1" y="91.2002"/>
      <point x="253.6" y="106.8"/>
      <point x="265.3" y="127" type="curve" smooth="yes"/>
      <point x="279.2" y="150.9"/>
      <point x="286.2" y="180.2"/>
      <point x="286.2" y="214.3" type="curve" smooth="yes"/>
    </contour>
    <contour>
      <point x="321.58" y="567.878" type="line"/>
      <point x="270.59" y="618.71" type="line"/>
      <point x="321.422" y="669.7" type="line"/>
      <point x="372.412" y="618.868" type="line"/>
    </contour>
  </outline>
</glyph>
<glyph name="L" format="2">
  <advance width="650"/>
  <unicode hex="004C"/>
  <outline>
    <contour>
      <point x="586.6" y="-20.5996" type="line"/>
      <point x="498" y="76.4004"/>
      <point x="392.1" y="140.3"/>
      <point x="300.2" y="169.7" type="curve"/>
      <point x="282.7" y="65.2002"/>
      <point x="231.3" y="25"/>
      <point x="198.3" y="9.7998" type="curve" smooth="yes"/>
      <point x="151" y="-12"/>
      <point x="95" y="-4.5"/>
      <point x="55.7998" y="29" type="curve" smooth="yes"/>
      <point x="39" y="43.2998"/>
      <point x="26.5996" y="61.5"/>
      <point x="19.9004" y="81.5" type="curve" smooth="yes"/>
      <point x="12.5" y="103.3"/>
      <point x="12.0996" y="127"/>
      <point x="18.5" y="150" type="curve" smooth="yes"/>
      <point x="33.4004" y="203"/>
      <point x="74.2998" y="239.9"/>
      <point x="133.5" y="253.9" type="curve" smooth="yes"/>
      <point x="163.4" y="261"/>
      <point x="197.5" y="262.3"/>
      <point x="234.2" y="257.9" type="curve"/>
      <point x="233.5" y="654.5" type="line"/>
      <point x="305.5" y="654.6" type="line"/>
      <point x="306.2" y="249" type="line" smooth="yes"/>
      <point x="306.2" y="247"/>
      <point x="306.2" y="245"/>
      <point x="306.2" y="243.1" type="curve" smooth="yes"/>
      <point x="329.9" y="236.3"/>
      <point x="354.2" y="227.6"/>
      <point x="378.8" y="216.9" type="curve" smooth="yes"/>
      <point x="424.6" y="197"/>
      <point x="469.7" y="171.3"/>
      <point x="512.9" y="140.5" type="curve" smooth="yes"/>
      <point x="558.7" y="107.7"/>
      <point x="601.4" y="69.9004"/>
      <point x="639.6" y="28" type="curve"/>
    </contour>
    <contour>
      <point x="193" y="188.5" type="curve" smooth="yes"/>
      <point x="177.4" y="188.5"/>
      <point x="163.1" y="187"/>
      <point x="150.1" y="183.9" type="curve" smooth="yes"/>
      <point x="116" y="175.8"/>
      <point x="95.5996" y="158.3"/>
      <point x="87.7998" y="130.5" type="curve" smooth="yes"/>
      <point x="81" y="106.5"/>
      <point x="94.0996" y="90.9004"/>
      <point x="102.5" y="83.7998" type="curve" smooth="yes"/>
      <point x="111.6" y="76"/>
      <point x="125.9" y="69.2998"/>
      <point x="142.2" y="69.2998" type="curve" smooth="yes"/>
      <point x="150.4" y="69.2998"/>
      <point x="159.2" y="71"/>
      <point x="168.1" y="75.0996" type="curve" smooth="yes"/>
      <point x="185.5" y="83.0996"/>
      <point x="200.6" y="99.7002"/>
      <point x="211.7" y="122.9" type="curve" smooth="yes"/>
      <point x="220.1" y="140.6"/>
      <point x="226.2" y="161.6"/>
      <point x="229.9" y="185.9" type="curve"/>
      <point x="217" y="187.6"/>
      <point x="204.7" y="188.5"/>
    </contour>
  </outline>
</glyph>
<glyph name="S" format="2">
  <advance width="458"/>
  <unicode hex="0053"/>
  <outline>
    <contour>
      <point x="383.2" y="345.7" type="curve" smooth="yes"/>
      <point x="421.8" y="307.1"/>
      <point x="443" y="255.8"/>
      <point x="443" y="201.3" type="curve" smooth="yes"/>
      <point x="443" y="146.7"/>
      <point x="421.8" y="95.5"/>
      <point x="383.2" y="56.9004" type="curve" smooth="yes"/>
      <point x="344.6" y="18.2998"/>
      <point x="293.3" y="-2.90039"/>
      <point x="238.8" y="-2.90039" type="curve" smooth="yes"/>
      <point x="197.6" y="-2.90039"/>
      <point x="158" y="9.2998"/>
      <point x="124.1" y="32.2998" type="curve" smooth="yes"/>
      <point x="91.0996" y="54.7998"/>
      <point x="65.5" y="86.0996"/>
      <point x="50.2002" y="122.9" type="curve"/>
      <point x="116.7" y="150.6" type="line"/>
      <point x="137.3" y="101.2"/>
      <point x="185.2" y="69.2002"/>
      <point x="238.8" y="69.2002" type="curve" smooth="yes"/>
      <point x="311.7" y="69.2002"/>
      <point x="371" y="128.5"/>
      <point x="371" y="201.4" type="curve" smooth="yes"/>
      <point x="371" y="255.5"/>
      <point x="338.3" y="302.2"/>
      <point x="291.5" y="322.6" type="curve" smooth="yes"/>
      <point x="291.3" y="322.4"/>
      <point x="291.091" y="322.314"/>
      <point x="290.9" y="322.2" type="curve" smooth="yes"/>
      <point x="224" y="282"/>
      <point x="124.2" y="255.899"/>
      <point x="12" y="248" type="curve"/>
      <point x="12" y="320.5" type="line"/>
      <point x="72.7002" y="324.7"/>
      <point x="127.1" y="334.4"/>
      <point x="173.3" y="348.9" type="curve"/>
      <point x="119" y="374.6"/>
      <point x="81.2998" y="430"/>
      <point x="81.2998" y="494" type="curve" smooth="yes"/>
      <point x="81.2998" y="582.4"/>
      <point x="153.3" y="654.5"/>
      <point x="241.8" y="654.5" type="curve" smooth="yes"/>
      <point x="330.3" y="654.5"/>
      <point x="402.3" y="582.5"/>
      <point x="402.3" y="494" type="curve" smooth="yes"/>
      <point x="402.3" y="492.6"/>
      <point x="402.2" y="491.3"/>
      <point x="402.2" y="489.9" type="curve" smooth="yes"/>
      <point x="402.2" y="489.8"/>
      <point x="402.2" y="489.8"/>
      <point x="402.2" y="489.7" type="curve" smooth="yes"/>
      <point x="401.4" y="456.3"/>
      <point x="391.2" y="424.9"/>
      <point x="371.9" y="396.1" type="curve" smooth="yes"/>
      <point x="366.1" y="387.5"/>
      <point x="359.5" y="379.2"/>
      <point x="352.2" y="371.2" type="curve"/>
      <point x="363.2" y="363.8"/>
      <point x="373.6" y="355.3"/>
    </contour>
    <contour>
      <point x="330.1" y="491" type="curve" smooth="yes"/>
      <point x="330.2" y="492"/>
      <point x="330.2" y="493"/>
      <point x="330.2" y="494" type="curve" smooth="yes"/>
      <point x="330.2" y="542.8"/>
      <point x="290.5" y="582.5"/>
      <point x="241.7" y="582.5" type="curve" smooth="yes"/>
      <point x="192.9" y="582.5"/>
      <point x="153.2" y="542.8"/>
      <point x="153.2" y="494" type="curve" smooth="yes"/>
      <point x="153.2" y="445.2"/>
      <point x="192.9" y="405.5"/>
      <point x="241.7" y="405.5" type="curve" smooth="yes"/>
      <point x="289.5" y="405.5"/>
      <point x="328.5" y="443.6"/>
    </contour>
  </outline>
</glyph>
<glyph name="Z" format="2">
  <advance width="672"/>
  <unicode hex="005A"/>
  <outline>
    <contour>
      <point x="175.635" y="0" type="line"/>
      <point x="160.273" y="0" type="line"/>
      <point x="129.273" y="0"/>
      <point x="103.087" y="4.97619"/>
      <point x="80.0996" y="17.5996" type="curve" smooth="yes"/>
      <point x="57.7002" y="29.9004"/>
      <point x="39.7998" y="48.0996"/>
      <point x="28.5" y="70.2998" type="curve" smooth="yes"/>
      <point x="16" y="94.5996"/>
      <point x="11.5" y="123"/>
      <point x="15.4004" y="152.3" type="curve" smooth="yes"/>
      <point x="19.0996" y="180.3"/>
      <point x="30.4004" y="208.2"/>
      <point x="48.0996" y="233" type="curve" smooth="yes"/>
      <point x="53.2002" y="240.4"/>
      <point x="122.2" y="339.9"/>
      <point x="210.7" y="441.2" type="curve" smooth="yes"/>
      <point x="223.4" y="455.7"/>
      <point x="235.8" y="469.5"/>
      <point x="248" y="482.6" type="curve"/>
      <point x="223.5" y="492"/>
      <point x="198.4" y="502.7"/>
      <point x="173" y="514.8" type="curve" smooth="yes"/>
      <point x="91.7998" y="553.2"/>
      <point x="35" y="591.3"/>
      <point x="32.5996" y="592.9" type="curve"/>
      <point x="65.8301" y="642.166" type="line"/>
      <point x="69.4971" y="647.831" type="line"/>
      <point x="72.7998" y="652.6" type="line"/>
      <point x="74.7998" y="651.3"/>
      <point x="180.1" y="581.2"/>
      <point x="303.6" y="539.1" type="curve"/>
      <point x="322.4" y="557"/>
      <point x="340.5" y="572.9"/>
      <point x="357.8" y="586.7" type="curve" smooth="yes"/>
      <point x="418.3" y="635.2"/>
      <point x="469.1" y="658.7"/>
      <point x="513.1" y="658.7" type="curve" smooth="yes"/>
      <point x="610.2" y="658.7"/>
      <point x="654.5" y="605.5"/>
      <point x="654.5" y="556.1" type="curve" smooth="yes"/>
      <point x="654.5" y="522.3"/>
      <point x="634.8" y="490.4"/>
      <point x="600.4" y="468.5" type="curve" smooth="yes"/>
      <point x="566.9" y="447.2"/>
      <point x="520.7" y="435.9"/>
      <point x="466.7" y="435.9" type="curve" smooth="yes"/>
      <point x="423.2" y="435.9"/>
      <point x="375" y="443.2"/>
      <point x="323.5" y="457.5" type="curve"/>
      <point x="304.8" y="438.4"/>
      <point x="285.4" y="417.3"/>
      <point x="265.2" y="394.3" type="curve" smooth="yes"/>
      <point x="177.9" y="294.4"/>
      <point x="107.9" y="192.9"/>
      <point x="107.2" y="191.9" type="curve" smooth="yes"/>
      <point x="106.8" y="191.3" type="line" smooth="yes"/>
      <point x="85.7002" y="161.9"/>
      <point x="80.0996" y="127.3"/>
      <point x="92.5" y="103.1" type="curve" smooth="yes"/>
      <point x="100.1" y="88.2998"/>
      <point x="118.2" y="70.5996"/>
      <point x="161.2" y="70.5996" type="curve" smooth="yes"/>
      <point x="615.9" y="73" type="line"/>
      <point x="616.3" y="0" type="line"/>
    </contour>
    <contour>
      <point x="386" y="516.5" type="curve"/>
      <point x="413.2" y="511.1"/>
      <point x="440.4" y="507.9"/>
      <point x="466.8" y="507.9" type="curve" smooth="yes"/>
      <point x="506.5" y="507.9"/>
      <point x="540.2" y="515.5"/>
      <point x="561.8" y="529.2" type="curve" smooth="yes"/>
      <point x="574.8" y="537.5"/>
      <point x="582.5" y="547.5"/>
      <point x="582.5" y="556.1" type="curve" smooth="yes"/>
      <point x="582.5" y="568.8"/>
      <point x="561" y="586.7"/>
      <point x="513.1" y="586.7" type="curve" smooth="yes"/>
      <point x="494.8" y="586.7"/>
      <point x="460.9" y="577"/>
      <point x="403" y="530.6" type="curve" smooth="yes"/>
      <point x="397.4" y="526.1"/>
      <point x="391.8" y="521.4"/>
    </contour>
  </outline>
</glyph>
<glyph name="backslash" format="2">
  <advance width="467"/>
  <unicode hex="005C"/>
  <outline>
    <contour>
      <point x="411.1" y="-23" type="line"/>
      <point x="339.3" y="42.2998"/>
      <point x="273.5" y="117.7"/>
      <point x="215.3" y="201" type="curve" smooth="yes"/>
      <point x="168.9" y="267.6"/>
      <point x="127.2" y="339.3"/>
      <point x="91.5" y="414.4" type="curve" smooth="yes"/>
      <point x="30.4004" y="542.5"/>
      <point x="7.90039" y="635.2"/>
      <point x="7" y="639" type="curve" smooth="yes"/>
      <point x="42" y="647.4" type="line"/>
      <point x="77" y="655.8" type="line"/>
      <point x="77.2002" y="654.9"/>
      <point x="99.0996" y="565.2"/>
      <point x="157.3" y="443.5" type="curve" smooth="yes"/>
      <point x="191.3" y="372.3"/>
      <point x="230.9" y="304.2"/>
      <point x="275" y="241.1" type="curve" smooth="yes"/>
      <point x="329.9" y="162.6"/>
      <point x="392" y="91.5996"/>
      <point x="459.5" y="30.2002" type="curve"/>
    </contour>
  </outline>
</glyph>
<glyph name="asciicircum" format="2">
  <advance width="436"/>
  <unicode hex="005E"/>
  <outline>
    <contour>
      <point x="79" y="398.9" type="curve" smooth="yes"/>
      <point x="12" y="425.4" type="line"/>
      <point x="12.9004" y="427.6"/>
      <point x="33.7998" y="480.1"/>
      <point x="66.7002" y="533.3" type="curve" smooth="yes"/>
      <point x="86.7002" y="565.7"/>
      <point x="107.2" y="591.8"/>
      <point x="127.6" y="610.9" type="curve" smooth="yes"/>
      <point x="157.1" y="638.6"/>
      <point x="187.4" y="652.6"/>
      <point x="217.8" y="652.6" type="curve" smooth="yes"/>
      <point x="248.1" y="652.6"/>
      <point x="278.5" y="638.6"/>
      <point x="307.9" y="610.9" type="curve" smooth="yes"/>
      <point x="328.3" y="591.8"/>
      <point x="348.7" y="565.7"/>
      <point x="368.7" y="533.3" type="curve" smooth="yes"/>
      <point x="401.5" y="480.1"/>
      <point x="422.3" y="427.5"/>
      <point x="423.1" y="425.3" type="curve" smooth="yes"/>
      <point x="356.1" y="399" type="line" smooth="yes"/>
      <point x="355.9" y="399.5"/>
      <point x="336.5" y="448.5"/>
      <point x="306.9" y="496.3" type="curve" smooth="yes"/>
      <point x="274.2" y="549.1"/>
      <point x="240.9" y="580.6"/>
      <point x="217.8" y="580.6" type="curve" smooth="yes"/>
      <point x="194.5" y="580.6"/>
      <point x="160.9" y="548.8"/>
      <point x="127.9" y="495.4" type="curve" smooth="yes"/>
      <point x="98.2998" y="447.6"/>
      <point x="79.2002" y="399.4"/>
    </contour>
  </outline>
</glyph>
<glyph name="underscore" format="2">
  <advance width="458"/>
  <unicode hex="005F"/>
  <outline>
    <contour>
      <point x="8" y="0.299805" type="line"/>
      <point x="8" y="72.2998" type="line"/>
      <point x="450.9" y="72.2998" type="line"/>
      <point x="450.9" y="0.299805" type="line"/>
    </contour>
  </outline>
</glyph>
<glyph name="a" format="2">
  <advance width="592"/>
  <unicode hex="0061"/>
  <outline>
    <contour>
      <point x="254.89" y="-2.91016" type="curve" smooth="yes"/>
      <point x="182.18" y="-2.91016"/>
      <point x="120.61" y="20.9902"/>
      <point x="76.8203" y="66.2002" type="curve" smooth="yes"/>
      <point x="57.0703" y="86.6045"/>
      <point x="41.4551" y="110.889"/>
      <point x="31.0898" y="137.87" type="curve" smooth="yes"/>
      <point x="21.3877" y="163.123"/>
      <point x="16.0703" y="190.542"/>
      <point x="16.0703" y="219.193" type="curve" smooth="yes"/>
      <point x="16.0703" y="247.845"/>
      <point x="21.3877" y="275.487"/>
      <point x="31.0898" y="300.74" type="curve" smooth="yes"/>
      <point x="41.4717" y="327.764"/>
      <point x="57.0957" y="352.097"/>
      <point x="76.8496" y="372.56" type="curve" smooth="yes"/>
      <point x="107.42" y="404.18"/>
      <point x="163.11" y="441.89"/>
      <point x="254.85" y="441.89" type="curve" smooth="yes"/>
      <point x="326.39" y="441.89"/>
      <point x="388.03" y="417.31"/>
      <point x="438.07" y="368.89" type="curve" smooth="yes"/>
      <point x="457.9" y="349.69"/>
      <point x="475.77" y="326.78"/>
      <point x="491.55" y="300.38" type="curve"/>
      <point x="496.225" y="324.06"/>
      <point x="498.73" y="348.246"/>
      <point x="498.85" y="373.26" type="curve" smooth="yes"/>
      <point x="498.85" y="424.84"/>
      <point x="480.13" y="475.96"/>
      <point x="447.5" y="513.52" type="curve" smooth="yes"/>
      <point x="429.241" y="534.55"/>
      <point x="406.624" y="551.338"/>
      <point x="380.81" y="562.73" type="curve" smooth="yes"/>
      <point x="351.42" y="575.82"/>
      <point x="317.46" y="582.45"/>
      <point x="279.89" y="582.45" type="curve" smooth="yes"/>
      <point x="225.8" y="582.45"/>
      <point x="177.984" y="565.902"/>
      <point x="137.89" y="533.16" type="curve" smooth="yes"/>
      <point x="107.08" y="508"/>
      <point x="92.459" y="482.516"/>
      <point x="92.3193" y="482.266" type="curve"/>
      <point x="92.2695" y="482.18" type="line"/>
      <point x="29.1904" y="516.88" type="line"/>
      <point x="31.1904" y="520.53"/>
      <point x="49.9502" y="553.49"/>
      <point x="89.5801" y="586.6" type="curve" smooth="yes"/>
      <point x="142.69" y="630.96"/>
      <point x="208.51" y="654.41"/>
      <point x="279.93" y="654.41" type="curve" smooth="yes"/>
      <point x="396.1" y="654.41"/>
      <point x="464.76" y="603.41"/>
      <point x="501.93" y="560.7" type="curve" smooth="yes"/>
      <point x="545.77" y="510.23"/>
      <point x="570.93" y="441.9"/>
      <point x="570.93" y="373.22" type="curve" smooth="yes"/>
      <point x="570.93" y="314.85"/>
      <point x="558.5" y="253.51"/>
      <point x="536.5" y="199.22" type="curve"/>
      <point x="568.5" y="100.59"/>
      <point x="571.243" y="4.1084"/>
      <point x="571.333" y="-0.000976562" type="curve"/>
      <point x="499.333" y="0" type="line"/>
      <point x="499.333" y="0.650391"/>
      <point x="497.63" y="49.54"/>
      <point x="485.56" y="109.25" type="curve"/>
      <point x="462.63" y="79.6201"/>
      <point x="435.9" y="55.4805"/>
      <point x="405.79" y="37.25" type="curve" smooth="yes"/>
      <point x="361.64" y="10.6201"/>
      <point x="310.87" y="-2.91016"/>
    </contour>
    <contour>
      <point x="254.89" y="369.89" type="curve" smooth="yes"/>
      <point x="202.25" y="369.89"/>
      <point x="158.6" y="353.51"/>
      <point x="128.65" y="322.52" type="curve" smooth="yes"/>
      <point x="102.44" y="295.4"/>
      <point x="88" y="258.71"/>
      <point x="88" y="219.23" type="curve" smooth="yes"/>
      <point x="88" y="179.75"/>
      <point x="102.4" y="143.23"/>
      <point x="128.53" y="116.29" type="curve" smooth="yes"/>
      <point x="158.44" y="85.4102"/>
      <point x="202.13" y="69.0898"/>
      <point x="254.89" y="69.0898" type="curve" smooth="yes"/>
      <point x="335.55" y="69.0898"/>
      <point x="398.89" y="104.43"/>
      <point x="443.17" y="174.09" type="curve" smooth="yes"/>
      <point x="448.928" y="183.177"/>
      <point x="454.241" y="192.609"/>
      <point x="459.05" y="202.3" type="curve"/>
      <point x="440.34" y="251.12"/>
      <point x="416.3" y="289.87"/>
      <point x="387.51" y="317.57" type="curve" smooth="yes"/>
      <point x="351" y="352.79"/>
      <point x="307.57" y="369.89"/>
    </contour>
  </outline>
</glyph>
<glyph name="b" format="2">
  <advance width="611"/>
  <unicode hex="0062"/>
  <outline>
    <contour>
      <point x="316.6" y="-6" type="curve" smooth="yes"/>
      <point x="283.8" y="-6"/>
      <point x="250.9" y="-0.299805"/>
      <point x="218.8" y="11" type="curve" smooth="yes"/>
      <point x="202.2" y="16.7998"/>
      <point x="185.8" y="24.0996"/>
      <point x="169.7" y="32.7998" type="curve"/>
      <point x="169.7" y="3" type="line"/>
      <point x="97.7002" y="3" type="line"/>
      <point x="97.7002" y="83.0996" type="line"/>
      <point x="67.7002" y="109.3"/>
      <point x="40.2002" y="140.3"/>
      <point x="18" y="173.5" type="curve"/>
      <point x="77.7998" y="213.6" type="line"/>
      <point x="84" y="204.4"/>
      <point x="90.7002" y="195.3"/>
      <point x="97.7002" y="186.6" type="curve"/>
      <point x="97.7002" y="419.2" type="line" smooth="yes"/>
      <point x="97.7002" y="481.9"/>
      <point x="122.1" y="540.9"/>
      <point x="166.5" y="585.3" type="curve" smooth="yes"/>
      <point x="210.9" y="629.7"/>
      <point x="269.9" y="654.1"/>
      <point x="332.6" y="654.1" type="curve" smooth="yes"/>
      <point x="395.2" y="654.1"/>
      <point x="453.1" y="629.4"/>
      <point x="495.4" y="584.6" type="curve" smooth="yes"/>
      <point x="536.7" y="540.8"/>
      <point x="559.5" y="482.1"/>
      <point x="559.5" y="419.2" type="curve" smooth="yes"/>
      <point x="559.5" y="400"/>
      <point x="557.9" y="381.4"/>
      <point x="554.6" y="363.5" type="curve"/>
      <point x="559.7" y="355.5"/>
      <point x="564.2" y="347.2"/>
      <point x="568.1" y="338.5" type="curve" smooth="yes"/>
      <point x="581.4" y="309.4"/>
      <point x="588.1" y="277.2"/>
      <point x="588.1" y="242.8" type="curve" smooth="yes"/>
      <point x="588.1" y="174.9"/>
      <point x="558" y="111.3"/>
      <point x="503.4" y="63.7998" type="curve" smooth="yes"/>
      <point x="478.2" y="41.9004"/>
      <point x="449.2" y="24.5996"/>
      <point x="417.2" y="12.5996" type="curve" smooth="yes"/>
      <point x="384.7" y="0.299805"/>
      <point x="350.9" y="-6"/>
    </contour>
    <contour>
      <point x="169.7" y="117.8" type="line" smooth="yes"/>
      <point x="171.9" y="116.2"/>
      <point x="174.1" y="114.7"/>
      <point x="176.3" y="113.2" type="curve" smooth="yes"/>
      <point x="221.7" y="81.9004"/>
      <point x="268.9" y="66.0996"/>
      <point x="316.6" y="66.0996" type="curve" smooth="yes"/>
      <point x="367.3" y="66.0996"/>
      <point x="418.2" y="85.0996"/>
      <point x="456.2" y="118.2" type="curve" smooth="yes"/>
      <point x="494.8" y="151.8"/>
      <point x="516.1" y="196.1"/>
      <point x="516.1" y="242.9" type="curve" smooth="yes"/>
      <point x="516.1" y="250.7"/>
      <point x="515.6" y="258.3"/>
      <point x="514.7" y="265.7" type="curve"/>
      <point x="512.2" y="262.2"/>
      <point x="509.6" y="258.8"/>
      <point x="506.9" y="255.5" type="curve" smooth="yes"/>
      <point x="488.3" y="232.6"/>
      <point x="465.6" y="214.8"/>
      <point x="439.4" y="202.5" type="curve" smooth="yes"/>
      <point x="412.1" y="189.8"/>
      <point x="381.6" y="183.3"/>
      <point x="348.5" y="183.3" type="curve" smooth="yes"/>
      <point x="328.7" y="183.3"/>
      <point x="290.5" y="186.7"/>
      <point x="256.3" y="209.2" type="curve" smooth="yes"/>
      <point x="229.8" y="226.7"/>
      <point x="198.1" y="261.2"/>
      <point x="198.1" y="325.9" type="curve" smooth="yes"/>
      <point x="198.1" y="390.6"/>
      <point x="230" y="425.1"/>
      <point x="256.7" y="442.7" type="curve" smooth="yes"/>
      <point x="292.3" y="466.1"/>
      <point x="332.7" y="468.6"/>
      <point x="348.5" y="468.6" type="curve" smooth="yes"/>
      <point x="399.4" y="468.6"/>
      <point x="447.5" y="455.2"/>
      <point x="487.1" y="430.3" type="curve"/>
      <point x="484.7" y="470.5"/>
      <point x="469.3" y="507.4"/>
      <point x="443" y="535.2" type="curve" smooth="yes"/>
      <point x="414.4" y="565.5"/>
      <point x="375.2" y="582.2"/>
      <point x="332.5" y="582.2" type="curve" smooth="yes"/>
      <point x="242.7" y="582.2"/>
      <point x="169.6" y="509.1"/>
      <point x="169.6" y="419.3" type="curve" smooth="yes"/>
      <point x="169.6" y="117.8" type="line"/>
    </contour>
    <contour>
      <point x="348.6" y="396.5" type="curve" smooth="yes"/>
      <point x="341.4" y="396.5"/>
      <point x="316.2" y="395.5"/>
      <point x="296.3" y="382.4" type="curve" smooth="yes"/>
      <point x="278.7" y="370.8"/>
      <point x="270.2" y="352.3"/>
      <point x="270.2" y="325.8" type="curve" smooth="yes"/>
      <point x="270.2" y="299.2"/>
      <point x="278.7" y="280.6"/>
      <point x="296.1" y="269.2" type="curve" smooth="yes"/>
      <point x="309.4" y="260.4"/>
      <point x="329" y="255.2"/>
      <point x="348.6" y="255.2" type="curve" smooth="yes"/>
      <point x="392.1" y="255.2"/>
      <point x="426.6" y="270.5"/>
      <point x="451" y="300.7" type="curve" smooth="yes"/>
      <point x="461.6" y="313.8"/>
      <point x="470.1" y="329.6"/>
      <point x="476.2" y="347.3" type="curve" smooth="yes"/>
      <point x="473.3" y="350.3"/>
      <point x="470.3" y="353.1"/>
      <point x="467.1" y="355.9" type="curve" smooth="yes"/>
      <point x="436.6" y="382"/>
      <point x="394.5" y="396.5"/>
    </contour>
  </outline>
</glyph>
<glyph name="f" format="2">
  <advance width="611"/>
  <unicode hex="0066"/>
  <outline>
    <contour>
      <point x="181.3" y="-4.2998" type="curve" smooth="yes"/>
      <point x="137.9" y="-4.2998"/>
      <point x="96.9004" y="11.2998"/>
      <point x="65.7998" y="39.7002" type="curve" smooth="yes"/>
      <point x="31.7002" y="70.7998"/>
      <point x="13" y="114.9"/>
      <point x="13" y="163.8" type="curve" smooth="yes"/>
      <point x="13" y="220.5"/>
      <point x="32.2002" y="268.8"/>
      <point x="70.2002" y="307.2" type="curve" smooth="yes"/>
      <point x="100" y="337.4"/>
      <point x="141.3" y="361.1"/>
      <point x="193" y="377.7" type="curve" smooth="yes"/>
      <point x="224.6" y="387.8"/>
      <point x="257.1" y="394.4"/>
      <point x="287.3" y="398.6" type="curve"/>
      <point x="287.1" y="501.6" type="line" smooth="yes"/>
      <point x="287.1" y="586.2"/>
      <point x="355.9" y="654.9"/>
      <point x="440.4" y="654.9" type="curve" smooth="yes"/>
      <point x="524.9" y="654.9"/>
      <point x="593.7" y="586.1"/>
      <point x="593.7" y="501.6" type="curve"/>
      <point x="521.7" y="501.6" type="line"/>
      <point x="521.7" y="546.5"/>
      <point x="485.2" y="582.9"/>
      <point x="440.4" y="582.9" type="curve" smooth="yes"/>
      <point x="395.6" y="582.9"/>
      <point x="359.1" y="546.4"/>
      <point x="359.1" y="501.6" type="curve" smooth="yes"/>
      <point x="359.3" y="405.3" type="line"/>
      <point x="382.1" y="406.4"/>
      <point x="400.3" y="406.4"/>
      <point x="411.1" y="406.4" type="curve" smooth="yes"/>
      <point x="549.1" y="406.4" type="line"/>
      <point x="549.1" y="334.4" type="line"/>
      <point x="411.1" y="334.4" type="line" smooth="yes"/>
      <point x="393.3" y="334.4"/>
      <point x="376.1" y="334"/>
      <point x="359.5" y="333.1" type="curve"/>
      <point x="359.8" y="206.7" type="line" smooth="yes"/>
      <point x="359.8" y="141.5"/>
      <point x="340.9" y="87"/>
      <point x="305.2" y="49" type="curve" smooth="yes"/>
      <point x="272.9" y="14.5996"/>
      <point x="228.9" y="-4.2998"/>
    </contour>
    <contour>
      <point x="287.5" y="325.8" type="line"/>
      <point x="261.1" y="321.7"/>
      <point x="236.9" y="316.1"/>
      <point x="215" y="309.1" type="curve" smooth="yes"/>
      <point x="174.5" y="296.1"/>
      <point x="143" y="278.4"/>
      <point x="121.4" y="256.6" type="curve" smooth="yes"/>
      <point x="96.9004" y="231.8"/>
      <point x="85" y="201.4"/>
      <point x="85" y="163.8" type="curve" smooth="yes"/>
      <point x="85" y="100.7"/>
      <point x="133.4" y="67.7002"/>
      <point x="181.3" y="67.7002" type="curve" smooth="yes"/>
      <point x="208.8" y="67.7002"/>
      <point x="234.2" y="78.5"/>
      <point x="252.7" y="98.2002" type="curve" smooth="yes"/>
      <point x="275.7" y="122.6"/>
      <point x="287.8" y="160.1"/>
      <point x="287.8" y="206.6" type="curve" smooth="yes"/>
    </contour>
  </outline>
</glyph>
<glyph name="h" format="2">
  <advance width="669"/>
  <unicode hex="0068"/>
  <outline>
    <contour>
      <point x="560.3" y="609" type="curve" smooth="yes"/>
      <point x="583.5" y="639.2"/>
      <point x="618" y="655.8"/>
      <point x="657.7" y="655.8" type="curve"/>
      <point x="657.7" y="583.8" type="line"/>
      <point x="640.3" y="583.8"/>
      <point x="627.2" y="577.7"/>
      <point x="617.5" y="565.1" type="curve" smooth="yes"/>
      <point x="607.1" y="551.5"/>
      <point x="601.2" y="531"/>
      <point x="600.8" y="507" type="curve" smooth="yes"/>
      <point x="600.8" y="504.4" type="line"/>
      <point x="600.8" y="168.2" type="line" smooth="yes"/>
      <point x="601.3" y="161.2"/>
      <point x="601.6" y="154.2"/>
      <point x="601.6" y="147.1" type="curve"/>
      <point x="600.8" y="147.1" type="line"/>
      <point x="600.8" y="125.5" type="line"/>
      <point x="598" y="125.5" type="line"/>
      <point x="594.6" y="104.3"/>
      <point x="588.1" y="85.0996"/>
      <point x="578.5" y="68" type="curve" smooth="yes"/>
      <point x="565" y="43.9004"/>
      <point x="545.4" y="24.5"/>
      <point x="521.9" y="11.9004" type="curve" smooth="yes"/>
      <point x="501.9" y="1.2002"/>
      <point x="479.7" y="-4.40039"/>
      <point x="457.4" y="-4.40039" type="curve" smooth="yes"/>
      <point x="456.9" y="-4.40039"/>
      <point x="456.5" y="-4.40039"/>
      <point x="456" y="-4.40039" type="curve" smooth="yes"/>
      <point x="433" y="-4.09961"/>
      <point x="411.7" y="2.09961"/>
      <point x="394.5" y="13.5" type="curve"/>
      <point x="434.4" y="73.5" type="line"/>
      <point x="445.2" y="66.2998"/>
      <point x="467.6" y="64.5"/>
      <point x="487.9" y="75.4004" type="curve" smooth="yes"/>
      <point x="514.2" y="89.5"/>
      <point x="528.7" y="120.1"/>
      <point x="528.7" y="161.5" type="curve" smooth="yes"/>
      <point x="528.7" y="165.6" type="line"/>
      <point x="524.4" y="217.4"/>
      <point x="502.2" y="265.6"/>
      <point x="465" y="302.8" type="curve" smooth="yes"/>
      <point x="423.4" y="344.4"/>
      <point x="368.1" y="367.3"/>
      <point x="309.3" y="367.3" type="curve" smooth="yes"/>
      <point x="304.4" y="367.3"/>
      <point x="299.6" y="367.1"/>
      <point x="294.8" y="366.8" type="curve"/>
      <point x="294.8" y="161.6" type="line" smooth="yes"/>
      <point x="294.8" y="125.9"/>
      <point x="287.3" y="94.4004"/>
      <point x="272.6" y="68.0996" type="curve" smooth="yes"/>
      <point x="259.1" y="44"/>
      <point x="239.5" y="24.5996"/>
      <point x="216" y="12" type="curve" smooth="yes"/>
      <point x="196" y="1.2998"/>
      <point x="173.8" y="-4.2998"/>
      <point x="151.5" y="-4.2998" type="curve" smooth="yes"/>
      <point x="151" y="-4.2998"/>
      <point x="150.6" y="-4.2998"/>
      <point x="150.1" y="-4.2998" type="curve" smooth="yes"/>
      <point x="127.1" y="-4"/>
      <point x="105.8" y="2.2002"/>
      <point x="88.5996" y="13.5996" type="curve" smooth="yes"/>
      <point x="65.5996" y="28.7998"/>
      <point x="48.7002" y="46.0996"/>
      <point x="37" y="66.2998" type="curve" smooth="yes"/>
      <point x="23.5" y="89.5"/>
      <point x="17" y="115.9"/>
      <point x="17" y="147.1" type="curve" smooth="yes"/>
      <point x="17" y="186.5"/>
      <point x="24.7998" y="224.8"/>
      <point x="40" y="260.8" type="curve" smooth="yes"/>
      <point x="54.7002" y="295.6"/>
      <point x="75.7998" y="326.9"/>
      <point x="102.6" y="353.7" type="curve" smooth="yes"/>
      <point x="129.5" y="380.5"/>
      <point x="160.7" y="401.6"/>
      <point x="195.5" y="416.3" type="curve" smooth="yes"/>
      <point x="204.4" y="420.1"/>
      <point x="213.5" y="423.4"/>
      <point x="222.7" y="426.3" type="curve"/>
      <point x="222.7" y="468.4" type="line"/>
      <point x="222.7" y="504.4" type="line" smooth="yes"/>
      <point x="222.7" y="545.9"/>
      <point x="233.7" y="582.1"/>
      <point x="254.4" y="609" type="curve" smooth="yes"/>
      <point x="277.6" y="639.2"/>
      <point x="312.1" y="655.8"/>
      <point x="351.6" y="655.8" type="curve"/>
      <point x="351.6" y="583.8" type="line"/>
      <point x="334.2" y="583.8"/>
      <point x="321.1" y="577.7"/>
      <point x="311.4" y="565.1" type="curve" smooth="yes"/>
      <point x="301" y="551.5"/>
      <point x="295.1" y="531"/>
      <point x="294.7" y="507" type="curve" smooth="yes"/>
      <point x="294.7" y="438.9" type="line"/>
      <point x="299.5" y="439.2"/>
      <point x="304.3" y="439.3"/>
      <point x="309.2" y="439.3" type="curve" smooth="yes"/>
      <point x="348.6" y="439.3"/>
      <point x="386.9" y="431.5"/>
      <point x="422.9" y="416.3" type="curve" smooth="yes"/>
      <point x="457.7" y="401.6"/>
      <point x="489" y="380.5"/>
      <point x="515.8" y="353.7" type="curve" smooth="yes"/>
      <point x="520.2" y="349.2"/>
      <point x="524.5" y="344.7"/>
      <point x="528.6" y="340" type="curve"/>
      <point x="528.6" y="468.4" type="line"/>
      <point x="528.6" y="504.4" type="line" smooth="yes"/>
      <point x="528.6" y="545.9"/>
      <point x="539.6" y="582.1"/>
    </contour>
    <contour>
      <point x="222.7" y="161.6" type="curve" smooth="yes"/>
      <point x="222.7" y="349.7" type="line"/>
      <point x="197.2" y="338.8"/>
      <point x="173.7" y="323"/>
      <point x="153.5" y="302.8" type="curve" smooth="yes"/>
      <point x="111.9" y="261.2"/>
      <point x="89" y="205.9"/>
      <point x="89" y="147.1" type="curve" smooth="yes"/>
      <point x="89" y="107.8"/>
      <point x="104.8" y="89.2998"/>
      <point x="128.4" y="73.5996" type="curve" smooth="yes"/>
      <point x="139.2" y="66.4004"/>
      <point x="161.6" y="64.5996"/>
      <point x="181.9" y="75.5" type="curve" smooth="yes"/>
      <point x="208.2" y="89.5996"/>
      <point x="222.7" y="120.2"/>
    </contour>
  </outline>
</glyph>
<glyph name="i" format="2">
  <advance width="156"/>
  <unicode hex="0069"/>
  <outline>
    <contour>
      <point x="8" y="-35" type="curve"/>
      <point x="8" y="37" type="line"/>
      <point x="24.5" y="37"/>
      <point x="37.0996" y="42.7998"/>
      <point x="46.2998" y="54.7998" type="curve" smooth="yes"/>
      <point x="56.2998" y="67.7998"/>
      <point x="62" y="87.5996"/>
      <point x="62.2998" y="110.7" type="curve" smooth="yes"/>
      <point x="62.2998" y="113.2" type="line"/>
      <point x="62.2998" y="652" type="line"/>
      <point x="134.3" y="652" type="line"/>
      <point x="134.3" y="149.2" type="line"/>
      <point x="134.3" y="113.2" type="line" smooth="yes"/>
      <point x="134.3" y="72.5996"/>
      <point x="123.6" y="37.2002"/>
      <point x="103.3" y="10.9004" type="curve" smooth="yes"/>
      <point x="80.5" y="-18.7002"/>
      <point x="46.7002" y="-35"/>
    </contour>
  </outline>
</glyph>
<glyph name="k" format="2">
  <advance width="612"/>
  <unicode hex="006B"/>
  <outline>
    <contour>
      <point x="583.7" y="126.1" type="curve" smooth="yes"/>
      <point x="599" y="57.5"/>
      <point x="598.188" y="2.2002"/>
      <point x="598.188" y="0" type="curve"/>
      <point x="565.625" y="0" type="line"/>
      <point x="562.25" y="0" type="line"/>
      <point x="526.312" y="0" type="line" smooth="yes"/>
      <point x="526.302" y="0.000976562"/>
      <point x="526.849" y="51.811"/>
      <point x="513" y="112.4" type="curve" smooth="yes"/>
      <point x="505" y="147.4"/>
      <point x="493.9" y="180.1"/>
      <point x="479.9" y="209.6" type="curve" smooth="yes"/>
      <point x="465.5" y="239.8"/>
      <point x="448.1" y="266.8"/>
      <point x="427.9" y="289.8" type="curve"/>
      <point x="366.9" y="246"/>
      <point x="292" y="221.5"/>
      <point x="204" y="216.6" type="curve"/>
      <point x="203.938" y="0" type="line"/>
      <point x="132" y="0" type="line"/>
      <point x="132" y="219.3" type="line"/>
      <point x="105.1" y="224"/>
      <point x="70.2002" y="235"/>
      <point x="44.5996" y="260.3" type="curve" smooth="yes"/>
      <point x="23.2998" y="281.3"/>
      <point x="12" y="309.2"/>
      <point x="12" y="340.8" type="curve" smooth="yes"/>
      <point x="12" y="372.4"/>
      <point x="23.2998" y="400.2"/>
      <point x="44.5996" y="421.4" type="curve" smooth="yes"/>
      <point x="70.2002" y="446.6"/>
      <point x="105.1" y="457.6"/>
      <point x="132" y="462.3" type="curve"/>
      <point x="132" y="654.7" type="line"/>
      <point x="204" y="654.7" type="line"/>
      <point x="204" y="464.9" type="line"/>
      <point x="292.5" y="459.7"/>
      <point x="368" y="433.6"/>
      <point x="429.1" y="386.7" type="curve"/>
      <point x="450.1" y="409.4"/>
      <point x="468" y="436.1"/>
      <point x="482.6" y="466.3" type="curve" smooth="yes"/>
      <point x="495.8" y="493.5"/>
      <point x="506.2" y="523.5"/>
      <point x="513.7" y="555.5" type="curve" smooth="yes"/>
      <point x="526.6" y="611"/>
      <point x="526.1" y="653.6"/>
      <point x="526.1" y="654" type="curve" smooth="yes"/>
      <point x="598.1" y="655.4" type="line" smooth="yes"/>
      <point x="598.2" y="653.4"/>
      <point x="599" y="605.2"/>
      <point x="584.4" y="541.6" type="curve" smooth="yes"/>
      <point x="575.9" y="504.2"/>
      <point x="563.7" y="468.9"/>
      <point x="548.3" y="436.7" type="curve" smooth="yes"/>
      <point x="530.4" y="399.3"/>
      <point x="508.1" y="366"/>
      <point x="481.8" y="337.6" type="curve"/>
      <point x="506.8" y="309.1"/>
      <point x="528.3" y="276.1"/>
      <point x="545.7" y="239" type="curve" smooth="yes"/>
      <point x="561.9" y="204.5"/>
      <point x="574.69" y="166.498"/>
    </contour>
    <contour>
      <point x="95.0996" y="311.6" type="curve" smooth="yes"/>
      <point x="104.3" y="302.4"/>
      <point x="118.3" y="296.7"/>
      <point x="132" y="293.1" type="curve"/>
      <point x="132" y="388.5" type="line"/>
      <point x="118.3" y="384.9"/>
      <point x="104.3" y="379.1"/>
      <point x="95.0996" y="370" type="curve" smooth="yes"/>
      <point x="87.5" y="362.5"/>
      <point x="84" y="353.2"/>
      <point x="84" y="340.8" type="curve" smooth="yes"/>
      <point x="84" y="328.4"/>
      <point x="87.5" y="319.1"/>
    </contour>
    <contour>
      <point x="204" y="288.8" type="line"/>
      <point x="269.4" y="292.9"/>
      <point x="325.7" y="309.8"/>
      <point x="372.1" y="339.1" type="curve"/>
      <point x="355.5" y="350.3"/>
      <point x="337.6" y="359.8"/>
      <point x="318.7" y="367.5" type="curve" smooth="yes"/>
      <point x="284.6" y="381.4"/>
      <point x="246.1" y="389.8"/>
      <point x="204" y="392.7" type="curve"/>
    </contour>
  </outline>
</glyph>
<glyph name="m" format="2">
  <advance width="766"/>
  <unicode hex="006D"/>
  <outline>
    <contour>
      <point x="743" y="0" type="curve"/>
      <point x="671" y="0" type="line" smooth="yes"/>
      <point x="671" y="0"/>
      <point x="672.236" y="98.3919"/>
      <point x="657.6" y="222.2" type="curve" smooth="yes"/>
      <point x="649.1" y="294.1"/>
      <point x="637.44" y="368.882"/>
      <point x="622.1" y="420.3" type="curve" smooth="yes"/>
      <point x="603.9" y="481.3"/>
      <point x="581.5" y="525.5"/>
      <point x="555.5" y="551.8" type="curve" smooth="yes"/>
      <point x="537.4" y="570.1"/>
      <point x="518.1" y="579"/>
      <point x="496.5" y="579" type="curve" smooth="yes"/>
      <point x="475.4" y="579"/>
      <point x="454.7" y="573.7"/>
      <point x="434.8" y="563.2" type="curve"/>
      <point x="442.6" y="554.1"/>
      <point x="450" y="544.3"/>
      <point x="457.1" y="533.9" type="curve" smooth="yes"/>
      <point x="500.6" y="470.3"/>
      <point x="526.5" y="388.8"/>
      <point x="526.5" y="315.9" type="curve" smooth="yes"/>
      <point x="526.5" y="267.7"/>
      <point x="515" y="226.3"/>
      <point x="493.2" y="195.9" type="curve" smooth="yes"/>
      <point x="467" y="159.4"/>
      <point x="427.6" y="140.1"/>
      <point x="379.2" y="140.1" type="curve" smooth="yes"/>
      <point x="378.9" y="140.1" type="line" smooth="yes"/>
      <point x="330.5" y="140.1"/>
      <point x="291.1" y="159.4"/>
      <point x="264.9" y="195.9" type="curve" smooth="yes"/>
      <point x="243.1" y="226.2"/>
      <point x="231.6" y="267.7"/>
      <point x="231.6" y="315.9" type="curve" smooth="yes"/>
      <point x="231.6" y="388.8"/>
      <point x="257.6" y="470.3"/>
      <point x="301" y="533.9" type="curve" smooth="yes"/>
      <point x="308.1" y="544.3"/>
      <point x="315.6" y="554.1"/>
      <point x="323.3" y="563.2" type="curve"/>
      <point x="303.4" y="573.7"/>
      <point x="282.7" y="579"/>
      <point x="261.6" y="579" type="curve" smooth="yes"/>
      <point x="240" y="579"/>
      <point x="220.7" y="570.1"/>
      <point x="202.6" y="551.8" type="curve" smooth="yes"/>
      <point x="176.7" y="525.5"/>
      <point x="154.3" y="481.3"/>
      <point x="136" y="420.3" type="curve" smooth="yes"/>
      <point x="120.6" y="368.9"/>
      <point x="108.5" y="306.4"/>
      <point x="100" y="234.4" type="curve" smooth="yes"/>
      <point x="85.7998" y="110.5"/>
      <point x="87" y="-0.299805"/>
      <point x="87" y="-0.299805" type="curve" smooth="yes"/>
      <point x="15" y="0" type="line"/>
      <point x="15" y="4.7002"/>
      <point x="13.6664" y="113.504"/>
      <point x="28.7998" y="242.1" type="curve" smooth="yes"/>
      <point x="49.7002" y="419.7"/>
      <point x="91" y="541"/>
      <point x="151.7" y="602.4" type="curve" smooth="yes"/>
      <point x="183.5" y="634.7"/>
      <point x="220.6" y="651.1"/>
      <point x="262" y="651.1" type="curve" smooth="yes"/>
      <point x="303.4" y="651.1"/>
      <point x="343.3" y="638.2"/>
      <point x="379.4" y="613.8" type="curve"/>
      <point x="415.5" y="638.2"/>
      <point x="455.4" y="651.1"/>
      <point x="496.8" y="651.1" type="curve" smooth="yes"/>
      <point x="538.1" y="651.1"/>
      <point x="575.2" y="634.7"/>
      <point x="607.1" y="602.4" type="curve" smooth="yes"/>
      <point x="667.7" y="540.9"/>
      <point x="709.418" y="419.737"/>
      <point x="730" y="242.1" type="curve" smooth="yes"/>
      <point x="744.9" y="113.5"/>
      <point x="743.1" y="4.7002"/>
    </contour>
    <contour>
      <point x="379.3" y="517.6" type="curve"/>
      <point x="372.9" y="510.1"/>
      <point x="366.7" y="502.1"/>
      <point x="360.7" y="493.4" type="curve" smooth="yes"/>
      <point x="325.6" y="442.1"/>
      <point x="303.8" y="374.1"/>
      <point x="303.8" y="316" type="curve" smooth="yes"/>
      <point x="303.8" y="283"/>
      <point x="310.6" y="256"/>
      <point x="323.6" y="238" type="curve" smooth="yes"/>
      <point x="336" y="220.6"/>
      <point x="354.2" y="212.2"/>
      <point x="379.1" y="212.2" type="curve" smooth="yes"/>
      <point x="379.4" y="212.2" type="line" smooth="yes"/>
      <point x="404.3" y="212.2"/>
      <point x="422.5" y="220.6"/>
      <point x="434.9" y="238" type="curve" smooth="yes"/>
      <point x="447.8" y="256"/>
      <point x="454.7" y="283"/>
      <point x="454.7" y="316" type="curve" smooth="yes"/>
      <point x="454.7" y="374.1"/>
      <point x="432.9" y="442.1"/>
      <point x="397.8" y="493.4" type="curve" smooth="yes"/>
      <point x="391.9" y="502.1"/>
      <point x="385.7" y="510.2"/>
    </contour>
  </outline>
</glyph>
<glyph name="n" format="2">
  <advance width="627"/>
  <unicode hex="006E"/>
  <outline>
    <contour>
      <point x="141.9" y="-5.2998" type="curve" smooth="yes"/>
      <point x="99" y="-5.2998"/>
      <point x="64.4004" y="12.4004"/>
      <point x="41.9004" y="45.7998" type="curve" smooth="yes"/>
      <point x="23.4004" y="73.2998"/>
      <point x="14" y="110.4"/>
      <point x="14" y="155.9" type="curve" smooth="yes"/>
      <point x="14" y="202.2"/>
      <point x="23.7998" y="256.2"/>
      <point x="42.5" y="312.1" type="curve" smooth="yes"/>
      <point x="59.4004" y="363"/>
      <point x="83" y="413.3"/>
      <point x="110.9" y="458.6" type="curve"/>
      <point x="67.9004" y="557.4"/>
      <point x="25.5" y="635.2"/>
      <point x="25" y="636.1" type="curve"/>
      <point x="88.0996" y="670.7" type="line"/>
      <point x="89.9004" y="667.3"/>
      <point x="122.2" y="608.3"/>
      <point x="159.4" y="526.7" type="curve"/>
      <point x="182.7" y="554.9"/>
      <point x="207.4" y="578.8"/>
      <point x="233.3" y="598.2" type="curve" smooth="yes"/>
      <point x="282" y="634.7"/>
      <point x="332.5" y="653.3"/>
      <point x="383.2" y="653.3" type="curve" smooth="yes"/>
      <point x="443.5" y="653.3"/>
      <point x="500.2" y="629.8"/>
      <point x="542.8" y="587.2" type="curve" smooth="yes"/>
      <point x="585.4" y="544.6"/>
      <point x="608.9" y="487.9"/>
      <point x="608.9" y="427.6" type="curve" smooth="yes"/>
      <point x="608.9" y="-0.799805" type="line"/>
      <point x="536.9" y="-0.799805" type="line"/>
      <point x="536.9" y="427.6" type="line" smooth="yes"/>
      <point x="536.9" y="512.4"/>
      <point x="467.9" y="581.4"/>
      <point x="383.1" y="581.4" type="curve" smooth="yes"/>
      <point x="313.3" y="581.4"/>
      <point x="245.4" y="526.3"/>
      <point x="192.2" y="451.2" type="curve"/>
      <point x="195.6" y="442.9"/>
      <point x="199" y="434.6"/>
      <point x="202.3" y="426.1" type="curve" smooth="yes"/>
      <point x="232.8" y="349.2"/>
      <point x="253.7" y="281.6"/>
      <point x="264.4" y="225.3" type="curve" smooth="yes"/>
      <point x="279.1" y="147.8"/>
      <point x="274.9" y="90.9004"/>
      <point x="251.5" y="51.4004" type="curve" smooth="yes"/>
      <point x="236.3" y="25.5"/>
      <point x="204.8" y="-5.2998"/>
    </contour>
    <contour>
      <point x="145.7" y="373.2" type="curve"/>
      <point x="108.7" y="299.7"/>
      <point x="86" y="219.5"/>
      <point x="86" y="155.9" type="curve" smooth="yes"/>
      <point x="86" y="125.3"/>
      <point x="91.4004" y="101.1"/>
      <point x="101.7" y="85.9004" type="curve" smooth="yes"/>
      <point x="110.7" y="72.5996"/>
      <point x="123.1" y="66.5996"/>
      <point x="141.9" y="66.5996" type="curve" smooth="yes"/>
      <point x="173" y="66.5996"/>
      <point x="183.8" y="78.0996"/>
      <point x="189.7" y="88.0996" type="curve" smooth="yes"/>
      <point x="199.2" y="104.1"/>
      <point x="207.6" y="138.6"/>
      <point x="193.8" y="211.6" type="curve" smooth="yes"/>
      <point x="185.2" y="257.1"/>
      <point x="169" y="311.4"/>
    </contour>
  </outline>
</glyph>
<glyph name="o" format="2">
  <advance width="705"/>
  <unicode hex="006F"/>
  <outline>
    <contour>
      <point x="352" y="-4" type="curve" smooth="yes"/>
      <point x="307.5" y="-4"/>
      <point x="264.2" y="4.7002"/>
      <point x="223.5" y="22" type="curve" smooth="yes"/>
      <point x="184.2" y="38.5996"/>
      <point x="148.9" y="62.4004"/>
      <point x="118.6" y="92.7002" type="curve" smooth="yes"/>
      <point x="88.4004" y="123"/>
      <point x="64.5996" y="158.2"/>
      <point x="48" y="197.6" type="curve" smooth="yes"/>
      <point x="30.7002" y="238.3"/>
      <point x="22" y="281.5"/>
      <point x="22" y="326" type="curve" smooth="yes"/>
      <point x="22" y="406.5"/>
      <point x="51.2998" y="484.1"/>
      <point x="104.6" y="544.4" type="curve"/>
      <point x="158.6" y="496.7" type="line"/>
      <point x="116.9" y="449.6"/>
      <point x="94" y="389"/>
      <point x="94" y="326" type="curve" smooth="yes"/>
      <point x="94" y="257.1"/>
      <point x="120.8" y="192.3"/>
      <point x="169.6" y="143.5" type="curve" smooth="yes"/>
      <point x="218.3" y="94.7998"/>
      <point x="283.1" y="68"/>
      <point x="352" y="68" type="curve" smooth="yes"/>
      <point x="420.9" y="68"/>
      <point x="485.7" y="94.7998"/>
      <point x="534.5" y="143.6" type="curve" smooth="yes"/>
      <point x="583.2" y="192.3"/>
      <point x="610.1" y="257.1"/>
      <point x="610.1" y="326.1" type="curve" smooth="yes"/>
      <point x="610.1" y="395"/>
      <point x="583.3" y="459.8"/>
      <point x="534.5" y="508.6" type="curve" smooth="yes"/>
      <point x="485.8" y="557.2"/>
      <point x="421" y="584.1"/>
      <point x="352" y="584.1" type="curve" smooth="yes"/>
      <point x="317.8" y="584.1"/>
      <point x="274.5" y="571"/>
      <point x="255.8" y="534.3" type="curve" smooth="yes"/>
      <point x="245.9" y="514.9"/>
      <point x="246.9" y="494.6"/>
      <point x="258.5" y="478.6" type="curve" smooth="yes"/>
      <point x="269.3" y="463.8"/>
      <point x="288.7" y="452.5"/>
      <point x="314.7" y="445.8" type="curve" smooth="yes"/>
      <point x="349.6" y="436.9"/>
      <point x="394.2" y="436.6"/>
      <point x="447.1" y="445" type="curve"/>
      <point x="458.4" y="373.9" type="line"/>
      <point x="292.3" y="347.6"/>
      <point x="225.4" y="401.7"/>
      <point x="200.3" y="436.2" type="curve" smooth="yes"/>
      <point x="172.6" y="474.3"/>
      <point x="169.4" y="523.2"/>
      <point x="191.7" y="566.9" type="curve" smooth="yes"/>
      <point x="205" y="593.1"/>
      <point x="226.5" y="615.2"/>
      <point x="253.6" y="630.9" type="curve" smooth="yes"/>
      <point x="282" y="647.3"/>
      <point x="316.1" y="656"/>
      <point x="352" y="656" type="curve" smooth="yes"/>
      <point x="396.5" y="656"/>
      <point x="439.8" y="647.3"/>
      <point x="480.5" y="630" type="curve" smooth="yes"/>
      <point x="519.8" y="613.4"/>
      <point x="555.1" y="589.6"/>
      <point x="585.4" y="559.3" type="curve" smooth="yes"/>
      <point x="615.7" y="529"/>
      <point x="639.5" y="493.7"/>
      <point x="656.1" y="454.4" type="curve" smooth="yes"/>
      <point x="673.3" y="413.7"/>
      <point x="682.1" y="370.5"/>
      <point x="682.1" y="325.9" type="curve" smooth="yes"/>
      <point x="682.1" y="281.4"/>
      <point x="673.4" y="238.1"/>
      <point x="656.1" y="197.4" type="curve" smooth="yes"/>
      <point x="639.5" y="158.1"/>
      <point x="615.7" y="122.8"/>
      <point x="585.4" y="92.5" type="curve" smooth="yes"/>
      <point x="555.1" y="62.2002"/>
      <point x="519.8" y="38.4004"/>
      <point x="480.5" y="21.7998" type="curve" smooth="yes"/>
      <point x="439.8" y="4.7002"/>
      <point x="396.6" y="-4"/>
    </contour>
  </outline>
</glyph>
<glyph name="p" format="2">
  <advance width="618"/>
  <unicode hex="0070"/>
  <outline>
    <contour>
      <point x="88" y="-0" type="line"/>
      <point x="16" y="0" type="line"/>
      <point x="16" y="282.4" type="line" smooth="yes"/>
      <point x="16" y="339.012"/>
      <point x="28.5" y="402.4"/>
      <point x="50.5996" y="456.7" type="curve"/>
      <point x="18.5" y="555.9"/>
      <point x="16.0088" y="650.81"/>
      <point x="15.9092" y="654.909" type="curve"/>
      <point x="70.25" y="654.625" type="line"/>
      <point x="80.625" y="654.625" type="line"/>
      <point x="88" y="654.6" type="line"/>
      <point x="88" y="653.9"/>
      <point x="89.2998" y="606.9"/>
      <point x="101.5" y="546.5" type="curve"/>
      <point x="124.4" y="576"/>
      <point x="151.1" y="600.1"/>
      <point x="181.1" y="618.2" type="curve" smooth="yes"/>
      <point x="225.2" y="645"/>
      <point x="276" y="658.5"/>
      <point x="332" y="658.5" type="curve" smooth="yes"/>
      <point x="404.7" y="658.5"/>
      <point x="466.3" y="634.6"/>
      <point x="510.1" y="589.4" type="curve" smooth="yes"/>
      <point x="530" y="568.9"/>
      <point x="545.4" y="544.8"/>
      <point x="555.8" y="517.7" type="curve" smooth="yes"/>
      <point x="565.8" y="491.8"/>
      <point x="570.9" y="464.5"/>
      <point x="570.9" y="436.3" type="curve" smooth="yes"/>
      <point x="570.9" y="408.1"/>
      <point x="565.8" y="380.7"/>
      <point x="555.8" y="354.8" type="curve" smooth="yes"/>
      <point x="545.3" y="327.7"/>
      <point x="529.9" y="303.6"/>
      <point x="510" y="283" type="curve" smooth="yes"/>
      <point x="479.4" y="251.4"/>
      <point x="423.7" y="213.7"/>
      <point x="332" y="213.7" type="curve" smooth="yes"/>
      <point x="260.4" y="213.7"/>
      <point x="198.8" y="238.4"/>
      <point x="148.7" y="287" type="curve" smooth="yes"/>
      <point x="128.9" y="306.2"/>
      <point x="111.1" y="329.2"/>
      <point x="95.2998" y="355.6" type="curve"/>
      <point x="90.5" y="330.8"/>
      <point x="87.9004" y="305.045"/>
      <point x="87.9004" y="282.4" type="curve" smooth="yes"/>
      <point x="87.9004" y="6.63672" type="line"/>
    </contour>
    <contour>
      <point x="128" y="453.6" type="curve"/>
      <point x="146.7" y="404.7"/>
      <point x="170.7" y="365.9"/>
      <point x="199.4" y="338.2" type="curve" smooth="yes"/>
      <point x="235.9" y="302.9"/>
      <point x="279.3" y="285.7"/>
      <point x="332" y="285.7" type="curve" smooth="yes"/>
      <point x="384.6" y="285.7"/>
      <point x="428.3" y="302.1"/>
      <point x="458.2" y="333.1" type="curve" smooth="yes"/>
      <point x="484.4" y="360.2"/>
      <point x="498.9" y="396.9"/>
      <point x="498.9" y="436.4" type="curve" smooth="yes"/>
      <point x="498.9" y="475.8"/>
      <point x="484.5" y="512.4"/>
      <point x="458.4" y="539.3" type="curve" smooth="yes"/>
      <point x="428.5" y="570.2"/>
      <point x="384.8" y="586.5"/>
      <point x="332" y="586.5" type="curve" smooth="yes"/>
      <point x="251.3" y="586.5"/>
      <point x="188" y="551.2"/>
      <point x="143.7" y="481.4" type="curve" smooth="yes"/>
      <point x="138.1" y="472.6"/>
      <point x="132.8" y="463.3"/>
    </contour>
  </outline>
</glyph>
<glyph name="q" format="2">
  <advance width="692"/>
  <unicode hex="0071"/>
  <outline>
    <contour>
      <point x="624.2" y="-34.7002" type="line"/>
      <point x="621.1" y="-34.5996"/>
      <point x="548.6" y="-32.2002"/>
      <point x="470.5" y="-10.5" type="curve" smooth="yes"/>
      <point x="455" y="-6.2002"/>
      <point x="440.3" y="-1.40039"/>
      <point x="426.5" y="3.7998" type="curve"/>
      <point x="403.3" y="-1"/>
      <point x="376" y="-4"/>
      <point x="343.8" y="-4" type="curve" smooth="yes"/>
      <point x="299.3" y="-4"/>
      <point x="256.1" y="4.7002"/>
      <point x="215.4" y="21.9004" type="curve" smooth="yes"/>
      <point x="176.1" y="38.5"/>
      <point x="140.9" y="62.2998"/>
      <point x="110.6" y="92.5996" type="curve" smooth="yes"/>
      <point x="80.2998" y="122.9"/>
      <point x="56.5996" y="158.1"/>
      <point x="39.9004" y="197.4" type="curve" smooth="yes"/>
      <point x="22.7002" y="238"/>
      <point x="14" y="281.2"/>
      <point x="14" y="325.7" type="curve" smooth="yes"/>
      <point x="14" y="370.2"/>
      <point x="22.7002" y="413.4"/>
      <point x="39.9004" y="454.1" type="curve" smooth="yes"/>
      <point x="56.5" y="493.4"/>
      <point x="80.2998" y="528.6"/>
      <point x="110.6" y="558.9" type="curve" smooth="yes"/>
      <point x="140.9" y="589.2"/>
      <point x="176.1" y="612.9"/>
      <point x="215.4" y="629.6" type="curve" smooth="yes"/>
      <point x="256.1" y="646.8"/>
      <point x="299.3" y="655.5"/>
      <point x="343.8" y="655.5" type="curve" smooth="yes"/>
      <point x="388.3" y="655.5"/>
      <point x="431.5" y="646.8"/>
      <point x="472.2" y="629.6" type="curve" smooth="yes"/>
      <point x="511.5" y="613"/>
      <point x="546.7" y="589.2"/>
      <point x="577" y="558.9" type="curve" smooth="yes"/>
      <point x="607.3" y="528.6"/>
      <point x="631" y="493.4"/>
      <point x="647.7" y="454.1" type="curve" smooth="yes"/>
      <point x="664.9" y="413.4"/>
      <point x="673.6" y="370.2"/>
      <point x="673.6" y="325.7" type="curve" smooth="yes"/>
      <point x="673.6" y="302.5"/>
      <point x="671.2" y="279.3"/>
      <point x="666.4" y="256.8" type="curve"/>
      <point x="596" y="271.8" type="line"/>
      <point x="599.7" y="289.4"/>
      <point x="601.6" y="307.6"/>
      <point x="601.6" y="325.8" type="curve" smooth="yes"/>
      <point x="601.6" y="394.6"/>
      <point x="574.8" y="459.4"/>
      <point x="526.1" y="508.1" type="curve" smooth="yes"/>
      <point x="477.4" y="556.8"/>
      <point x="412.7" y="583.6"/>
      <point x="343.8" y="583.6" type="curve" smooth="yes"/>
      <point x="274.9" y="583.6"/>
      <point x="210.2" y="556.7"/>
      <point x="161.5" y="508" type="curve" smooth="yes"/>
      <point x="112.8" y="459.3"/>
      <point x="86" y="394.6"/>
      <point x="86" y="325.7" type="curve" smooth="yes"/>
      <point x="86" y="256.8"/>
      <point x="112.8" y="192.1"/>
      <point x="161.5" y="143.4" type="curve" smooth="yes"/>
      <point x="204.4" y="100.5"/>
      <point x="259.7" y="74.5996"/>
      <point x="319.3" y="69" type="curve"/>
      <point x="296" y="92.5996"/>
      <point x="280.6" y="119.7"/>
      <point x="273.5" y="150" type="curve" smooth="yes"/>
      <point x="265.9" y="182.2"/>
      <point x="266.9" y="213.2"/>
      <point x="276.5" y="242" type="curve" smooth="yes"/>
      <point x="285.3" y="268.5"/>
      <point x="301.5" y="292.2"/>
      <point x="323.2" y="310.7" type="curve" smooth="yes"/>
      <point x="370.6" y="351"/>
      <point x="438" y="361.6"/>
      <point x="495" y="337.9" type="curve" smooth="yes"/>
      <point x="522.4" y="326.5"/>
      <point x="545.1" y="309.7"/>
      <point x="562.5" y="287.8" type="curve" smooth="yes"/>
      <point x="579" y="267.1"/>
      <point x="590.1" y="242.3"/>
      <point x="594.6" y="216.1" type="curve" smooth="yes"/>
      <point x="604.2" y="159.7"/>
      <point x="583.2" y="101.6"/>
      <point x="538.3" y="60" type="curve" smooth="yes"/>
      <point x="536" y="57.4004"/>
      <point x="532.7" y="53.7002"/>
      <point x="527.9" y="49.5" type="curve"/>
      <point x="581.7" y="38.5996"/>
      <point x="625.8" y="37"/>
      <point x="626.4" y="37" type="curve"/>
    </contour>
    <contour>
      <point x="432" y="278.5" type="curve" smooth="yes"/>
      <point x="426.7" y="278.5"/>
      <point x="421.3" y="278.1"/>
      <point x="416" y="277.1" type="curve" smooth="yes"/>
      <point x="398.8" y="274.2"/>
      <point x="382.8" y="266.9"/>
      <point x="369.9" y="255.9" type="curve" smooth="yes"/>
      <point x="355.2" y="243.4"/>
      <point x="332.1" y="215.1"/>
      <point x="343.6" y="166.7" type="curve" smooth="yes"/>
      <point x="349.6" y="141.5"/>
      <point x="365.7" y="120.1"/>
      <point x="393" y="101.1" type="curve" smooth="yes"/>
      <point x="404.3" y="93.2002"/>
      <point x="417.4" y="85.9004"/>
      <point x="432.1" y="79.2998" type="curve"/>
      <point x="441.4" y="82.0996"/>
      <point x="449" y="85.0996"/>
      <point x="455.1" y="87.9004" type="curve" smooth="yes"/>
      <point x="472.9" y="96.0996"/>
      <point x="481.215" y="104.469"/>
      <point x="483.1" y="106.4" type="curve" smooth="yes"/>
      <point x="484.83" y="108.104"/>
      <point x="486.464" y="109.903"/>
      <point x="488" y="111.8" type="curve" smooth="yes"/>
      <point x="515.9" y="136.9"/>
      <point x="529.2" y="171.4"/>
      <point x="523.6" y="204.2" type="curve" smooth="yes"/>
      <point x="521.2" y="218.4"/>
      <point x="515.2" y="231.8"/>
      <point x="506.2" y="243" type="curve" smooth="yes"/>
      <point x="496.4" y="255.3"/>
      <point x="483.3" y="264.9"/>
      <point x="467.2" y="271.6" type="curve" smooth="yes"/>
      <point x="456.1" y="276.1"/>
      <point x="444.2" y="278.5"/>
    </contour>
  </outline>
</glyph>
<glyph name="r" format="2">
  <advance width="620"/>
  <unicode hex="0072"/>
  <outline>
    <contour>
      <point x="139.5" y="-4.2002" type="curve" smooth="yes"/>
      <point x="96.7002" y="-4.2002"/>
      <point x="62.2002" y="13.4004"/>
      <point x="39.7998" y="46.7998" type="curve" smooth="yes"/>
      <point x="21.4004" y="74.2002"/>
      <point x="12" y="111.1"/>
      <point x="12" y="156.6" type="curve" smooth="yes"/>
      <point x="12" y="202.7"/>
      <point x="21.7998" y="256.5"/>
      <point x="40.4004" y="312.2" type="curve" smooth="yes"/>
      <point x="57.2998" y="362.9"/>
      <point x="80.7002" y="413"/>
      <point x="108.5" y="458.2" type="curve"/>
      <point x="65.7002" y="556.6"/>
      <point x="23.5" y="634"/>
      <point x="23" y="635" type="curve" smooth="yes"/>
      <point x="86.0996" y="669.6" type="line"/>
      <point x="87.9004" y="666.2"/>
      <point x="120" y="607.5"/>
      <point x="157" y="526.4" type="curve"/>
      <point x="180.2" y="554.4"/>
      <point x="204.8" y="578.2"/>
      <point x="230.5" y="597.5" type="curve" smooth="yes"/>
      <point x="279" y="633.9"/>
      <point x="329.3" y="652.4"/>
      <point x="380" y="652.4" type="curve" smooth="yes"/>
      <point x="440.1" y="652.4"/>
      <point x="496.6" y="629"/>
      <point x="539.1" y="586.5" type="curve" smooth="yes"/>
      <point x="581.6" y="544"/>
      <point x="605" y="487.5"/>
      <point x="605" y="427.4" type="curve"/>
      <point x="533" y="427.4" type="line"/>
      <point x="533" y="511.8"/>
      <point x="464.3" y="580.5"/>
      <point x="380" y="580.5" type="curve" smooth="yes"/>
      <point x="345.3" y="580.5"/>
      <point x="309.5" y="566.9"/>
      <point x="273.7" y="540" type="curve" smooth="yes"/>
      <point x="244.6" y="518.2"/>
      <point x="215.9" y="487.6"/>
      <point x="189.9" y="450.9" type="curve"/>
      <point x="193.3" y="442.7"/>
      <point x="196.7" y="434.3"/>
      <point x="200" y="425.9" type="curve" smooth="yes"/>
      <point x="230.4" y="349.2"/>
      <point x="251.3" y="281.9"/>
      <point x="261.9" y="225.8" type="curve" smooth="yes"/>
      <point x="276.6" y="148.5"/>
      <point x="272.4" y="91.7998"/>
      <point x="249.1" y="52.5" type="curve" smooth="yes"/>
      <point x="233.7" y="26.5"/>
      <point x="202.3" y="-4.2002"/>
    </contour>
    <contour>
      <point x="143.3" y="372.8" type="curve"/>
      <point x="106.4" y="299.2"/>
      <point x="84" y="219.3"/>
      <point x="84" y="156.6" type="curve" smooth="yes"/>
      <point x="84" y="126.2"/>
      <point x="89.4004" y="102.1"/>
      <point x="99.5996" y="87" type="curve" smooth="yes"/>
      <point x="108.5" y="73.7002"/>
      <point x="120.8" y="67.7998"/>
      <point x="139.6" y="67.7998" type="curve" smooth="yes"/>
      <point x="170.5" y="67.7998"/>
      <point x="181.3" y="79.2002"/>
      <point x="187.1" y="89.0996" type="curve" smooth="yes"/>
      <point x="196.6" y="105.1"/>
      <point x="204.9" y="139.3"/>
      <point x="191.2" y="212" type="curve" smooth="yes"/>
      <point x="182.6" y="257.3"/>
      <point x="166.5" y="311.3"/>
    </contour>
  </outline>
</glyph>
<glyph name="t" format="2">
  <advance width="652"/>
  <unicode hex="0074"/>
  <outline>
    <contour>
      <point x="357.3" y="-0.599609" type="line"/>
      <point x="285.3" y="-0.599609" type="line"/>
      <point x="285.3" y="338.1" type="line" smooth="yes"/>
      <point x="285.3" y="364.6"/>
      <point x="287" y="390"/>
      <point x="290.3" y="413.9" type="curve"/>
      <point x="274.2" y="418.3"/>
      <point x="258.1" y="423.8"/>
      <point x="242" y="430.3" type="curve" smooth="yes"/>
      <point x="202.1" y="446.3"/>
      <point x="162" y="468.6"/>
      <point x="122.8" y="496.5" type="curve" smooth="yes"/>
      <point x="56.5996" y="543.5"/>
      <point x="15.7002" y="590.5"/>
      <point x="14" y="592.5" type="curve" smooth="yes"/>
      <point x="41.2998" y="616" type="line"/>
      <point x="68.5" y="639.5" type="line" smooth="yes"/>
      <point x="68.9004" y="639.1"/>
      <point x="106.4" y="596.1"/>
      <point x="166" y="553.9" type="curve" smooth="yes"/>
      <point x="200.4" y="529.6"/>
      <point x="235.3" y="510.3"/>
      <point x="269.7" y="496.5" type="curve" smooth="yes"/>
      <point x="281.9" y="491.6"/>
      <point x="294.1" y="487.4"/>
      <point x="306.3" y="484" type="curve"/>
      <point x="316.7" y="515.8"/>
      <point x="331" y="543.8"/>
      <point x="348.8" y="567.3" type="curve" smooth="yes"/>
      <point x="369.6" y="594.8"/>
      <point x="394.9" y="616.1"/>
      <point x="424" y="630.5" type="curve" smooth="yes"/>
      <point x="452.7" y="644.7"/>
      <point x="484.4" y="651.9"/>
      <point x="518.3" y="651.9" type="curve" smooth="yes"/>
      <point x="551.9" y="651.9"/>
      <point x="581.2" y="641.9"/>
      <point x="603" y="623" type="curve" smooth="yes"/>
      <point x="625.1" y="603.8"/>
      <point x="637.3" y="577.3"/>
      <point x="637.3" y="548.4" type="curve" smooth="yes"/>
      <point x="637.3" y="508"/>
      <point x="613.5" y="469.4"/>
      <point x="572" y="442.4" type="curve" smooth="yes"/>
      <point x="550.9" y="428.7"/>
      <point x="525.4" y="418"/>
      <point x="496.4" y="410.8" type="curve" smooth="yes"/>
      <point x="465.7" y="403.1"/>
      <point x="430.9" y="399.3"/>
      <point x="392.9" y="399.3" type="curve" smooth="yes"/>
      <point x="382.4" y="399.3"/>
      <point x="371.8" y="399.8"/>
      <point x="361.2" y="400.7" type="curve"/>
      <point x="358.6" y="381"/>
      <point x="357.3" y="360.1"/>
      <point x="357.3" y="337.9" type="curve" smooth="yes"/>
    </contour>
    <contour>
      <point x="378.2" y="471.8" type="curve"/>
      <point x="383.1" y="471.5"/>
      <point x="388" y="471.4"/>
      <point x="392.9" y="471.4" type="curve" smooth="yes"/>
      <point x="468.4" y="471.4"/>
      <point x="510.6" y="488.5"/>
      <point x="532.8" y="502.9" type="curve" smooth="yes"/>
      <point x="553.2" y="516.1"/>
      <point x="565.3" y="533.2"/>
      <point x="565.3" y="548.5" type="curve" smooth="yes"/>
      <point x="565.3" y="567.3"/>
      <point x="546.4" y="580"/>
      <point x="518.3" y="580" type="curve" smooth="yes"/>
      <point x="495.6" y="580"/>
      <point x="474.6" y="575.3"/>
      <point x="455.9" y="566.1" type="curve" smooth="yes"/>
      <point x="436.9" y="556.7"/>
      <point x="420.2" y="542.6"/>
      <point x="406.2" y="524.1" type="curve" smooth="yes"/>
      <point x="395" y="509.2"/>
      <point x="385.7" y="491.7"/>
    </contour>
  </outline>
</glyph>
<glyph name="u" format="2">
  <advance width="622"/>
  <unicode hex="0075"/>
  <outline>
    <contour>
      <point x="534.9" y="-20.4004" type="line"/>
      <point x="533.1" y="-17"/>
      <point x="501" y="41.7002"/>
      <point x="464" y="122.8" type="curve"/>
      <point x="440.8" y="94.7998"/>
      <point x="416.2" y="71"/>
      <point x="390.5" y="51.7002" type="curve" smooth="yes"/>
      <point x="342" y="15.2998"/>
      <point x="291.7" y="-3.2002"/>
      <point x="241" y="-3.2002" type="curve" smooth="yes"/>
      <point x="180.9" y="-3.2002"/>
      <point x="124.4" y="20.2002"/>
      <point x="81.9004" y="62.7002" type="curve" smooth="yes"/>
      <point x="39.4004" y="105.2"/>
      <point x="16" y="161.7"/>
      <point x="16" y="221.8" type="curve" smooth="yes"/>
      <point x="16" y="652.6" type="line"/>
      <point x="88" y="652.6" type="line"/>
      <point x="88" y="221.8" type="line" smooth="yes"/>
      <point x="88" y="137.4"/>
      <point x="156.7" y="68.7002"/>
      <point x="241.1" y="68.7002" type="curve" smooth="yes"/>
      <point x="275.8" y="68.7002"/>
      <point x="311.6" y="82.2998"/>
      <point x="347.4" y="109.2" type="curve" smooth="yes"/>
      <point x="376.5" y="131"/>
      <point x="405.2" y="161.6"/>
      <point x="431.2" y="198.3" type="curve"/>
      <point x="427.8" y="206.5"/>
      <point x="424.4" y="214.9"/>
      <point x="421.1" y="223.3" type="curve" smooth="yes"/>
      <point x="390.7" y="300"/>
      <point x="369.8" y="367.3"/>
      <point x="359.2" y="423.4" type="curve" smooth="yes"/>
      <point x="344.5" y="500.7"/>
      <point x="348.7" y="557.4"/>
      <point x="372" y="596.7" type="curve" smooth="yes"/>
      <point x="387.3" y="622.5"/>
      <point x="418.7" y="653.3"/>
      <point x="481.5" y="653.3" type="curve" smooth="yes"/>
      <point x="524.3" y="653.3"/>
      <point x="558.8" y="635.7"/>
      <point x="581.2" y="602.3" type="curve" smooth="yes"/>
      <point x="599.7" y="574.8"/>
      <point x="609" y="537.9"/>
      <point x="609" y="492.5" type="curve" smooth="yes"/>
      <point x="609" y="446.4"/>
      <point x="599.2" y="392.6"/>
      <point x="580.6" y="336.9" type="curve" smooth="yes"/>
      <point x="563.7" y="286.2"/>
      <point x="540.3" y="236.1"/>
      <point x="512.5" y="191" type="curve"/>
      <point x="555.3" y="92.5"/>
      <point x="597.5" y="15.2002"/>
      <point x="598" y="14.2002" type="curve" smooth="yes"/>
    </contour>
    <contour>
      <point x="481.5" y="581.3" type="curve" smooth="yes"/>
      <point x="450.6" y="581.3"/>
      <point x="439.8" y="569.9"/>
      <point x="434" y="560" type="curve" smooth="yes"/>
      <point x="424.5" y="544"/>
      <point x="416.1" y="509.7"/>
      <point x="430" y="436.8" type="curve" smooth="yes"/>
      <point x="438.6" y="391.6"/>
      <point x="454.7" y="337.7"/>
      <point x="477.8" y="276.3" type="curve"/>
      <point x="514.7" y="349.9"/>
      <point x="537.1" y="429.8"/>
      <point x="537.1" y="492.5" type="curve" smooth="yes"/>
      <point x="537.1" y="522.9"/>
      <point x="531.7" y="547"/>
      <point x="521.5" y="562.1" type="curve" smooth="yes"/>
      <point x="512.5" y="575.4"/>
      <point x="500.2" y="581.3"/>
    </contour>
  </outline>
</glyph>
<glyph name="v" format="2">
  <advance width="642"/>
  <unicode hex="0076"/>
  <outline>
    <contour>
      <point x="367.3" y="268.1" type="curve"/>
      <point x="398" y="224.8"/>
      <point x="417.9" y="184.4"/>
      <point x="426.7" y="148" type="curve" smooth="yes"/>
      <point x="435.2" y="111.8"/>
      <point x="432.6" y="78.7998"/>
      <point x="419" y="52.2998" type="curve" smooth="yes"/>
      <point x="409.6" y="34.0996"/>
      <point x="395.2" y="19.2998"/>
      <point x="377.3" y="9.40039" type="curve" smooth="yes"/>
      <point x="361.1" y="0.5"/>
      <point x="342.5" y="-4.2002"/>
      <point x="323.3" y="-4.2002" type="curve" smooth="yes"/>
      <point x="304.1" y="-4.2002"/>
      <point x="285.4" y="0.5"/>
      <point x="269.3" y="9.40039" type="curve" smooth="yes"/>
      <point x="251.4" y="19.2998"/>
      <point x="236.9" y="34.0996"/>
      <point x="227.6" y="52.2998" type="curve" smooth="yes"/>
      <point x="214" y="78.7002"/>
      <point x="211.3" y="111.8"/>
      <point x="219.9" y="148" type="curve" smooth="yes"/>
      <point x="228.5" y="184.4"/>
      <point x="248.4" y="224.8"/>
      <point x="279.1" y="268.1" type="curve"/>
      <point x="215.6" y="358.7"/>
      <point x="92" y="538.5"/>
      <point x="14" y="652.2" type="curve"/>
      <point x="101.3" y="652.2" type="line"/>
      <point x="172.1" y="549.2"/>
      <point x="265" y="414.1"/>
      <point x="323.2" y="330.8" type="curve"/>
      <point x="380.7" y="413.6"/>
      <point x="472.8" y="548"/>
      <point x="544" y="652.2" type="curve"/>
      <point x="631.2" y="652.2" type="line"/>
      <point x="551.9" y="536.1"/>
      <point x="430.2" y="358.2"/>
    </contour>
    <contour>
      <point x="354.8" y="85.0996" type="curve" smooth="yes"/>
      <point x="359.7" y="94.7002"/>
      <point x="370.4" y="129.6"/>
      <point x="323.2" y="204.6" type="curve"/>
      <point x="276" y="129.6"/>
      <point x="286.7" y="94.5996"/>
      <point x="291.6" y="85.0996" type="curve" smooth="yes"/>
      <point x="299.7" y="69.4004"/>
      <point x="316.4" y="67.7002"/>
      <point x="323.2" y="67.7002" type="curve" smooth="yes"/>
      <point x="330" y="67.7002"/>
      <point x="346.7" y="69.4004"/>
    </contour>
  </outline>
</glyph>
<glyph name="w" format="2">
  <advance width="760"/>
  <unicode hex="0077"/>
  <outline>
    <contour>
      <point x="496.7" y="-3.7002" type="curve" smooth="yes"/>
      <point x="455.3" y="-3.7002"/>
      <point x="415.4" y="9.2002"/>
      <point x="379.3" y="33.5996" type="curve"/>
      <point x="343.2" y="9.2002"/>
      <point x="303.3" y="-3.7002"/>
      <point x="261.9" y="-3.7002" type="curve" smooth="yes"/>
      <point x="220.8" y="-3.7002"/>
      <point x="183.8" y="12.5996"/>
      <point x="152.1" y="44.7998" type="curve" smooth="yes"/>
      <point x="91.2998" y="106.5"/>
      <point x="49.7998" y="228.6"/>
      <point x="28.7998" y="407.8" type="curve" smooth="yes"/>
      <point x="13.7002" y="537.5"/>
      <point x="15" y="648.7"/>
      <point x="15.0996" y="653.4" type="curve"/>
      <point x="27.0256" y="653.16"/>
      <point x="38.9476" y="652.915"/>
      <point x="51.0996" y="652.9" type="curve" smooth="yes"/>
      <point x="87.0996" y="652.4" type="line" smooth="yes"/>
      <point x="87.0996" y="651.3"/>
      <point x="85.7998" y="540.5"/>
      <point x="100.5" y="415.3" type="curve" smooth="yes"/>
      <point x="109" y="342.7"/>
      <point x="121.2" y="279.5"/>
      <point x="136.6" y="227.7" type="curve" smooth="yes"/>
      <point x="154.9" y="166.2"/>
      <point x="177.4" y="121.6"/>
      <point x="203.4" y="95.2002" type="curve" smooth="yes"/>
      <point x="221.3" y="77"/>
      <point x="240.5" y="68.2002"/>
      <point x="261.9" y="68.2002" type="curve" smooth="yes"/>
      <point x="283" y="68.2002"/>
      <point x="303.7" y="73.5"/>
      <point x="323.6" y="84" type="curve"/>
      <point x="315.8" y="93.0996"/>
      <point x="308.4" y="102.9"/>
      <point x="301.3" y="113.3" type="curve" smooth="yes"/>
      <point x="257.8" y="176.9"/>
      <point x="231.9" y="258.4"/>
      <point x="231.9" y="331.3" type="curve" smooth="yes"/>
      <point x="231.9" y="379.5"/>
      <point x="243.4" y="420.9"/>
      <point x="265.2" y="451.3" type="curve" smooth="yes"/>
      <point x="317.869" y="524.674"/>
      <point x="440.642" y="524.938"/>
      <point x="493.5" y="451.3" type="curve" smooth="yes"/>
      <point x="515.3" y="421"/>
      <point x="526.8" y="379.5"/>
      <point x="526.8" y="331.3" type="curve" smooth="yes"/>
      <point x="526.8" y="258.4"/>
      <point x="500.8" y="176.9"/>
      <point x="457.4" y="113.3" type="curve" smooth="yes"/>
      <point x="450.3" y="102.9"/>
      <point x="442.8" y="93.0996"/>
      <point x="435.1" y="84" type="curve"/>
      <point x="455" y="73.5"/>
      <point x="475.7" y="68.2002"/>
      <point x="496.8" y="68.2002" type="curve" smooth="yes"/>
      <point x="518.2" y="68.2002"/>
      <point x="537.4" y="77"/>
      <point x="555.3" y="95.2002" type="curve" smooth="yes"/>
      <point x="581.4" y="121.6"/>
      <point x="603.9" y="166.3"/>
      <point x="622.2" y="228" type="curve" smooth="yes"/>
      <point x="637.6" y="280"/>
      <point x="649.8" y="343.2"/>
      <point x="658.3" y="416" type="curve" smooth="yes"/>
      <point x="672.9" y="541.1"/>
      <point x="671.6" y="651.2"/>
      <point x="671.6" y="652.3" type="curve" smooth="yes"/>
      <point x="743.6" y="653.3" type="line"/>
      <point x="743.7" y="648.6"/>
      <point x="745" y="537.4"/>
      <point x="729.8" y="407.7" type="curve" smooth="yes"/>
      <point x="708.8" y="228.5"/>
      <point x="667.4" y="106.3"/>
      <point x="606.5" y="44.7002" type="curve" smooth="yes"/>
      <point x="574.7" y="12.5996"/>
      <point x="537.8" y="-3.7002"/>
    </contour>
    <contour>
      <point x="323.6" y="409.4" type="curve" smooth="yes"/>
      <point x="310.7" y="391.4"/>
      <point x="303.8" y="364.4"/>
      <point x="303.8" y="331.4" type="curve" smooth="yes"/>
      <point x="303.8" y="273.3"/>
      <point x="325.6" y="205.3"/>
      <point x="360.7" y="154" type="curve" smooth="yes"/>
      <point x="366.6" y="145.3"/>
      <point x="372.8" y="137.2"/>
      <point x="379.3" y="129.8" type="curve"/>
      <point x="385.7" y="137.3"/>
      <point x="391.9" y="145.3"/>
      <point x="397.9" y="154" type="curve" smooth="yes"/>
      <point x="433" y="205.3"/>
      <point x="454.8" y="273.3"/>
      <point x="454.8" y="331.4" type="curve" smooth="yes"/>
      <point x="454.8" y="364.4"/>
      <point x="448" y="391.4"/>
      <point x="435" y="409.4" type="curve" smooth="yes"/>
      <point x="410.653" y="443.562"/>
      <point x="347.945" y="443.56"/>
    </contour>
  </outline>
</glyph>
<glyph name="x" format="2">
  <advance width="664"/>
  <unicode hex="0078"/>
  <outline>
    <contour>
      <point x="556.7" y="303.3" type="curve" smooth="yes"/>
      <point x="584.8" y="264.4"/>
      <point x="606.7" y="218.6"/>
      <point x="621.9" y="167.3" type="curve" smooth="yes"/>
      <point x="637.3" y="114.5"/>
      <point x="645.2" y="57.0996"/>
      <point x="645.2" y="-3.09961" type="curve"/>
      <point x="573.2" y="-3.09961" type="line"/>
      <point x="573.2" y="100.6"/>
      <point x="546.6" y="194.4"/>
      <point x="498.4" y="261.2" type="curve" smooth="yes"/>
      <point x="495.5" y="265.2"/>
      <point x="492.6" y="269.1"/>
      <point x="489.6" y="272.8" type="curve"/>
      <point x="479.2" y="264.7"/>
      <point x="468.3" y="257.3"/>
      <point x="457.1" y="250.8" type="curve" smooth="yes"/>
      <point x="417.5" y="227.8"/>
      <point x="374.9" y="216.1"/>
      <point x="330.6" y="216.1" type="curve" smooth="yes"/>
      <point x="286.3" y="216.1"/>
      <point x="243.7" y="227.8"/>
      <point x="204.1" y="250.8" type="curve" smooth="yes"/>
      <point x="192.9" y="257.3"/>
      <point x="182" y="264.7"/>
      <point x="171.6" y="272.8" type="curve"/>
      <point x="168.6" y="269"/>
      <point x="165.7" y="265.2"/>
      <point x="162.8" y="261.2" type="curve" smooth="yes"/>
      <point x="114.6" y="194.4"/>
      <point x="88" y="100.5"/>
      <point x="88" y="-3.09961" type="curve"/>
      <point x="16" y="-3.09961" type="line"/>
      <point x="16" y="57.0996"/>
      <point x="23.9004" y="114.4"/>
      <point x="39.2998" y="167.1" type="curve" smooth="yes"/>
      <point x="54.4004" y="218.5"/>
      <point x="76.2998" y="264.3"/>
      <point x="104.4" y="303.2" type="curve" smooth="yes"/>
      <point x="109.4" y="310.2"/>
      <point x="114.6" y="316.9"/>
      <point x="120" y="323.3" type="curve"/>
      <point x="114.6" y="329.9"/>
      <point x="109.3" y="336.8"/>
      <point x="104.2" y="344" type="curve" smooth="yes"/>
      <point x="76.2002" y="383.5"/>
      <point x="54.4004" y="429.8"/>
      <point x="39.2998" y="481.6" type="curve" smooth="yes"/>
      <point x="23.7998" y="534.8"/>
      <point x="16" y="592.4"/>
      <point x="16" y="652.6" type="curve"/>
      <point x="88" y="652.6" type="line"/>
      <point x="88" y="548.6"/>
      <point x="114.6" y="453.8"/>
      <point x="163" y="385.8" type="curve" smooth="yes"/>
      <point x="166" y="381.6"/>
      <point x="169" y="377.5"/>
      <point x="172.1" y="373.6" type="curve"/>
      <point x="182.5" y="381.5"/>
      <point x="193.2" y="388.7"/>
      <point x="204.4" y="395" type="curve" smooth="yes"/>
      <point x="243.9" y="417.3"/>
      <point x="286.4" y="428.7"/>
      <point x="330.6" y="428.7" type="curve" smooth="yes"/>
      <point x="374.8" y="428.7"/>
      <point x="417.3" y="417.4"/>
      <point x="456.8" y="395" type="curve" smooth="yes"/>
      <point x="467.9" y="388.7"/>
      <point x="478.7" y="381.5"/>
      <point x="489.1" y="373.6" type="curve"/>
      <point x="492.2" y="377.6"/>
      <point x="495.2" y="381.6"/>
      <point x="498.2" y="385.8" type="curve" smooth="yes"/>
      <point x="546.5" y="453.9"/>
      <point x="573.1" y="548.7"/>
      <point x="573.1" y="652.7" type="curve"/>
      <point x="645.1" y="652.7" type="line"/>
      <point x="645.1" y="592.5"/>
      <point x="637.3" y="534.9"/>
      <point x="621.8" y="481.7" type="curve" smooth="yes"/>
      <point x="606.7" y="429.8"/>
      <point x="584.9" y="383.5"/>
      <point x="556.9" y="344.1" type="curve" smooth="yes"/>
      <point x="551.8" y="336.9"/>
      <point x="546.5" y="330"/>
      <point x="541.1" y="323.4" type="curve"/>
      <point x="546.5" y="317"/>
      <point x="551.7" y="310.3"/>
    </contour>
    <contour>
      <point x="224.8" y="322.8" type="curve"/>
      <point x="257.2" y="300.1"/>
      <point x="293.3" y="288"/>
      <point x="330.6" y="288" type="curve" smooth="yes"/>
      <point x="367.9" y="288"/>
      <point x="403.9" y="300"/>
      <point x="436.3" y="322.8" type="curve"/>
      <point x="404" y="345"/>
      <point x="367.9" y="356.7"/>
      <point x="330.5" y="356.7" type="curve" smooth="yes"/>
      <point x="293.1" y="356.7"/>
      <point x="257.1" y="344.9"/>
    </contour>
  </outline>
</glyph>
<glyph name="y" format="2">
  <advance width="563"/>
  <unicode hex="0079"/>
  <outline>
    <contour>
      <point x="204.8" y="-6.09961" type="curve" smooth="yes"/>
      <point x="111" y="-6.09961"/>
      <point x="34.5996" y="70.2002"/>
      <point x="34.5996" y="164" type="curve"/>
      <point x="106.6" y="164" type="line"/>
      <point x="106.6" y="109.9"/>
      <point x="150.6" y="65.7998"/>
      <point x="204.8" y="65.7998" type="curve" smooth="yes"/>
      <point x="258.2" y="65.7998"/>
      <point x="301.8" y="108.6"/>
      <point x="302.9" y="161.8" type="curve" smooth="yes"/>
      <point x="302.9" y="164" type="line"/>
      <point x="302.9" y="225.3" type="line"/>
      <point x="295.9" y="224.8"/>
      <point x="288.9" y="224.5"/>
      <point x="281.9" y="224.5" type="curve" smooth="yes"/>
      <point x="245.2" y="224.5"/>
      <point x="209.6" y="231.7"/>
      <point x="176" y="245.9" type="curve" smooth="yes"/>
      <point x="143.6" y="259.6"/>
      <point x="114.5" y="279.2"/>
      <point x="89.5996" y="304.2" type="curve" smooth="yes"/>
      <point x="64.5996" y="329.2"/>
      <point x="45" y="358.2"/>
      <point x="31.2998" y="390.6" type="curve" smooth="yes"/>
      <point x="17.2002" y="424.1"/>
      <point x="10" y="459.7"/>
      <point x="10" y="496.4" type="curve" smooth="yes"/>
      <point x="10" y="652.6" type="line"/>
      <point x="82" y="652.6" type="line"/>
      <point x="82" y="496.4" type="line" smooth="yes"/>
      <point x="82" y="443"/>
      <point x="102.8" y="392.8"/>
      <point x="140.6" y="355" type="curve" smooth="yes"/>
      <point x="178.4" y="317.2"/>
      <point x="228.6" y="296.4"/>
      <point x="282" y="296.4" type="curve" smooth="yes"/>
      <point x="289.1" y="296.4"/>
      <point x="296.1" y="296.8"/>
      <point x="303" y="297.5" type="curve"/>
      <point x="303" y="489.6" type="line" smooth="yes"/>
      <point x="303" y="527.6"/>
      <point x="308.9" y="559.9"/>
      <point x="320.5" y="585.6" type="curve" smooth="yes"/>
      <point x="332.1" y="611.2"/>
      <point x="349" y="630.1"/>
      <point x="370.9" y="641.8" type="curve" smooth="yes"/>
      <point x="389.6" y="651.8"/>
      <point x="411.2" y="655.9"/>
      <point x="433.3" y="653.5" type="curve" smooth="yes"/>
      <point x="452.4" y="651.4"/>
      <point x="470.9" y="644.7"/>
      <point x="486.8" y="634.2" type="curve" smooth="yes"/>
      <point x="528.9" y="606.2"/>
      <point x="554" y="554.7"/>
      <point x="554" y="496.4" type="curve" smooth="yes"/>
      <point x="554" y="459.7"/>
      <point x="546.8" y="424.1"/>
      <point x="532.6" y="390.5" type="curve" smooth="yes"/>
      <point x="518.9" y="358.1"/>
      <point x="499.3" y="329"/>
      <point x="474.3" y="304.1" type="curve" smooth="yes"/>
      <point x="449.3" y="279.1"/>
      <point x="420.3" y="259.5"/>
      <point x="387.9" y="245.8" type="curve" smooth="yes"/>
      <point x="383.6" y="244"/>
      <point x="379.4" y="242.3"/>
      <point x="375" y="240.7" type="curve"/>
      <point x="375" y="200" type="line"/>
      <point x="375" y="164" type="line" smooth="yes"/>
      <point x="375" y="70.2002"/>
      <point x="298.6" y="-6.09961"/>
    </contour>
    <contour>
      <point x="420.7" y="582.1" type="curve" smooth="yes"/>
      <point x="415.2" y="582.1"/>
      <point x="409.7" y="581"/>
      <point x="404.8" y="578.3" type="curve" smooth="yes"/>
      <point x="385.8" y="568.1"/>
      <point x="374.9" y="535.8"/>
      <point x="374.9" y="489.6" type="curve" smooth="yes"/>
      <point x="374.9" y="319.3" type="line"/>
      <point x="392.5" y="328.6"/>
      <point x="408.8" y="340.6"/>
      <point x="423.3" y="355" type="curve" smooth="yes"/>
      <point x="461.1" y="392.8"/>
      <point x="481.9" y="443"/>
      <point x="481.9" y="496.4" type="curve" smooth="yes"/>
      <point x="481.9" y="530.5"/>
      <point x="468.8" y="559.6"/>
      <point x="446.9" y="574.2" type="curve" smooth="yes"/>
      <point x="440" y="578.7"/>
      <point x="430.4" y="582.1"/>
    </contour>
  </outline>
</glyph>
<glyph name="braceleft" format="2">
  <advance width="417"/>
  <unicode hex="007B"/>
  <outline>
    <contour>
      <point x="400.2" y="-0.700195" type="curve"/>
      <point x="328" y="-0.700195" type="line"/>
      <point x="328" y="97.7002"/>
      <point x="301.1" y="193"/>
      <point x="252.3" y="267.6" type="curve" smooth="yes"/>
      <point x="251.8" y="268.4"/>
      <point x="251.2" y="269.2"/>
      <point x="250.7" y="270" type="curve"/>
      <point x="211.3" y="234"/>
      <point x="168.9" y="213.9"/>
      <point x="129.5" y="213.9" type="curve" smooth="yes"/>
      <point x="104.2" y="213.9"/>
      <point x="76.2002" y="224.1"/>
      <point x="54.7002" y="241.3" type="curve" smooth="yes"/>
      <point x="0.0365903" y="285.153"/>
      <point x="-0.307981" y="366.176"/>
      <point x="54.7002" y="410.1" type="curve" smooth="yes"/>
      <point x="76.2002" y="427.2"/>
      <point x="104.2" y="437.5"/>
      <point x="129.5" y="437.5" type="curve" smooth="yes"/>
      <point x="168.9" y="437.5"/>
      <point x="211.3" y="417.4"/>
      <point x="250.7" y="381.4" type="curve"/>
      <point x="251.2" y="382.2"/>
      <point x="251.8" y="383"/>
      <point x="252.3" y="383.8" type="curve" smooth="yes"/>
      <point x="301.1" y="458.4"/>
      <point x="328" y="553.7"/>
      <point x="328" y="652.1" type="curve"/>
      <point x="400.2" y="652.1" type="line"/>
      <point x="400.2" y="539.8"/>
      <point x="369.1" y="430.5"/>
      <point x="312.8" y="344.2" type="curve" smooth="yes"/>
      <point x="308.6" y="337.8"/>
      <point x="304.3" y="331.6"/>
      <point x="300" y="325.6" type="curve"/>
      <point x="304.4" y="319.6"/>
      <point x="308.6" y="313.4"/>
      <point x="312.8" y="307" type="curve" smooth="yes"/>
      <point x="369.1" y="221"/>
      <point x="400.2" y="111.6"/>
    </contour>
    <contour>
      <point x="85.2002" y="325.8" type="curve" smooth="yes"/>
      <point x="85.2002" y="314.9"/>
      <point x="90.0996" y="305.6"/>
      <point x="99.7002" y="297.9" type="curve" smooth="yes"/>
      <point x="109.8" y="289.9"/>
      <point x="121.9" y="286.3"/>
      <point x="129.5" y="286.3" type="curve" smooth="yes"/>
      <point x="153" y="286.3"/>
      <point x="179.8" y="302.6"/>
      <point x="204.3" y="325.8" type="curve"/>
      <point x="179.8" y="349"/>
      <point x="153.1" y="365.3"/>
      <point x="129.5" y="365.3" type="curve" smooth="yes"/>
      <point x="121.9" y="365.3"/>
      <point x="109.8" y="361.7"/>
      <point x="99.7002" y="353.7" type="curve" smooth="yes"/>
      <point x="90.0996" y="346"/>
      <point x="85.2002" y="336.6"/>
    </contour>
  </outline>
</glyph>
<glyph name="braceright" format="2">
  <advance width="417"/>
  <unicode hex="007D"/>
  <outline>
    <contour>
      <point x="81.2002" y="-0.700195" type="curve"/>
      <point x="9" y="-0.700195" type="line"/>
      <point x="9" y="111.6"/>
      <point x="40.0996" y="221"/>
      <point x="96.4004" y="307.2" type="curve" smooth="yes"/>
      <point x="100.6" y="313.6"/>
      <point x="104.9" y="319.8"/>
      <point x="109.2" y="325.8" type="curve"/>
      <point x="104.8" y="331.8"/>
      <point x="100.6" y="338"/>
      <point x="96.4004" y="344.4" type="curve" smooth="yes"/>
      <point x="40.0996" y="430.6"/>
      <point x="9" y="539.9"/>
      <point x="9" y="652.2" type="curve"/>
      <point x="81.2002" y="652.2" type="line"/>
      <point x="81.2002" y="553.8"/>
      <point x="108.1" y="458.5"/>
      <point x="156.9" y="383.9" type="curve" smooth="yes"/>
      <point x="157.4" y="383.1"/>
      <point x="158" y="382.3"/>
      <point x="158.5" y="381.5" type="curve"/>
      <point x="197.9" y="417.5"/>
      <point x="240.3" y="437.6"/>
      <point x="279.7" y="437.6" type="curve" smooth="yes"/>
      <point x="305" y="437.6"/>
      <point x="333" y="427.4"/>
      <point x="354.5" y="410.2" type="curve" smooth="yes"/>
      <point x="381.3" y="388.8"/>
      <point x="396.1" y="358.9"/>
      <point x="396.2" y="326" type="curve" smooth="yes"/>
      <point x="396.2" y="325.8" type="line" smooth="yes"/>
      <point x="396.1" y="292.9"/>
      <point x="381.3" y="263"/>
      <point x="354.5" y="241.6" type="curve" smooth="yes"/>
      <point x="333" y="224.3"/>
      <point x="305.1" y="214"/>
      <point x="279.7" y="214" type="curve" smooth="yes"/>
      <point x="240.3" y="214"/>
      <point x="197.9" y="234.1"/>
      <point x="158.5" y="270.1" type="curve"/>
      <point x="158" y="269.3"/>
      <point x="157.4" y="268.5"/>
      <point x="156.9" y="267.7" type="curve" smooth="yes"/>
      <point x="108.1" y="193.1"/>
      <point x="81.2002" y="97.7998"/>
    </contour>
    <contour>
      <point x="205" y="325.8" type="curve"/>
      <point x="229.5" y="302.6"/>
      <point x="256.2" y="286.3"/>
      <point x="279.8" y="286.3" type="curve" smooth="yes"/>
      <point x="287.4" y="286.3"/>
      <point x="299.5" y="289.9"/>
      <point x="309.6" y="297.9" type="curve" smooth="yes"/>
      <point x="319.2" y="305.5"/>
      <point x="324.1" y="314.9"/>
      <point x="324.1" y="325.8" type="curve" smooth="yes"/>
      <point x="324.1" y="336.7"/>
      <point x="319.2" y="346"/>
      <point x="309.6" y="353.7" type="curve" smooth="yes"/>
      <point x="299.5" y="361.7"/>
      <point x="287.4" y="365.3"/>
      <point x="279.8" y="365.3" type="curve" smooth="yes"/>
      <point x="256.2" y="365.3"/>
      <point x="229.4" y="348.9"/>
    </contour>
  </outline>
</glyph>
<glyph name="asciitilde" format="2">
  <advance width="456"/>
  <unicode hex="007E"/>
  <outline>
    <contour>
      <point x="312.8" y="245.6" type="curve" smooth="yes"/>
      <point x="284.1" y="245.6"/>
      <point x="250.6" y="251.2"/>
      <point x="213.6" y="267.2" type="curve" smooth="yes"/>
      <point x="174.2" y="284.3"/>
      <point x="136.7" y="287.1"/>
      <point x="102.2" y="275.6" type="curve" smooth="yes"/>
      <point x="75.7998" y="266.8"/>
      <point x="60.5996" y="252.5"/>
      <point x="60.5" y="252.4" type="curve"/>
      <point x="60.7998" y="252.7" type="line"/>
      <point x="10" y="303.7" type="line" smooth="yes"/>
      <point x="12.5" y="306.2"/>
      <point x="35.2998" y="328.1"/>
      <point x="75" y="342.4" type="curve" smooth="yes"/>
      <point x="111.5" y="355.5"/>
      <point x="170.1" y="364.5"/>
      <point x="242.2" y="333.3" type="curve" smooth="yes"/>
      <point x="283" y="315.6"/>
      <point x="321.7" y="312.7"/>
      <point x="357.3" y="324.7" type="curve" smooth="yes"/>
      <point x="381.6" y="332.9"/>
      <point x="395.7" y="345.4"/>
      <point x="395.9" y="345.5" type="curve" smooth="yes"/>
      <point x="445.6" y="293.4" type="line" smooth="yes"/>
      <point x="443.1" y="291"/>
      <point x="420.1" y="269.8"/>
      <point x="380.4" y="256.4" type="curve" smooth="yes"/>
      <point x="362.7" y="250.5"/>
      <point x="339.9" y="245.6"/>
    </contour>
  </outline>
</glyph>
<glyph name="sterling" format="2">
  <advance width="600"/>
  <unicode hex="00A3"/>
  <outline>
    <contour>
      <point x="345.7" y="217.8" type="curve" smooth="yes"/>
      <point x="431.4" y="184.3"/>
      <point x="514.5" y="129.6"/>
      <point x="586.4" y="59.7002" type="curve"/>
      <point x="536.1" y="8.2002" type="line"/>
      <point x="503.1" y="40.5"/>
      <point x="467" y="69.4004"/>
      <point x="429" y="94.0996" type="curve" smooth="yes"/>
      <point x="393.2" y="117.4"/>
      <point x="356.4" y="136.4"/>
      <point x="319.7" y="150.8" type="curve" smooth="yes"/>
      <point x="310.3" y="154.5"/>
      <point x="300.9" y="157.8"/>
      <point x="291.6" y="160.8" type="curve"/>
      <point x="274.4" y="61"/>
      <point x="225" y="22.5"/>
      <point x="193.2" y="7.7998" type="curve" smooth="yes"/>
      <point x="175.7" y="-0.299805"/>
      <point x="157.1" y="-4.2002"/>
      <point x="138.6" y="-4.2002" type="curve" smooth="yes"/>
      <point x="108.3" y="-4.2002"/>
      <point x="78.5" y="6.2998"/>
      <point x="54.7998" y="26.5" type="curve" smooth="yes"/>
      <point x="38.5" y="40.4004"/>
      <point x="26.5" y="58"/>
      <point x="19.9004" y="77.5" type="curve" smooth="yes"/>
      <point x="12.7002" y="98.7002"/>
      <point x="12.2998" y="121.7"/>
      <point x="18.5996" y="144.1" type="curve" smooth="yes"/>
      <point x="25.7998" y="169.8"/>
      <point x="39.2002" y="191.5"/>
      <point x="58.2998" y="208.8" type="curve" smooth="yes"/>
      <point x="76" y="224.8"/>
      <point x="98.2002" y="236.5"/>
      <point x="124.4" y="243.5" type="curve" smooth="yes"/>
      <point x="154" y="251.4"/>
      <point x="188.4" y="253.2"/>
      <point x="225.6" y="248.9" type="curve"/>
      <point x="225.4" y="324.2" type="line"/>
      <point x="171.5" y="328.3"/>
      <point x="118" y="337.4"/>
      <point x="65.5996" y="351.4" type="curve"/>
      <point x="84.0996" y="421" type="line"/>
      <point x="130.4" y="408.7"/>
      <point x="177.6" y="400.5"/>
      <point x="225.2" y="396.5" type="curve"/>
      <point x="224.9" y="517.8" type="line"/>
      <point x="260.9" y="517.9" type="line"/>
      <point x="225.1" y="517.9" type="line"/>
      <point x="225.1" y="593.4"/>
      <point x="286.5" y="654.8"/>
      <point x="362" y="654.8" type="curve" smooth="yes"/>
      <point x="437.5" y="654.8"/>
      <point x="498.9" y="593.4"/>
      <point x="498.9" y="517.9" type="curve"/>
      <point x="426.9" y="517.9" type="line"/>
      <point x="426.9" y="553.7"/>
      <point x="397.8" y="582.8"/>
      <point x="362" y="582.8" type="curve" smooth="yes"/>
      <point x="326.2" y="582.8"/>
      <point x="297.1" y="553.7"/>
      <point x="297.1" y="517.9" type="curve"/>
      <point x="296.9" y="517.9" type="line"/>
      <point x="297.2" y="393.6" type="line"/>
      <point x="370.4" y="393.9"/>
      <point x="443.3" y="404.2"/>
      <point x="513.9" y="424.1" type="curve"/>
      <point x="533.4" y="354.8" type="line"/>
      <point x="456.5" y="333.1"/>
      <point x="377.1" y="322"/>
      <point x="297.3" y="321.6" type="curve"/>
      <point x="297.5" y="238.8" type="line" smooth="yes"/>
      <point x="297.5" y="237.3"/>
      <point x="297.5" y="235.7"/>
      <point x="297.5" y="234.2" type="curve" smooth="yes"/>
      <point x="313.3" y="229.6"/>
      <point x="329.4" y="224.2"/>
    </contour>
    <contour>
      <point x="203.9" y="118.4" type="curve" smooth="yes"/>
      <point x="211.7" y="134.8"/>
      <point x="217.4" y="154.4"/>
      <point x="221.1" y="176.9" type="curve"/>
      <point x="209.2" y="178.4"/>
      <point x="197.9" y="179.2"/>
      <point x="187.1" y="179.2" type="curve" smooth="yes"/>
      <point x="170.9" y="179.2"/>
      <point x="156" y="177.5"/>
      <point x="142.9" y="174" type="curve" smooth="yes"/>
      <point x="112.9" y="166"/>
      <point x="94.9004" y="149.8"/>
      <point x="87.7998" y="124.7" type="curve" smooth="yes"/>
      <point x="81.5" y="102.5"/>
      <point x="93.5996" y="88"/>
      <point x="101.4" y="81.4004" type="curve" smooth="yes"/>
      <point x="114.2" y="70.5"/>
      <point x="137.9" y="61.7998"/>
      <point x="162.8" y="73.2998" type="curve" smooth="yes"/>
      <point x="179.2" y="80.7998"/>
      <point x="193.4" y="96.4004"/>
    </contour>
  </outline>
</glyph>
<glyph name="endash" format="2">
  <advance width="470"/>
  <unicode hex="2013"/>
  <outline>
    <contour>
      <point x="14" y="276.3" type="line"/>
      <point x="14" y="348.3" type="line"/>
      <point x="456.9" y="348.3" type="line"/>
      <point x="456.9" y="276.3" type="line"/>
    </contour>
  </outline>
</glyph>
<glyph name="emdash" format="2">
  <advance width="696"/>
  <unicode hex="2014"/>
  <outline>
    <contour>
      <point x="14" y="276.3" type="line"/>
      <point x="14" y="348.3" type="line"/>
      <point x="679.5" y="348.3" type="line"/>
      <point x="679.5" y="276.3" type="line"/>
    </contour>
  </outline>
</glyph>
<glyph name="leftsinglequotation" format="2">
  <advance width="125"/>
  <unicode hex="2018"/>
  <outline>
    <contour>
      <point x="88.2998" y="500.1" type="curve"/>
      <point x="16.2998" y="500.1" type="line"/>
      <point x="16.2998" y="505.7"/>
      <point x="16.2002" y="511.4"/>
      <point x="16.0996" y="517.4" type="curve" smooth="yes"/>
      <point x="15.4004" y="565.3"/>
      <point x="14.5996" y="624.9"/>
      <point x="61.0996" y="676.2" type="curve"/>
      <point x="114.4" y="627.8" type="line"/>
      <point x="87" y="597.6"/>
      <point x="87.5996" y="560.9"/>
      <point x="88.2002" y="518.5" type="curve" smooth="yes"/>
      <point x="88.2002" y="512.5"/>
      <point x="88.2998" y="506.3"/>
    </contour>
  </outline>
</glyph>
<glyph name="rightsinglequotation" format="2">
  <advance width="132"/>
  <unicode hex="2019"/>
  <outline>
    <contour>
      <point x="71.2998" y="475.9" type="curve"/>
      <point x="18" y="524.3" type="line"/>
      <point x="45.4004" y="554.6"/>
      <point x="44.9004" y="591.2"/>
      <point x="44.2998" y="633.7" type="curve" smooth="yes"/>
      <point x="44.2002" y="639.7"/>
      <point x="44.0996" y="645.9"/>
      <point x="44.0996" y="652" type="curve"/>
      <point x="116.1" y="652" type="line"/>
      <point x="116.1" y="646.4"/>
      <point x="116.2" y="640.7"/>
      <point x="116.3" y="634.7" type="curve" smooth="yes"/>
      <point x="117" y="586.8"/>
      <point x="117.8" y="527.2"/>
    </contour>
  </outline>
</glyph>
<glyph name="leftdoublequotation" format="2">
  <advance width="239"/>
  <unicode hex="201C"/>
  <outline>
    <contour>
      <point x="201.4" y="500.1" type="curve"/>
      <point x="129.4" y="500.1" type="line"/>
      <point x="129.4" y="505.7"/>
      <point x="129.3" y="511.4"/>
      <point x="129.2" y="517.4" type="curve" smooth="yes"/>
      <point x="128.5" y="565.3"/>
      <point x="127.7" y="624.9"/>
      <point x="174.2" y="676.2" type="curve"/>
      <point x="227.5" y="627.8" type="line"/>
      <point x="200.1" y="597.5"/>
      <point x="200.6" y="560.9"/>
      <point x="201.2" y="518.4" type="curve" smooth="yes"/>
      <point x="201.4" y="512.5"/>
      <point x="201.4" y="506.3"/>
    </contour>
    <contour>
      <point x="91.2998" y="500.1" type="curve"/>
      <point x="19.2998" y="500.1" type="line"/>
      <point x="19.2998" y="505.7"/>
      <point x="19.2002" y="511.4"/>
      <point x="19.0996" y="517.4" type="curve" smooth="yes"/>
      <point x="18.4004" y="565.3"/>
      <point x="17.5996" y="624.9"/>
      <point x="64.0996" y="676.2" type="curve"/>
      <point x="117.4" y="627.8" type="line"/>
      <point x="90" y="597.6"/>
      <point x="90.5996" y="560.9"/>
      <point x="91.2002" y="518.5" type="curve" smooth="yes"/>
      <point x="91.2002" y="512.5"/>
      <point x="91.2998" y="506.3"/>
    </contour>
  </outline>
</glyph>
<glyph name="rightdoublequotation" format="2">
  <advance width="240"/>
  <unicode hex="201D"/>
  <outline>
    <contour>
      <point x="69.2998" y="475.9" type="curve"/>
      <point x="16" y="524.3" type="line"/>
      <point x="43.4004" y="554.6"/>
      <point x="42.9004" y="591.2"/>
      <point x="42.2998" y="633.7" type="curve" smooth="yes"/>
      <point x="42.2002" y="639.7"/>
      <point x="42.0996" y="645.9"/>
      <point x="42.0996" y="652" type="curve"/>
      <point x="114.1" y="652" type="line"/>
      <point x="114.1" y="646.4"/>
      <point x="114.2" y="640.7"/>
      <point x="114.3" y="634.7" type="curve" smooth="yes"/>
      <point x="115" y="586.8"/>
      <point x="115.8" y="527.2"/>
    </contour>
    <contour>
      <point x="179.4" y="475.9" type="curve"/>
      <point x="126.1" y="524.3" type="line"/>
      <point x="153.5" y="554.6"/>
      <point x="153" y="591.2"/>
      <point x="152.4" y="633.7" type="curve" smooth="yes"/>
      <point x="152.3" y="639.7"/>
      <point x="152.2" y="645.9"/>
      <point x="152.2" y="652" type="curve"/>
      <point x="224.2" y="652" type="line"/>
      <point x="224.2" y="646.4"/>
      <point x="224.3" y="640.7"/>
      <point x="224.4" y="634.7" type="curve" smooth="yes"/>
      <point x="225.1" y="586.8"/>
      <point x="226" y="527.2"/>
    </contour>
  </outline>
</glyph>
